<mxfile host="Electron" modified="2024-06-10T16:12:10.129Z" agent="Mozilla/5.0 (Macintosh; Intel Mac OS X 10_15_7) AppleWebKit/537.36 (KHTML, like Gecko) draw.io/24.5.1 Chrome/124.0.6367.207 Electron/30.0.6 Safari/537.36" etag="BhPDtbCb4uY5Aau-eEbp" version="24.5.1" type="device">
  <diagram id="f106602c-feb2-e66a-4537-3a34d633f6aa" name="Page-1">
    <mxGraphModel dx="1247" dy="743" grid="1" gridSize="10" guides="1" tooltips="1" connect="1" arrows="1" fold="1" page="1" pageScale="1" pageWidth="1169" pageHeight="827" background="none" math="0" shadow="0">
      <root>
        <mxCell id="0" />
        <mxCell id="1" parent="0" />
        <mxCell id="Lif8JBEafslfNm7ranTe-1" value="" style="fillColor=#F6F6F6;strokeColor=none;shadow=0;gradientColor=none;fontSize=14;align=left;spacing=10;fontColor=#717171;9E9E9E;verticalAlign=top;spacingTop=-4;fontStyle=0;spacingLeft=40;html=1;" parent="1" vertex="1">
          <mxGeometry x="1090" y="160" width="430" height="260" as="geometry" />
        </mxCell>
        <mxCell id="7BdzqqytsKiichTIAf4s-2" value="" style="shape=image;verticalLabelPosition=bottom;labelBackgroundColor=default;verticalAlign=top;aspect=fixed;imageAspect=0;image=data:image/png,iVBORw0KGgoAAAANSUhEUgAAAgAAAABPCAYAAACd6X1qAAAABGdBTUEAALGPC/xhBQAAACBjSFJNAAB6JgAAgIQAAPoAAACA6AAAdTAAAOpgAAA6mAAAF3CculE8AAAABmJLR0QA/wD/AP+gvaeTAAAz0UlEQVR42u19d3hUVfr/5z13Jj0BQelgd9VVATuCLk2woVhGpSQzzAyTSTS2/bkFy44K9rZfNJmETJgkYsO2i6LSbWtlV10LtkXEAggICSFl5p7390eCQph7p90JSbif5+F5NHPnzLnvec/bznvel9BFwD6In9867XCosj+BBwLoC0EDwcRMLJnRTEw7QdzIRF/IsPii3+h3viMfJEyYMGHChAkTe4A668R+nHRSlrWRTmXQKDDOAHAGgB5xDtMI4AsAbxHRy6FMdeWARat3mstuwoQJEyZMA6Azefm236f9vDXzQkBcAfB5ALIM/okmEL9OoGdU0fx4vyUfN5gsYMKECRMmTANgX3n7o0860KIo1wPsAtC3g978F2ZUsUKP9lvy3lqTFUyYMGHChGkAdBB+HjkyF+nNNzDRDQDy9tE0JAjPSkF/Ng0BEyZMmDBhGgApBI8ebdls2VHCTLMAHNhJaNEExv3hbHmXmSdgwoQJEyZMA8BgbDr7tCMhZQ2A0zspTdYz07V9V7z3vMkeJkyYMGHCNACS9foB2jzuZA+DHgCQ3dkJw4x5ara8zowGmDBhwoQJ0wBI1KUeMSIzPStcC+DSLkafj8IcvmjAiv+sM1nFhAkTJkx0J4hU/8C2UaMOSM8Kv9oFlT8ADJWWnPcvv/mb8SarmDBhwoQJ0wCIET9PPKl/S3rzSgBndkXitIgM3DP0rt6bM/u+NHZ2vc1kFxMmTJgw0V2QsiOAzWNHDGRS32LwwV2RMM1KJu4Zeic+6zls159UBk9deVPu0ybbtGKKx3Ngukong3GkFOJIAvcCIw2gXIDrGQgR8D2IviHgc4Qb3w8Gg00m5UyYMGGimxoAP48cmcsZLa8DGNZVPf97h96JTw4Y3v6jEAOTVt6U8+r+yjB2d9FJxJjK4AkAfh8nDzUDeJfBz0mFn36souIncwuaMGHCRDcxANhmUzb98u1zxLiw63r+d+GznkO1Hqkn4tOXz8r9bH9hkpKSkvT6hlABE64DcKxBw6oAL2LGvTVV5W+bW3E/NCad3vtBGK3x8evVAf8NJpVMmEgdLIZ7/1u//Tuhayr/FpGBe0+4U0/5A0AuMz0//u6tpy77S6/t3Zk5fD6fWPv9RnddY+hWEAYaPLwC0GQiTLa7vEuF5Ovmzy//zNyS+5P7wYcDdJLGpz+YBDJhIrUwNAnw53GnXgDgqq7q+d817B58esCwWB4/SpVp5d2ZMZzOwqHfrt/4LzCXgw1X/u1xthT0ocNVeLfNZkszt6UJE9FhKy7OmVpUdIDP5xMmNUwkZIMbNdAvo4f1DCnWTwEMSPGcQwA+JKI1DPkdpKhvfRGZwUBvCPwOTCcA6BeP53/P0LtiVf6/gsFXdMekQIez0MtEDwHI2Ac//wEUeWV1RcU35vbs3rC7Cp8HaLLGx/+sDvgv2t9p5PP5xDfrfjxFKGIUGCMYOIKAwwHkRJCL64jxDRO9S8QrczOtb8+dO7c50d/2eDxZqqruJQMURamvqKgImRzcOeDxeLJ2KEp6+7/nqOqOaOtk2BFASLE+lELlv42In5SM53aqOW8cumpV1EzyzeNPP0aV6vlEmAadZMQmJRP3DL0bn/c8IQHriR4Zd2fd8uWz8rZ0B0Ya7fNZDl6/YR4Djn04jZOhinfyZ3guqJ1f8a65vU3sj5gxo/BYqWDm2vUbLhdCDABH9disAI5gwhEAT2TGrXU7Q1vsTu8CKEpF9bxHP413Ds2S5gDW6/aS9YxJAF40V6lzoEUVd1pVvnavvxOdD2Bxyg2AjeNPGQ9OidL4Ccx3QjYGD1r16Y54vnjgsnc+B/A5gPs3jT9pFFjcBOCcPRhcycR9J9yZkPJvw0EMxQegpMt7/Q5HBq/f8BQSyN9gYB2BPgd4LYHrfv07ow8JOowZwwD0iGf5hBAvOp3Ow6qqqurNLW5if0G+s/BkAfqbJJwPTjpC2xuEayDVq+0u79Ms1L/VzJv3pUllE4YaAAI0m3eZqMYgDOA+qTTP6bfk44ZkB+uzbPWbAM7dNPbkc0E0F8DhTUom7h56D9b0PD65wZm94++oL112S+7nXZUJ2rL8XwAwMY6vvcPgWissLwUCj+qWSvb5fOLbHzadwJIvBng6gMOihFYawXylqfxN7C9wuVy9wmy5C0RuGF+gTQC4kqQy2eH23vbtoH73r/L5wibVTSRtAGwcf+pEZj7NwDmtl1La+q1cbXj4t8+KD17+eeTI4TJTLbt72N1XrOlxvBEGkEUqdAuAqV2RATwej7VuZ3ghKGbl/7KU8rZ4wvM+n08C+BDAhzab7fas3N6TQbgDwDERHm+CFJOrq0qXm9vTxP4Ah7vozDDz4yAMSvFPZTDjroPXbzx/xoySS+bPn/uzSf39G0lbmiT5FqMmw8B7DHFKKpT/Lhz01lv1fZe9M31N3tBLADQaNPHLx91Zd1RXZIBmVTwI8KQYHv2RiSdXB/znJXM2v3DhQrW6yv9suiKHAnwjWosD/TodZrqkuqp0ibk1TewPsLuLrmLmlUDMyv8bbj3XrQTwCED3g7kChKcBrEZrMmA0gTVKivC7Do/naHMFzAhAwtg89tSxknikroGgMOiAZig9WyAyVbAiWz9oUcAtBFmfBrk5A6zSO5Y0MbH3y+/WdcSLr7g5e9HYO+ovgKDFANKTHE6RrFwD4Oou5Xm4iqYyOJY5r7JS+MrKysqNRv12W3bq/Y6ZxcuklC8Q0B+gS2uqyl42t6WJ/cPz9/qY+W9RHpMALyOmJyDFK8Fg6Qa9h23FxTnZzeoYCeGgVsPeqmEEHMpSLHM6i86qqir7n7kapgEQNyS4MJLCtxxcD+vh9bAM3gHlwCZA0c8PYCYmcC8iPBi+IW2xktmylEYh5ee/K27JXTFudr2diZ5AklciCTx9ko//tMhHO7vCwjudVw9QES6LwVt4YWfd1isWLlzYkop5BOeVfjjd4xlhkXRcsNK/1NySJvYT5f8XZugpfwbhcQkxp7ayNOb8ooWlpTsALAKwyO7xHM6quJ20jicZA1WBWQDc5oqYBkBc2D5xRK/mcPjXe7rKgU1IP2kz0o7dBsqIL7+EiAnAUQwcBWJXuMna0rIMz5HkR6wTwm+lkgDLb859auychpEAJ5vJ32OnteESAI91hYVXEf47gLwoK7MoXZGXVy9cmNI7v209Acy+ACb2CxS4i6Yz8506j/yPiBzByrI3kvmdtloa0+yuoscBDgDo284AeDEvy3KVuSL7LxLOAWgOhS8EkK70aUSObS3y3GuQfuLmuJW/BtIIuBKC3gwts74fWmIZl0oiZIey/gLgi2THYfClXWHR82cU/QGEy6I89s7OuowrzIIfJkwYuPfcxccQww+tiCPjxXCTdXiyyn8PQyBQ9hKpOB2t16J3hRee21m/5dJkCgWZ2I8NAJETOj/7onVbcp1fwnrE9hQ2FsbJELQstCxtUdPy9MNT8QOLfLSTiQxoPEITJ9zH2Z1+0UXUxM1fSMWUhQsfajS3iAkTxmC0z2cRrD4OaMgIopp1Q/pdvGDBXMPzoIJB/7dWCo8B8A2AJ78b3Ddlx3omurkBEFpmGZN3zaenpR37S28i7qCp8gUKy/+El1oLUjH6ylnZiwG8nuQwmeGWHY+NumvbAZ3WA3EWngxgnH4kg64PBv3fmtvDhAnjcMh3PxUBNEzj43+uG9TXlcr7+ZWVlRsVtpy1s27LdLMOgImEDIDQMsufAFpKwOB9MN9cJlS3LLNW89MwvGkMEz1gQBRgcpq0fDjm7h1DO+OCK0QzojzyTk2grMbcGiZMGAeH47qeTHSbxsdf7UwX0zpCKVdVPfLjwoULVXNFTMRlAPDTUMJLrWUA3QNA2ZeTJqAg3Mv6Ci+OlsQWpwHQkrUYxrQhHUIq3hh7144JnWmxbTZbGgNXRKHubAC8v2wAh8ORMW1aSV7nmtN1PR2O63p2hrnk5+dnOxzF/aZ4PAd2ZeVrs12fuS/nIJXmQgCRIoOSgelt2fsmTHQoYroFwAwKLbcGCLB3ormPCadZl/Li0Nl0Hgw5M1vlo/CYOQ0vENiIzNhcSCwaM6fhkpU3Zb/UGQiWldfrdAC9dVb6y+qAf3F3ZXan8+oBYQpNJtCZYAwD4VAG0i1KCHaXFwC+B/AFQG8R4eVgZdm7qTaGZswoPFYKXMSgUQB+T8BgRpMAALvLKxlYT8BnzPQmKeIfiTR1iQdut7tvC1tsBJoA4hPBGMiQSFMF7C5vE4D1TPQKMT9VHfD/q7MZi263u28I1suYMZaA4QAPZjRZsvIAu8u7A+AfAfovgxaFFPWlJyoqNqd6TqN9Pgut33BNZHub5tdUlr23Pykdm82m5OQcMFQqysksuT8R+gI4AIxNENjEoHWS6Z3HAqVf7z80uT4zM7dpJAgnEeEQgHuBuQWgbSB8RiTeDs4r/XCfGADh5daHOpny34VTw2lpT/PKlgtoDIwJnxGWgGHU1Zg0Ai8cPXvn2FU3Z72zr4nFTGNIJ1mTWushdDvvv8BZNJ4If1QRnkAgsSuMFAGDWv/xOGbcand5v2Hw3AyF51VUVOw0brPblKzc3leCcL0ETtKeDgQBBwM4mIjPhVTn2F3e/xDwUEPdlseNDOU6PJ6jpSpuCTFsBFgBjsQJGQCOJOYjAZTY3d7/gvn66kD58lY6e5cTYXhE3hJiYnBe6fupWmP7zKt+D1W9KcSwAWzRoGcOQEcBOIrAl6apQrW7vLWk4rZU5rwM/mHDOETulBpmod6+vyg5p7Podyrx1WBcLgl9wIw95BG1Sh8CQwGjwOX9QhAWkGr1J1K2uLXQEo5t//dQGhU+Xlb2S8K85i6qBnP7iNL26oB/ZiIOgCroj4SmK35NDuXdCdL6/8wSdlfRWkCWKhwq37NPCqmJiu2oRwAty6wuANd2XrbiiWHV+oBho7Wo/zJ4gpkC8vkJs3cO3teUIuIzdN8dtKg7CRyHo/BIu6vwVSJeCvA5iD/n5XACPdysii8cLu+Vhigql3dkZl7v1SA8hjblHyeGM1CTldf7Q7ur8Kxk5+PxeKwOt3cOq+LjtoIx1tg3C44HaJnD5fXbbDaFgFy0hrn3+idV1ZKKNS4pKUkvcBfeC6n+B4QpiK+2iQLAwQq+KHAWzUKK7jKRxOUazsZzNRUV33V3xV9Q4B1Y4PIuUIk/A3A1CH1i88XwO2bcLpXQOofbOyc/Pz/eG1ajAdja/8toVpI7DmKeHGHcSfEMMW1aSZ7D5fVLQf8lwKl5M2TPHz4UoPtUSvuywF3421EuccJF83QFYvOraccR8Egn5696SH7aqMFW+fI2A9hirARAvxDx47aneZ/mTjDod3p0XDeo70fdRvk7vQ5WxH8AMiIPYxADT9hd3idsxcU5iQzg8/lEgdN7O4DXCDAiQfQ4gFbaXUV32my2hPgq3+vt06wqK5gxKy7FvxdfoTArr9czTOjQXIrpHk//uobQG8R0YzLzB5BGxHMKXEXPJLq+URTZ2RH/zvwYujkcLu+VZMWnbcalSJDBMpkxS6Rlf+SYWXxKl6eJx3O0JSO0moHCBGnSj5iedLiKHmhlI2w33ADgD2AVCteiNezXmZX/uSmoFvg/44UAj9r6dcMf95037MjQvbnBWNNdrgY53N45TJgfm1UdF67MapGvud3uvvF8yWazpa1dv+FJItwCYxNoBcB/zc7r/azD4Yhrn7rd7r4ihJUAjzKIwycT8LuO9CoVVbwGwikG7tFLMpvkP0pKStKNGnPGjOLBiLzvmqA2d+vS1wWuoj8z8ASAHgYNeThL+YZR0bh9I4c9x7Mq3gRwRPIOHd9gd3nvJiRuAGiGy8LbLCUAhnViWjZA8qQUlQpOSUYuM/42dnbjUytuzlzX0cQSIqeXirDQUSVrjfotu6voPoBdKYtkMM+uqSp/MPJvF97R5tGmKoxyYgiWJVOLikbHco7Ydt6/AIhaeTGJKeEiKBlPjfb5Lo3FiPN4PD2aVPEqYe/z0a6AadNK8sgaWgzgSMMNdcLYuobQYwAuhwH5MKpFDiUZURb8uzoYbOquyt/uKrwD4JtjePQbInzPwFYw+rQpRj0DO52BBQ5XUVMwUPZClzKICrwDWcEr0E3EBgB8B+BTMG8AKJeIBjP4RESOct3IhBcS5dSIBgC/gl5h0C2dmJZ1ID7XOiH8r1QMTsDOFGXCZYHU2QDyO5pgLSSzFH0tUmcc/TiLI195MkhIU0Tr2e4unAKmm2McpQGQbwH0I1rbQg8EMByx1bc4wdLCjwG4IJqSyMrrfVscyn8zwO8y6EcCiIEBBJwWg8AAgAsPXr/xLgA3RnvxZpUWxHEM8QuAL8DYDEIOwAPaEun2GZSMUBmAE2J4dCcIr4JpDTF+AfFAyTieCKOhF3olXGZ3e0uqK/3/lzSvMg6LaG8T/ttdlb/D5b2SAb19uBWEByHkk239CvYgWYHLewoRzQCzS0PpCQYvsM+86tRU34oxCm03QZ5D5GRQAFABzBdSls2fX/Hv9h+6XK5eIaRdQuBbAAzZU9ziYkMjAGEl7RqAe3Zaz594knVcapR/W2hFTWFt4ynj7qy7Y/msvC87kmhWqaZJQXpGT1cqC7pXEtGMGcWDJcvyGL77GRi3kmx8Kbi3B0b5zsKTBNFfAFwCHSYg4LxoSsLhLjqTmf8ag9f5GgG379i+5bX2mf2jfT7LId//NIaZ/gZgZBTO/aPdVfjKrqz8yEZSUTGYz4+BTi8zi/u+G9LnjfZRhemu4iMUyJloTQ5O78iFL3B6L9bsbvcbHbYBmCNbdpbV1tY27EUDj+dwqOIv0OuCx7i3YObMV2rmzfsySVkyiCKwERPWd0flX1DgHcjgMu1WB6gNp9G1OtEzrgn43wPwntNZ9LAKrtU45smCDD822uc7pSscXQ75buOfQDhV4+P/kRCX6l3zCwQCWwFU2mzXL8jKbbwbhGuMmNdeBgCvREZY5RT0tecfwfiAiDaA0MzMgwGcAtDAuDx/8DnWceG3U7tc4t8ADwRwGIz3ZBVmuh5AUUcyoLRyM1RtA4CJ0ruQnNnLK5AkH0RrFrq2LAbP2Vm31adzfY5rq8o/AHCZ3Vk8ASSf1F1/xh1ut/upysrKje0/stlsCjOXQj/Jp5kY3mDAH9R6oE24LQWw1O4u8oD5EWgnvBGYHvF4PCdEauKU7/X2QUjOjmLc7mDi6TWV5f/QeqDtfvafHY7CSlbwYkdFBGw2WxoR7o/y2CcWWC4IBB7VPGZr8zpnFrgKPyHQwxqPpQup3AtgcpKyJCNSkIgk16E7woq7AIroPDLDV1Plvy3Woaqqyr7weDyjm1XlSYAjZNnTsCHrf/IAKO3MJJnu8fQnNfKxJAMfpVF4YuW8vWVIJLT1Z7nW7vZ+B466F6Jz515xCDVtMmILOcakd5hRy8Cp1vHhgdazwxdZxocKLeNC11jHhy+2jg8PYoGTubWFroxJ+Y9PtfIHVtyUfduKm3JO7n1k9kFMPBpAsC1EYxBo6mjfppyOZEIV0L/HzpzXVWQMtzNcHQ7P8SBcGuU7RdWB8ltivTtfXVW6RJIYCf0bIXktUCImdmb26HUZgON0vtsiCOcFq7SV/15zqiyrAIsLAIR0QjlHN4dpSsSPWnC9lnD+dY8RjdZT/rsjGCz/SlrpTDagk2YsyMrtbWszyrXW+ItQGp2lp/x3R02g/O8Av6Qz3kWOmcXDktrpGsaa7LgmKh3n/c+ceRQB0zToUB2P8t+FioqKnemKeiU0jkwIdLPNZkvrzHRRwuKPGgnJdaTISyM5ENFlgf8BECVdsl1EsNIMOZ9mYB3Ao9LODhWkjQ9pFgBJGxtanTY+lA/iM0k7+347MyZ2hPLfw9q6nNSVs3JfW3FTzgxWeSgYRl2TyyNr1oUd+S7Nv/yyRdeIIRzeVQQNgfcQnlIRJdB3ax+pCfjL4/2d2srSz8Fiqh7diMkTMQNfkm6IjpivnV/pXxH3xq8qXcJg/XN+2vu3S0pK0olQqGsCMhzVlWWr46KR37+JiKahI46Q9Oe/Q6g8KdYCL/ku73EOl/dRgHRrKUgpk+oSSswRHRvBTOhmIFW5SiPi9VWaIosTHbeiomInCXm5Bo/1bzMMOyVKSkrSQXBq7NPrIuRAxG5YyOar0Vq91BgDgF9FNojHGrBRP7EqodPjUdjWceF/KQidAeylZLcz45y0s0P7tJLeyltzP7WkZ48kwJiyvoQONQDaWn9qe0ZMv/N4PNYuIWn4N+/JZrOlkV6SHeEHUptuTPSnWhUuqnUe6SFFxrl7KBe3+1AijND5zuvBqnJ/onNq9VyhVz72pIKZM/cIy29vCJ0H/eOMJ2uq/M8nRKPKstUgTmkY1uEo7gf9HIi/B4PlX+mNYbPZ0grchVc43N5VAvgvA8XQPzYCATaXy9UrCUeoOTILkwXdCD6fT4Bg0zAtZydbSTNYUbEGRLUaivSKzkqX7Q3qGRr77tt1g/rWJjN2VVVVPQgPJzPGHkyoWpU/QCZ973+TRVrOp3GhDXHrxPHYyK9aJoWV8AdoTfTazgIT08aG3u0Mi7nkRmoY8SDbshobXmfg5OQ8A4wHM6FjQ4FfQDOEytlNYToZQNJRFpIyAKGsSnKYPzL4tMhmK23d9Z85PQ86WUp5gPZc+J5gktetmMKziS0F0EiaJcLZAJ7/zTK3jGfSjkgIwm1J05j4NmZ6SZu/LGcD+DWBjQRNaBc42TNeYZFJlaRlwQ+RSlcjvkp8cYwvz4J2PkXYgtCDWt+d5nYPsrBSCJAbjH5xbrgfW9hyGICtCa7U1kg5AEzcvzsZAOvW/TgMQkR6p+/XDen/uDF2f/heYiXC9WIeN9rns3TGZEAiqdF6nR81Yr7hRus8S2boDjASqm64x2ZlqZye7NVXAv2Rzm5MuLwlTWxcH16edh0zl3Um5b8Lb99AjWPuqJtOQnySpLDrPWZ2/VErO+j8tG1x3gLjXG1mFZOMMADarrH8O5kx7C7vzTpu1a8dG1nlU3WC/1JNo6eSfZ/aysq1dpf3XR0P9PQ9BZVmti8AbJxf6V+Z7Jwatm99NSuv91YAvSI7XXwagEd329yna52SEOj9YEXFmmTmU1NR8Z3d5X0bwJmpEaR8ImtlljPeC1QF2itocrgLxzOoCIxJce5VFcBLzOQ/bEjfV30+n0x44sxrI02bQEegG4GJTtWIgCwxSjHXzJv3pd3l/Rp7F9HJGrJ+w/EA/tMJSRMxoq4wDCkCtWDB3Dq7q/AdgMYk8v32FvXwJOfzuTKuZUGyL6WMbXlSgs7obMp/F1bekvcFgwNJDyRoaEfOW5DQVTwMnurz+cS+pm9bJbajtb1b/nI3T0ond4E/rvX7NxmjgLBM5+P2czhCxwhbBgMKzCxcuFAFY4XOYh6+x6/qKBzJvMSgpXs9ZQoGdLAOY/+at+BwXNfT7vJeb3cVrmGmJW13pGNV/hsAzGFFHlYd8F9UU1X2clLKHwAp4kuNFzqtWxkAGvwlgFUG/9SqyDLB+KJQBiGSHKsfMqS/kXUgEi6G107Y82FJskElUfLCjQicPr7ls87M8EKIpA0AQaJDvYC1A/u8B2Cjtm7Cwf/7/qdL9jVt63e2TACgmdnLirJ7UqlOn3oyrNEKg/Qyy/PalY89UMdVMrL5yzqdPXTQrv/Oz8/PApCjve78tUE0+jaFKkb7HF5yw4wZnhPt7qJKVpp+APBgHFcTGeCVYFyRrsgh1QH/zUY26GnY9vNHiHwDZ0C+u/iYbmMBCPTTcCp+NDYS9Fv0L5bf7wSOzAERGG5rsoZlO+NnU+LLtieS6ljHRKuwn2D5X7I+IOCnpOjFGNSRc17l84VB/EQUZrop0eYyhol6jnyNrQ1bdm7btGY3pZOmI9m3G7jJdLPLt279rSAO6zam4W0GSkO9sdJ/eyxPN6+HFdpqxHSEgfSO8K5CRykUSyFWt1WOy4qRy7YR8HdS5LHVgfKx1VX+pyPVTjAgUtMCcMRIpmC102avJwCrhlFYb6xs0OAx5k53FXCDqlo1ZEmjsdEX7Exiz7YN4oPQ8xJi4oDm0KfYX0DEvFuSVYJLd0BHT5sh5kM3BE3DMvN6Fe4rsrpcVx0M0i1tuWj3u/wEVnUiGoY1smKSukk22dnN4d1+V+oIsEwDWVBnLPqVLhkZId0zWFINq+aXslskJHXrcMRTw+IDMLvTFR4YDPivSzb3IUbjUeN2Bc3sMjdvElUwOoZbgjtR0doMXYUmegnCCfEXEqfxb188CRlIrv7tTjov8pWXboyfkmSFDu+0WFNZ9jHAi6Mw1N3tr5F1FEJQ74CO4ibihe3+1KBD3wMN3GYH6XwYHjBgQFMscyKCYXNiqfN+xL82tPpywIAG6NQyYIPmxJS6/g+SqCEZ2cRAFQlxanXAf0p1VXkg2Wtp8U1eWahB/0FNqjK1OwhCZg3Zz7Knsb9DeXH9forsmlgeOiAcbo7kbFHMUapY9wZnJf8i/ZFs+CuDV6Jb3W2NwZ1OrnoeidC+mLaUfId+FAC5JJWF06aVdGh1wAJn0XitSmJt+OaQQf1faadQdc7m6WTDqoSx3r1+Wt/uTG+djnV1hoHulfac5G9zaMvCXq9tK7AxCWnMw1LmRYPXJbBma4jpelIzBtYE/K7gvNL398V+CwZLN0AjCkDEc2zFxTno6uDIZ/NSp3JjYiJTYzyN34+EZtGUsMc82uezAIipzXhFRUUIjJ8jfNTHyJbTxJTw0b34TVQiBCRlBIhmmX7wfhYBGJjcpuGGfTHp2vkV72oW1fgNJ1gyWl6w2a7P7Ig5TXO7BxHx43rWNQMPt0+ekeBP9AyZ7B69/pDs3NqMiLN1lNPH7YyST3QE5fCCAu/AZOdU4PEMAeuUGiZql2XMH+o8e44BeR8EjStPxkg5ijVrOgRgoSCMq67yHxusKns4GHx42z7Xj4T7NPhhYHazvKerC0KheZ1ZjDPY0Ih43Y2FWBMhKsCR55qWm+jPH7puU3/EESlnRJQF6fWN4VON2xo0ypBQBicZ0haQY7CfYLSv7kCQbq33WCTmT/tsw6qW/wf9OvcAaExWXtOSqUVFKc1VyHe7D7Ww5VUAemH2bxrrtlTs9R5h5U29aAaD/pTs/LJzezmh0x+Dgdfarevruk6MFTcmvelVcaOeIJKCX2s3x1U6w/XPyu01LZn5OFyFE2Gwt7c7VKY3ojyyE6BbVEUeXB3wX95WZrnTnAu3drjjFzT4p6jAXXhZR81lisdzYIHLa2yej0W+o2Ecj/d4PD0MkRMzPKchcjvdrbWVpWv29owjHwuQDCfc64aFHBmfcuZlkX0/vsAImkz3ePoz+ERDDADSC13GFIro+D73+0yBpikXA0jKa2LifdYSdP78uT+DyRldSPIoawu/O2OG58RUzCN/pneikJZ3AByrHyzBjW3ljPdAMFi6AcCbOib4eLur6PxE5+dyuXqxoJt1l1HdM7y7dlC/14GIob9dAr/Q4fEcnbjBVHwMgJk6j/zStG3LHjUfVFKfhV7DLRI+p9OZkGfk8/mEZLollfza1oHwY51HMhn80mMVFQkZ1VM8ngPtTu/fHY7reqbqHSSpNwBoiqwnqNbhLjoz1ft+2rSSvLSwWEyA3+723mTUuG3JlJGuk+Y1S2FId1khxCyNHbU4khxj4kYNXh+WeAACF8X3PGm15vYaYRiJsLgGSSTftjcAki1OcFZoueWs7q78bT5OA+PPyY7D7ULHHY3qqrJ/AnR3DI8eKYX4l91VeIfH4zEkgWWKx3Ogw+X1C4mXQegTZdPV6tWpJ0ZVFErX2D2euJsd+Xw+EUbaArDOUQ9heTDo/3b3P7WeuZNe/4AMDovnE8mxcDqduULK5wDtzH0meqy9sbSgsvJ7gF/WodGhYUoPIoFE4P+t33gjGZnboLnONF/X2QJXRWzMFAUej8eaHhaPgXANW5o+cbgKz0nF/GsrK9cS0181eYLxcjLGanTeuXqAJTO0EoRT2jbWbLur8FbD1oewQGMD3zBjRnFSV8zzZxT9AcAkjd/VuNpMGo1yEqua1/YOl8bznca6LasROf8mr0WKpKKTBQXegUTsTcqA2MNCZaxOmguYKniRsVmOnQ2bLTtuAjjZ7nnhFqX54339LocO7nsztDbunkgH6OZmKb4scBbekKi36HAU9ytwem9PU8XXDBRGVzj8ZYYiS/SeaKjf8jgAveItvaCKVQXuohNin6cjY+33G54AWFcZsBR3Rvx7iB/W8PZ2GQ5HWzJDK6d7PDHXhM/3evuolLYEBL3oQYuVxQMaP3qXrgAHX2J3F81rS3SKCXandxqB7+gIXm3IoEroHlvRMKlkPBtP3oqtuDinOSyeY8LENmU1kEGL7S7vvFQkwQaryv4Oxosa3JQN8AsFzqJZRlfkLHAWnatS+AMw2kXy6DaH22tM9CYs/Bo830sK+VSiCblut7uvEPx4RFnBWBOsLH9Zw/DQOpaY5HRePSDeeaiCH47X2269ssxlEafH+HObYZNQ1A0W1ERp7x2fAWAVynID2OB34Yy0hfwBuuX91jGz6y8lSj7cSeAP3vrzQfX7+n18Pp9cN6ifA8CzMYYtBhLRA6pI2+hwFT3pcHnzCzyeIXqvmu8uPsbuLvLYXd7FrMh1RLgFQCzhry0qlPMrKiq2R9lkLQT6f1HGGkTMb9pd3uujCaICp2cUWzLeAuPyKMR4oaaqNGJ55Zoa/w9EuCcKLU9UpHjf4fJeGc0QKnAXXkYhvId2fQciCJUHA4FHIx7lVQf8b4HxhP6c2HXw+g1L813e46IpTrvLew8ItUDH7PWFpaU7QPQ3/X2F87J6NL7bdl6s+6jDVTgpq1l+BMIFew8Dt5IR+rjAWTTe4NfgdIucztBsLW4h4jlr1294yzGz+JRkf8zluurgApe3hohfAtBfI8L2V4fDe0jSxk3rcdz/aXw8Iiu3dzDe7PeCAu/AEFteRuSzf5Dgm6BxjGkhzfwgqyrCj8QzD7u7yEPghKqkKhx6BJErsCpC8DMFLm9cCYGjfT7L2vUbyomST7rdS+iEllk/RZTz2BhHfs3CoStovHbp2a6GcXPqr2LQwzCg4xkz377y5ty/dZZ3G+3zWQ5Zv6GSAXuCQ2xn4FsCNhMjzAIKmPsD4pBWzyZubCEhzo3n6pbd5X0mxhDdegDPALRcgteRUFsEW/oy88kAJgOI5RjrZw5heE2N/we9KAIr6W8DNCwGjviUiJ5h5jckKT8CgAWyv2QeBdClAE6IZYx0hU/Vu+M+Y0bJQVKEPtQSqLs7PABeIuAfEvgEityghCiHBYYAdA4DVwCxl19l5jNqqsrf3nO9Cp8HaLLGV/5ZHfDvdd5qs9mUrLzeKxG96RADvAoknmWpfqQwbSWCNQwxgAinA2wDEEMpXrq9OlBm+D6d7vH0V1TxBvbuI9HuHfAKgf/v28H9l8XTVKfAWTiCgJkgmgroFnpqIeKLg5Xli/dWeoUPgem6vSYlMKlmnj9iFGPatJI8S0boIwBaBsXbTORtrUcSJQrnKpzERGVaR3AMLK4J+M/XV9zepWBoGXFl6wb3uyYKXanAVVhEoLnQv/+/sTrg19wPBa4iO4GDGj/RQMzXHzKkXyBaieB8t/tQwYofoAlROZf4/EjrGsUAsNwK0G0G8fkvX4fy7nVsOaf03ekL6rqs13/3jqFCxT2MtjChAZAkj1k1K29NJ3tVKnB67yTCnwFjq1XFie+F5Inz55fH1Q/C4/H0aFbF27EJ9qQQYqbzaqrKlkUVYo7CI1mht6Fzi8Agx3KbJOWM2srSz2MwlEaCsBQGViXsKAMA2NXe1/Kelkdr2GYA/nHI4H6XGFm3fU/eKO7HilyM2JqwbQZjKRP+RSy+VFrrIoQAQFVEJqvch4Q8GpJPgaAJunkrv2EHQFdWB8peiqw84zcAdkXQiMRyaPfzUEF4kpifaqjLWrZw4UO/JutN8XgOTJPKJDA7ohjiP5EqTmyLOuhFzi4iphd0HvmcGPdCild2H6ukpCS9fmfLBAaujzFnQNcAaDMCntWPIvCHDPILVfxj97nYbDYlu0fvM1nyZSByRzHokjMAGldmHGJR1a+RZIY7ANRLq3rV9jOUr9QeTQCWgunfJPgHybo1zOMTLCQo+8dbf7A0HdpknLSSOULSICY6AuBJAE40UiES+J3lN+WO6KwGj91ZdCGI50Oj1WyKsdxK4WmVlZUJRY5alYP1dYAPTdH8VBDnV1eWPxGzoJ9ZfApLuRSxHXskgh0AzqkO+GPuClYw03sBSTyrI6Q7rQEAAE5n4VCVaCWQouqDhGUUbpoUDAabUkmXadNK8izpoQAIl3XkJmNgnYX5oqqq8o+0vefEDIDdPN75MchNBrAR4DoAfWI8094hmcfUVpV/EMtK2l3eFQBGx2JkMbClrVJfHw1F+3Gb4XVSvAaArbg4J6tZvhVbNA/bGdhAhBww+kI76ryTgCADxYkYAHsNmjmm6dvQMss/Abo4GQark2m4tu505Su1B9Ba2nUSiCcxA2Tg9VxiFUooCyTZ0N3PtIs3jYcEHurMEY/qqrJ/TnO7h1rY8iCAjmpYspNBtzfWbb5/91r/8WJBZeX3DkfxGazwPwCcavAc61lgas288hfj+VJwXun7+S7vKAJeJMDoYlnrSYgLg/NKP4znSzXz/C863IUXM4unEzyi2csDatvnPTqCWaqqyj9yODx/YEW8gujHGfFu/wV5mVbX3Ln+lJeXXbBgbh0Am8NZ6GWiewCkvPomA1UZirwhWm5NMqgJlFU7XEUhBldF8VgJQD+AYj1O2iiZL4hR+be+riLdUMXHiF6C90DS7S6KrZLElYLVRxPxBxeWlu5wOIonspAroyTyAkAPAnpEUUESxG7JIo3AxYmsU8QzDRY0Jxnt16b8sSbcEyb2wlccynmus09yQWXl99UB/+UAjwciZ9MaZg8RnmZFHlMTKLsnGeX/q8INlm7YWbflTCa+D4Bq0DzfhiKHR/N8tFAb8H8STqPhAJ40UJI/wyFleLzK/1c6VZYvluDTASTZepvWQpEjkWQdkfjXueK/0orhxHjVKCMURFdXV/rz586d26F9TYJV5X5VkUeDqAZ69RqSsmvoXWYxtibgd6VS+f/6ToGyx0E0EuAvDXqBZaoih8eh/FsdmoqKb6TAJQDqk9hrmxg4N5YjtmiyicPKKADLk6RFI4inxxOJjNkASBsbWg3ws4kMuE2m46q6M0zlr8VHxH9Z5aNwV5lvdaB8eXXAP4IIY9oqmRkkGKmBgSpS5O+rK/1XGNmDHWi9GVBTWf4nUuVwBhYnYdB+A2b7oYP7jaquqPgmmTk9Xlb2S3XAP0UQxgF4L4mhPiDiCdVVfltNzaNbkplTbcD/yc66LcMBngUggbbAtEhhJSptyPCucG3z9/s3Bav85xAwBUCi6yPBeAKKPKG6suxR7KMKgo9VVPxUXVlmZ6Eew8A8JNHmdTeoAL/EApOCgbIRWrdWUiY/KstW52WlnZA4f7XuQQKmVFf6JyRa6Kl2nv9VEuKsxHiEl7BFntJazdGA6EjNo1sOHdxvAgjXJrjn3pSMU5NV/rvCL5FfeWnmkDCFPwEQ833vfeX553x3H0SoT1fQp8tX3JQzHl0YU4uKDkhr4YslMI4If4gx2WgXvmfgdQEsUlsaFtXW1nZYL4QZMwqPlYLsAC4GcGSUx7cT6BUATzbUbV5kRFQiEgqcnlGCxHQGLkT0hLYNDCwi8GPVgfLXUzGfadNK8qzpLVOZaAqAEdC+3tdMjFUQ/ECwsnzprj/aXYWfAPT7iPKExdj2ysfhLrxEsoi4FsT8dXWVPy4nxGazKVm5vSeDeHpblnS0kO/3AD0JIYLV8x7tdK3M8/Pzs0V61oVguhCtCXGxHnXUA7SKWC4NCfX51iJQ8cPuLJ7AkHvlKgnJjweD5V/FO56tuDgns1lOE4QpzBgJ/dtUOxi0RJBc0LB96z+M2oM2my0tM6+3hwh/iSK7GMAbAN3bPknS7i6cwizaXX3mhpqA/5F45+PxeHo0S+FmRj4BQ3U9fuZXmcWjNVVly3c3UvNd3uMItNdtCAtjYVVV2f8SMgAAoGW59WpizI3V8y+pG4Gvw3kdvlG6iAHQABkeuuKWnt+gG2G6x9PfIpUjJOMwwThAEtIJ6MHA9lbPD5sEeB1U8dX8+aXrO8Ocnc6rB4ShDhWQRzAhh4jSmXkHmL5jQWsOG9T3k1RlfmsKW4/ncFKV4xl8KEDZREzM2EGgtVDlp4kI3KQEZXFxTmaTejxIHEWEHJJSgGibZNrcmEFvLCwt3bHXO7i8X2oZV1LK02vnV7zbUfP3eDzWJlUMB9FRxDwA4AxmEQZxnSD+UWHLaq16CZ0VBR7PEFLpSIY4FEBvIrYQICCpCeBtIF6vkvrF4YMGreto/k3IuEnLOokhjgLQG8zZIGog5u8l+Iv1Q/p/GM+1x0ScX8fM4qEs1fEAHQTmnm2hqp/B+FyweL2j5ZXTefUASaGTGHQEwLkM0QzwNkH0WZpQV6eihbWuAcAMCi+3PBstIfAXTsc12/eN8u8qBgARHMtn5VTDhIluiLb7+dsARGxtqzAdHs0bMWHCRMdCRFFabOHwDOi0N93Xyr+L4CFT+ZvozsjN7XWclvIHobG+fvM6k0omTHQuRK1oR2djO79qOS+khN8iYHB75V+ybQS+UU3lr4Mnzwpl/78VJh1MdDLMmFE8WArVA9AVHFJGJJNQqBJpXhdlif+kKo/ChAkTKTQAAIAmNq7n5Rlnqqwu57bSlabyjwlP9w5l230+kiYpTHQSUIGzaBwJLpYsJwFkAQBhVW8HcFUiA7Y232n06DyyxCS7CROdDzFfzaFxTesUsvwBwOoGWBpN5R+NYPRI7yOzpy70UYtJDBOdAQ5X0eQCl/dzIl4KxsW7OwAMFNmdRRcmMm5WXuMcAAdpbgVFecakvgkTXdgAaDUCGn+wNIbOumbbGf80lb8mmojIvWJWdsnCy8kMe5roNJBM2wn4ndb2BuFxu6twXDxj2p3eywFcq/PI653xip0JEyYSrW/PoJOfuswD8D3ooNKfeugstwAI/I5KPKMTNvkxYaJVYet3RwOAFgbdGq0kc+s1QXlTtMZRRDxh91oBJkyY6OoGQBtOqLm4j9UqZhPBgQ7qCd5JDYAfGXTbgUdmBUyv30RnRms7UctHiFrgi9YCch6RWCmk8l1TutqY2SLyJKmHqxJnE8EFnbB/G16uDvjPM6luwkQ3NAB2YfiCSw5WFPFHgPMB9NyPDICvwPSgDGcFV/moyWQnE10iCuD0TgOhFqlt+bydFXmC0SWeTZgw0ckMgF0Y8bQtMyT5IjBfCGACKNU90PeJAbCOwa8I4gXL/5r7JojYZCMTXQ0FzqJZRDwnRcNLAk8OBsoXmZQ2YWI/MQD2gM8nTjrqv0eB+EQSOBKShhAhlw3u301qTs+s9bf3UtReho4KoA6gJhB/B4l1RPyRKuQHq/7a42uTbUx0IyNgtsFyIATmouqq8oBJYRMm9lcDwIQJE50edqf3chCXA9TTgOHWS0n5tfPLXjMpa8JE54cwSWDCxP6L6ir/06QqxxDoqSSGaQbo/nRFHm8qfxMmzAiACRMmuhjaWiYXAZgKIJYztc+Z8ZSQojwYLN1gUtCECdMAMGHCRBeGz+cTa3/4+RiWcgQYfQTJPCbRg1huB9E2lvgfW+Q7Zoa/CRNdG/8fLZl4dB/LOqUAAAAldEVYdGRhdGU6Y3JlYXRlADIwMjItMDQtMTlUMTI6MjQ6MTErMDA6MDBXcCGhAAAAJXRFWHRkYXRlOm1vZGlmeQAyMDIyLTA0LTE5VDEyOjI0OjExKzAwOjAwJi2ZHQAAAABJRU5ErkJggg==;" parent="1" vertex="1">
          <mxGeometry x="1109" y="172" width="123.14" height="19" as="geometry" />
        </mxCell>
        <mxCell id="7BdzqqytsKiichTIAf4s-7" value="" style="rounded=0;whiteSpace=wrap;html=1;strokeColor=none;fillColor=#E3F2FD;" parent="1" vertex="1">
          <mxGeometry x="1121" y="216" width="199" height="185" as="geometry" />
        </mxCell>
        <mxCell id="7BdzqqytsKiichTIAf4s-5" value="Cloud Run" style="sketch=0;html=1;verticalAlign=top;labelPosition=center;verticalLabelPosition=bottom;align=center;spacingTop=-6;fontSize=11;fontStyle=1;fontColor=#999999;shape=image;aspect=fixed;imageAspect=0;image=data:image/svg+xml,PHN2ZyB4bWxucz0iaHR0cDovL3d3dy53My5vcmcvMjAwMC9zdmciIHhtbG5zOnY9Imh0dHBzOi8vdmVjdGEuaW8vbmFubyIgd2lkdGg9IjM2NS40NjQ5OTY3NzA0MjQ5MyIgaGVpZ2h0PSIzNzkuMjIyOTk0NDYzNTc3OTUiIHZpZXdCb3g9IjAgMCA5Ni42OTU5OTkxNDU1MDc4MSAxMDAuMzM1OTk4NTM1MTU2MjUiPiYjeGE7PHN0eWxlIHR5cGU9InRleHQvY3NzIj4mI3hhOwkuc3Qwe2ZpbGw6IzQyODVmNDt9JiN4YTsJLnN0MXtmaWxsOiNhZWNiZmE7fSYjeGE7PC9zdHlsZT4mI3hhOwk8cGF0aCBjbGFzcz0ic3QwIiBkPSJNMjkuNzk0IDEwMC4zMzZMNDYuOTIgNTAuMTY4aDQ5Ljc3NnpNMCA5OS42NzFsMTIuOTc2LTQ5LjUwMkgyOS4yMkwxNi44OTcgOTIuMDU0eiIvPiYjeGE7CTxwYXRoIGNsYXNzPSJzdDEiIGQ9Ik0yOS43OTQgMEw0Ni45MiA1MC4xNjhoNDkuNzc2ek0wIC42NjZsMTIuOTc2IDQ5LjUwMkgyOS4yMkwxNi44OTcgOC4yODN6Ii8+JiN4YTs8L3N2Zz4=;" parent="1" vertex="1">
          <mxGeometry x="1150" y="231" width="24.29" height="30" as="geometry" />
        </mxCell>
        <mxCell id="7BdzqqytsKiichTIAf4s-17" style="edgeStyle=orthogonalEdgeStyle;rounded=0;orthogonalLoop=1;jettySize=auto;html=1;endArrow=blockThin;endFill=1;strokeColor=#4284F3;" parent="1" source="7BdzqqytsKiichTIAf4s-8" target="7BdzqqytsKiichTIAf4s-10" edge="1">
          <mxGeometry relative="1" as="geometry" />
        </mxCell>
        <mxCell id="7BdzqqytsKiichTIAf4s-8" value="" style="strokeColor=#dddddd;shadow=1;strokeWidth=1;rounded=1;absoluteArcSize=1;arcSize=2;" parent="1" vertex="1">
          <mxGeometry x="1360" y="301" width="120" height="60" as="geometry" />
        </mxCell>
        <mxCell id="7BdzqqytsKiichTIAf4s-9" value="Cloud&#xa;Storage" style="editableCssRules=.*;html=1;fontColor=#999999;shape=image;verticalLabelPosition=middle;verticalAlign=middle;labelPosition=right;align=left;spacingLeft=20;part=1;points=[];imageAspect=0;image=data:image/svg+xml,PHN2ZyB4bWxucz0iaHR0cDovL3d3dy53My5vcmcvMjAwMC9zdmciIHhtbG5zOnY9Imh0dHBzOi8vdmVjdGEuaW8vbmFubyIgd2lkdGg9IjIwIiBoZWlnaHQ9IjE2IiB2aWV3Qm94PSIwIDAgMjAgMTYiPiYjeGE7CTxzdHlsZSB0eXBlPSJ0ZXh0L2NzcyI+JiN4YTsJLnN0MHtmaWxsOiM0Mjg1ZjQ7fSYjeGE7CS5zdDF7ZmlsbDojNjY5ZGY2O30mI3hhOwkuc3Qye2ZpbGw6I2FlY2JmYTt9JiN4YTsJLnN0M3tmaWxsOiNmZmY7fSYjeGE7CTwvc3R5bGU+JiN4YTsJPHBhdGggY2xhc3M9InN0MiIgZD0iTTAgMGgyMHY3SDB6Ii8+JiN4YTsJPHBhdGggY2xhc3M9InN0MSIgZD0iTTE4IDBoMnY3aC0yeiIvPiYjeGE7CTxwYXRoIGNsYXNzPSJzdDAiIGQ9Ik0xOCA3bDItN2gtMnoiLz4mI3hhOwk8cGF0aCBjbGFzcz0ic3QxIiBkPSJNMCAwaDJ2N0gweiIvPiYjeGE7CTxnIGNsYXNzPSJzdDMiPiYjeGE7CQk8cGF0aCBkPSJNNCAzaDZ2MUg0eiIvPiYjeGE7CQk8cmVjdCB4PSIxMyIgeT0iMiIgd2lkdGg9IjMiIGhlaWdodD0iMyIgcng9IjEuNSIvPiYjeGE7CTwvZz4mI3hhOwk8cGF0aCBjbGFzcz0ic3QyIiBkPSJNMCA5aDIwdjdIMHoiLz4mI3hhOwk8cGF0aCBjbGFzcz0ic3QxIiBkPSJNMTggOWgydjdoLTJ6Ii8+JiN4YTsJPHBhdGggY2xhc3M9InN0MCIgZD0iTTE4IDE2bDItN2gtMnoiLz4mI3hhOwk8cGF0aCBjbGFzcz0ic3QxIiBkPSJNMCA5aDJ2N0gweiIvPiYjeGE7CTxnIGNsYXNzPSJzdDMiPiYjeGE7CQk8cGF0aCBkPSJNNCAxMmg2djFINHoiLz4mI3hhOwkJPHJlY3QgeD0iMTMiIHk9IjExIiB3aWR0aD0iMyIgaGVpZ2h0PSIzIiByeD0iMS41Ii8+JiN4YTsJPC9nPiYjeGE7PC9zdmc+;" parent="7BdzqqytsKiichTIAf4s-8" vertex="1">
          <mxGeometry width="30" height="24" relative="1" as="geometry">
            <mxPoint x="15" y="18" as="offset" />
          </mxGeometry>
        </mxCell>
        <mxCell id="7BdzqqytsKiichTIAf4s-16" style="edgeStyle=orthogonalEdgeStyle;rounded=0;orthogonalLoop=1;jettySize=auto;html=1;entryX=0;entryY=0.5;entryDx=0;entryDy=0;endArrow=blockThin;endFill=1;strokeColor=#4284F3;" parent="1" source="7BdzqqytsKiichTIAf4s-10" target="7BdzqqytsKiichTIAf4s-8" edge="1">
          <mxGeometry relative="1" as="geometry" />
        </mxCell>
        <mxCell id="7BdzqqytsKiichTIAf4s-10" value="" style="strokeColor=#dddddd;shadow=1;strokeWidth=1;rounded=1;absoluteArcSize=1;arcSize=2;" parent="1" vertex="1">
          <mxGeometry x="1150" y="301" width="130" height="60" as="geometry" />
        </mxCell>
        <mxCell id="7BdzqqytsKiichTIAf4s-11" value="Cloud&#xa;Functions" style="editableCssRules=.*;html=1;fontColor=#999999;shape=image;verticalLabelPosition=middle;verticalAlign=middle;labelPosition=right;align=left;spacingLeft=20;part=1;points=[];imageAspect=0;image=data:image/svg+xml,PHN2ZyB4bWxucz0iaHR0cDovL3d3dy53My5vcmcvMjAwMC9zdmciIHhtbG5zOnY9Imh0dHBzOi8vdmVjdGEuaW8vbmFubyIgd2lkdGg9IjIwIiBoZWlnaHQ9IjE5Ljk4OTk5OTc3MTExODE2NCIgdmlld0JveD0iMCAwIDIwIDE5Ljk4OTk5OTc3MTExODE2NCI+JiN4YTsJPHN0eWxlIHR5cGU9InRleHQvY3NzIj4mI3hhOwkuc3Qwe2ZpbGw6IzQyODVmNDt9JiN4YTsJLnN0MXtmaWxsOiM2NjlkZjY7fSYjeGE7CS5zdDJ7ZmlsbDojYWVjYmZhO30mI3hhOwk8L3N0eWxlPiYjeGE7CTxwYXRoIGNsYXNzPSJzdDEiIGQ9Ik0zIDMuOTlMMCA2LjQydjcuMTNsMyAyLjQ0eiIvPiYjeGE7CTxwYXRoIGNsYXNzPSJzdDAiIGQ9Ik0zIDMuOTlsLTMgNCAzLTJ6bS0zIDhsMyA0di0yeiIvPiYjeGE7CTxwYXRoIGNsYXNzPSJzdDIiIGQ9Ik0wIDE1Ljk5bDQgNCAyLTItNi02em0uMDEtOEw1Ljk5IDJsLTItMkwwIDMuOTl6Ii8+JiN4YTsJPHBhdGggY2xhc3M9InN0MSIgZD0iTTE3IDE2bDMtMi40MlY2LjQ0TDE3IDR6Ii8+JiN4YTsJPHBhdGggY2xhc3M9InN0MCIgZD0iTTE3IDE2bDMtNC0zIDJ6bTMtOGwtMy00djJ6Ii8+JiN4YTsJPGcgY2xhc3M9InN0MiI+JiN4YTsJCTxwYXRoIGQ9Ik0yMCA0bC00LTQtMiAyIDYgNnptLS4wMSA4bC01Ljk4IDUuOTkgMiAyTDIwIDE2eiIvPiYjeGE7CQk8Y2lyY2xlIGN4PSI2IiBjeT0iOS45OSIgcj0iMSIvPiYjeGE7CQk8Y2lyY2xlIGN4PSIxMCIgY3k9IjkuOTkiIHI9IjEiLz4mI3hhOwkJPGNpcmNsZSBjeD0iMTMuOTkiIGN5PSI5Ljk5IiByPSIxIi8+JiN4YTsJPC9nPiYjeGE7PC9zdmc+;" parent="7BdzqqytsKiichTIAf4s-10" vertex="1">
          <mxGeometry width="30" height="24" relative="1" as="geometry">
            <mxPoint x="15" y="18" as="offset" />
          </mxGeometry>
        </mxCell>
        <mxCell id="7BdzqqytsKiichTIAf4s-13" value="&lt;font style=&quot;font-size: 7px;&quot; face=&quot;Courier New&quot;&gt;api.rover-calendar.site&lt;/font&gt;" style="text;html=1;align=center;verticalAlign=middle;whiteSpace=wrap;rounded=0;" parent="1" vertex="1">
          <mxGeometry x="1155" y="365.75" width="120" height="19.5" as="geometry" />
        </mxCell>
        <mxCell id="7BdzqqytsKiichTIAf4s-14" value="&lt;font style=&quot;font-size: 7px;&quot; face=&quot;Courier New&quot;&gt;bucket.rover-calendar.site&lt;/font&gt;" style="text;html=1;align=center;verticalAlign=middle;whiteSpace=wrap;rounded=0;" parent="1" vertex="1">
          <mxGeometry x="1360" y="365.75" width="120" height="19.5" as="geometry" />
        </mxCell>
        <mxCell id="4_9zNN8vkJeB74bzpde8-11" value="" style="group" vertex="1" connectable="0" parent="1">
          <mxGeometry x="1280" y="440" width="160" height="60" as="geometry" />
        </mxCell>
        <mxCell id="4_9zNN8vkJeB74bzpde8-6" value="" style="strokeColor=#dddddd;shadow=1;strokeWidth=1;rounded=1;absoluteArcSize=1;arcSize=2;" vertex="1" parent="4_9zNN8vkJeB74bzpde8-11">
          <mxGeometry width="160" height="60" as="geometry" />
        </mxCell>
        <mxCell id="7BdzqqytsKiichTIAf4s-20" value="" style="shape=image;verticalLabelPosition=bottom;labelBackgroundColor=default;verticalAlign=top;aspect=fixed;imageAspect=0;image=data:image/png,iVBORw0KGgoAAAANSUhEUgAAAGAAAABgCAMAAADVRocKAAABGlBMVEUAAABAgP9DhvVBhvRChfRChfQZZ9IZZ9EZaNMYZtNAivRDhfQaZ9IVatVBhvQZaNJDhfMZaNEaZ9FChfQZZ9L////7vATx9v6myfaCs/Jin+9XmO57rvK41Pj7/f/i7fzG3PmYwPUofOkac+gwgOq00fifxPUhd+l0qvGRu/Tt9P2UvvQleulFjew3heu81vjD2vkzguvp8v34+/7f6/xMku1QlO2GtfMedegsfupTlu5JkO2tzfd/sPKJt/O/2PmNufTX5/s6h+uqy/abwvXJ3vpwqPH0+P4+ieyxz/dtpvBbm+5ene/U5ftlofDN4PoYgDg0qFPqQzXqRDUYgDgXgDgggEAYgDgagDkXgDcAgEAZgTgYgDgYgDg1l7sXAAAAXnRSTlMABGO73///z5tLGM+fDL+7a1Oz79///////////////////////////////////////////////////////////////////////////////////4/bgxDjKM8Ee8PzvzhR0gAAAcJJREFUeAHt1oWu20AQheEppMzthPmEmXOZqQxbhvd/ja59mS1rRhDtbxTtJ1qgWcvlct24eet2JER3TnT33n26rAcPI0eFBmyPHtPFPYlIALandGHPIjKA7Tld1C054AVd1Es54BVdVEQKsMkBDnCAAxzAAYueywEOmEEgFk8kU+lMlk+Wy+djMkC2UIRfqczHVapAXgao4ag6H9RIAlJAE7ZWuwOvLvv1+hADBlUAiSHzaAxgwrbsdA6CwHQeC+wVmwdgpcYibHNCgG24lGO/JADvdwHA8ooccNQEQMx+c635VV6TB9arwAZ7dQesAGQ6AJb4IGFgdaHdgm2ZlYBN+G2xMtAvawHbOzuTImxbSoDXsDkHzI3UAFsBwI4msDsH7MkDw9dNPqgEzIkDayVUY+w3ALAhDrwB8DbLXu8AJMWB93MAxquNRncMW08c4BWc6APLA5zGUaldDYC7e/DrV9TWoo+F5cRWzx0dHTD7wKdzfQ7Yl7MZZcCQLmBIFzCkCxjSBQzpAoZ0AUO6gCFdwJAuYEgXMKQLGLqur+GBQOPTt/BAoPHp+4/wgKEg/fwVFjAUrN9//v4LAxhyuVyz3X/dV4hAn5ff5AAAAABJRU5ErkJggg==;" parent="4_9zNN8vkJeB74bzpde8-11" vertex="1">
          <mxGeometry x="10" y="15" width="30" height="30" as="geometry" />
        </mxCell>
        <mxCell id="4_9zNN8vkJeB74bzpde8-8" value="iCalendar feed&lt;div&gt;&lt;font color=&quot;#999999&quot;&gt;Google Calendar&lt;/font&gt;&lt;/div&gt;" style="text;html=1;align=left;verticalAlign=middle;whiteSpace=wrap;rounded=0;" vertex="1" parent="4_9zNN8vkJeB74bzpde8-11">
          <mxGeometry x="52" y="15" width="96" height="30" as="geometry" />
        </mxCell>
        <mxCell id="7BdzqqytsKiichTIAf4s-18" value="" style="fillColor=#F6F6F6;strokeColor=none;shadow=0;gradientColor=none;fontSize=14;align=left;spacing=10;fontColor=#717171;9E9E9E;verticalAlign=top;spacingTop=-4;fontStyle=0;spacingLeft=40;html=1;" parent="1" vertex="1">
          <mxGeometry x="590" y="160" width="460" height="360" as="geometry" />
        </mxCell>
        <mxCell id="4_9zNN8vkJeB74bzpde8-2" value="" style="shape=image;verticalLabelPosition=bottom;labelBackgroundColor=default;verticalAlign=top;aspect=fixed;imageAspect=0;image=data:image/png,iVBORw0KGgoAAAANSUhEUgAAA+gAAAGaCAYAAACc1mkHAAAAGXRFWHRTb2Z0d2FyZQBBZG9iZSBJbWFnZVJlYWR5ccllPAAAA2hpVFh0WE1MOmNvbS5hZG9iZS54bXAAAAAAADw/eHBhY2tldCBiZWdpbj0i77u/IiBpZD0iVzVNME1wQ2VoaUh6cmVTek5UY3prYzlkIj8+IDx4OnhtcG1ldGEgeG1sbnM6eD0iYWRvYmU6bnM6bWV0YS8iIHg6eG1wdGs9IkFkb2JlIFhNUCBDb3JlIDUuMy1jMDExIDY2LjE0NTY2MSwgMjAxMi8wMi8wNi0xNDo1NjoyNyAgICAgICAgIj4gPHJkZjpSREYgeG1sbnM6cmRmPSJodHRwOi8vd3d3LnczLm9yZy8xOTk5LzAyLzIyLXJkZi1zeW50YXgtbnMjIj4gPHJkZjpEZXNjcmlwdGlvbiByZGY6YWJvdXQ9IiIgeG1sbnM6eG1wTU09Imh0dHA6Ly9ucy5hZG9iZS5jb20veGFwLzEuMC9tbS8iIHhtbG5zOnN0UmVmPSJodHRwOi8vbnMuYWRvYmUuY29tL3hhcC8xLjAvc1R5cGUvUmVzb3VyY2VSZWYjIiB4bWxuczp4bXA9Imh0dHA6Ly9ucy5hZG9iZS5jb20veGFwLzEuMC8iIHhtcE1NOk9yaWdpbmFsRG9jdW1lbnRJRD0ieG1wLmRpZDpGQTdGMTE3NDA3MjA2ODExQjM0QkRCMTI3QTg3OTlBMCIgeG1wTU06RG9jdW1lbnRJRD0ieG1wLmRpZDpDQjg3OEJGRTM4M0YxMUUzQTZEMUI0MDIyQjJEMDFGNSIgeG1wTU06SW5zdGFuY2VJRD0ieG1wLmlpZDpDQjg3OEJGRDM4M0YxMUUzQTZEMUI0MDIyQjJEMDFGNSIgeG1wOkNyZWF0b3JUb29sPSJBZG9iZSBQaG90b3Nob3AgQ1M2IChNYWNpbnRvc2gpIj4gPHhtcE1NOkRlcml2ZWRGcm9tIHN0UmVmOmluc3RhbmNlSUQ9InhtcC5paWQ6RDY1NjNCMTEzNDIwNjgxMTgwODNGMTQ4QTZCNTMyNkQiIHN0UmVmOmRvY3VtZW50SUQ9InhtcC5kaWQ6RkE3RjExNzQwNzIwNjgxMUIzNEJEQjEyN0E4Nzk5QTAiLz4gPC9yZGY6RGVzY3JpcHRpb24+IDwvcmRmOlJERj4gPC94OnhtcG1ldGE+IDw/eHBhY2tldCBlbmQ9InIiPz4OgPucAAAu90lEQVR42uzdCZgdVZk38IohgUCAlqZlh7DvO8qmgiCgILK4MKIo4oLjOA6ozKjo5+7ngqLgjDrgKCiyysinA4gMBMK+yg6yhR3sdGjCkkAI+d7jLZyekKW7c2931anf73nepxoe6K56z7l17//WNmbu3LkFAAAAMLrGCOgAAAAgoAMAAAACOgAAAAjoAAAAgIAOAAAAAjoAAAAgoAMAAICADgAAAAjoAAAAIKADAAAAAjoAAAAI6AAAAICADgAAAAI6AAAAIKADAACAgA4AAAAI6AAAACCgAwAAAAI6AAAACOgAAACAgA4AAAACOgAAACCgAwAAgIAOAAAACOgAAAAgoAMAAAACOgAAAAjoAAAAgIAOAAAAAjoAAAAgoAMAAICADgAAAAjoAAAAIKADAAAAAjoAAAAI6AAAAICADgAAAAI6AAAAIKADAACAgA4AAAAI6AAAACCgAwAAAAI6AAAACOgAAACAgA4AAAACOgAAACCgAwAAgIAOAAAACOgAAAAgoAMAAAACOgAAAAjoAAAAgIAOAAAAAjoAAAAgoAMAAICADgAAAAjoAAAAIKADAAAAAjoAAAAI6AAAAICADgAAAAI6AAAAIKADAACAgK4LAAAAIKADAAAAAjoAAAAI6AAAAICADgAAAAI6AAAAIKADAACAgA4AAAAI6AAAACCgAwAAAAI6AAAACOgAAACAgA4AAAACOgAAACCgAwAAgIAOAAAACOgAAAAgoAMAAAACOgAAAAjoAAAAgIAOAAAAAjoAAAAgoA+3IWPGaMJi6OnqHheLlaNWL2vV9K+juqNWGFBLRS0TtVzUklFLL+JXz456bsA/PxM1q1w+Xf78bPnzjKjpUX1R08qfX/7nh3v7+2YaKXJg/w0AIKAL6KQgvlYstojaIGr9staLWiO1seKr3x/1WNRDA5b3Rt1XLh+NEO+FgYAOAICALqBXLoyvHYsdo7aP2rKsrow3eVYZ1O+Iui3qlnJ5TwT3F80IBHQAAAR0AX2kAvlGsdgr6vVRO0etYmb8LbjfFHV91NXl8o4I7S9pDQI6AAACuoDejkA+MRZvKUN5qjXMhEF7MuqyqEujLom6IQL7HG1BQAcAQEAX0AcbypePxd5R7yyXSxn9tkg3o/tj1PlR50ZY/4uWIKADACCgC+jzhvJXxWKPqMOi9o8ab8Q7Kp36fkXUmVG/ibD+iJYgoAMAIKA3OKBHME+nrH8k6tDC6eujlqWiLoz6ZQrsEdZnaQkCOgAAAnpDAnoE8+1icWTUQVFjjW5lpNPgfx51XAT1B7UDKrG/fHMs9otatgar2xt1Wuw/rjdyfx27SUXrC+hJNVjd54vW/UpOd78SMnwtjovFe6N2KupxlubDUSfHa/HPRm90yaMCevYBPXaQ6YZvn43axYhWWvpwdkrU1+LN4R7tgFHbZ349FkfXbLXTJTSHxb7jpIaPXQoCf4iaWLNV/33Ufp4CQmbhPN1/Z7earXo6o/Ht8Vr8o1EU0AV0Ab0TO8ddU9grWo9Ho15B/fioL8UbxAztgBHdb24Si9tquvrPRK0S+41nGjx+N8di85qu/sExdqd6FZLJa/HwWPykpqt/f9S68XoUigT0SniVFmSxU9w26oL48WLhvJbS5QdHRN0a47iOdsCIqvM+Mx013rLB733L1jicJ2/w8iMjb6zxuq8dtaohRECnHR9OVohK31ZeW7Tuzk69pRv4HacNMKKWrvn6j2vw2I0196AylrEvhfZYQgtqGczTFysfjfpm1Kt1JCuvz2ieplOHt4laP2qDonXzrXTEb8mop4vW6bkPRd0VdXvU1b39fTNNAQAABHTqEnpS2El3AN9ZN7L0QI3nZvr2Od2g8O+ido9aaYi/4vn4HVfF8pyoUyOsP246AAAgoFPF8JPuXvfxqO8UTovL2ZQazs0VY/HpqA9HrbgYvyodWd+lrO/G7z0vlt+IoH6VaQEAQBO4Br0eAWiVWKTHP/xIOM/eZTWalxOj0hdGU4vWY/1WbOOvT9eWvi3qyvgbk6O2MjUAABDQGe0QlO6KeWPROmWY/F1ak3l5YCzuiDqq6PyNYdIR9evib/4wahlTBAAAAZ2RDkBjoj4VP15UDP1aXurp/t7+vkcrPi+XKp8c8Juo1UfwT6cj6p+Muib+/qamCgAAAjojFYLSaeynRX2vqP9jZBi8KRWflz2xuDzq8FFcjU3KkH6A6QIAgIBOp0NQOlp+cdS7dUNAr9C8XCcWVxatx6aNtvQF1lmxTh82ZQAAENDpVAhaLxZXRL1ONxrpsorOy9WK1pdG61Zs33VCrNuhpg0AAAI67Q5Bmxet04fX0Y1G6u3t77uzgvNy+VicH7VmRft2YqzjPqYPAAACOu0KQdsXrSOUr9GNxppSwXk5Jha/iNqswn1L92j4dazruqYQAAACOosbgraLxQVR3bohoFdMumv6/jXo3XJRZ8RraZxpBACAgM5ww3k6rf28MmDQbJdVbG5OisX/rVH/0s3rjjKNAAAQ0BlOAFo7Fn+IWlE3Gu/ZqBsrtk7HRU2oWR+/EK+rtUwnAAAEdIYSzlcsw/kqukG4vLe/b06F5ucbY7FvDfuYvlD4iukEAICAzmDDz/hY/DZqfd2gVLXrzz9f416+rzw9HwAABHQW6cSonbWBASpz/XmE2y1isVeNe5nu6n6kKQUAgIDOosLPEbE4RCcYYHbUNRVan/dn0NOD3dEdAAABnYWF83Rd73d1gnlc39vf91xF5mjaH7w3g56mezzsZWoBACCgM7/gkwLDqVFL6AbzuLRC65IeVbZyJn3d29QCAEBAZ95wPiYWJ0etqhvMR5VuELdrRn3dzdQCAEBAZ15/H/VWbWA+5kZdUaH1yenmhRv2dHWvYIoBAFAnTrnuoAgIG8biGJ1gAW7r7e+bXqH12Tiz/m5SVOgO+QP2C+l+FOkU/DpcTvBS1KNR58ZcvcJLFgBAQK9rOE9nJ/wsaoJusABTKjRf075g3cz6u0HVAnr0edtYXFzU7+ylz8W6bxUh/RYvWwCAznGKe+d8vPC8cxauSjeI6y7y+8JulQqu04413e++yv4MAEBAr6Weru50Q7hv6gSLUKWjuxMz7G8Vt6nOX4Is5SULACCg19H3o5bVBhZiam9/38MVWp8c56vLSwAAENCbrKere9dYHKQTLMKUiq3PrAx7/KJpBgCAgN7ccJ76eaxOMAhVu7v4Mxn2+BnTDAAAAb25Do3aShsYhEsrtj59Gfa41zQDAEBAb6Ceru7xsfiyTjAI06LuqlSS7e+bGYtHMuvzvaYaAAB14jno7XNY1Bra0BHpWuJny59nD/h5XhPLOZ1ueFblL58ui0A8t4Lr9eeo1TKaN3d56QAAIKA3THn0/PM6MWQvRN1dBsOpUQ9FpTubTy8rnXY9PcLsM8Mcl65YLBO1/IBaMWrlcrl61JpRa5XBdOwIbfeUio7HdVFvymRuTSvnFAAACOgN89HC0fNFmV0GwMujboi6MYXzCN9zOvUH43f3xyLVIk/djjC/RBnSU1hfN2qLqM2jNotaqSEB/aKoozKZb5dU9CwFAAAQ0Dslgt2SsThaJ+brzqjzos5Nwby8zrmSYt3SafQPlHXpPGPcE4sto3aI2jlqx6J1NH440un5N1a0DenO8umshvEZzL0LvfwAABDQm+fgonXKNC33R50SdXqE3ltz2KDYjt4y8F1YBvZ0ffvGUbtF7Vkulx7kr7u1/DKgitv5TGzbOfHju2o+ZKm/Z3kpAgAgoDfPEVpQpFOJfxv1kxRiI+i9lPPGltt3W1nHl/cgeH3UvlEHFK3T5BfkPyq+eb/MIKCfG2M0zcsSAAABvUEimKUbam3R4BakI5UnR30nAlFj75gd255OC7+orCNjXmwdy/3LsL75gP/0h1EnVHxz0iUJ6fFk69Z4SH5k7wQAgIDePE0+en521GcjnN5tGrwisKdrzFN9KcL62rHcNOquOvQqnX4f6/zdonU2RB1dHdvwR7MQAAABvUEixKQjjPs2cNPTkfKPRQiabBYMKvCma/Lvr9lq/zzqn6PWqWHLv2zWAQBQV6/SgmE7PGpMg7Y3XXf9jagthfO8lafs/2MNV/3sWPfzjSAAAAJ6g/R0dY+NxSEN2uT0HPE3Rfj5QtTzZkAjQnp6NN4ZNVrl9Lx7N2wEAEBAb6A9iuY8Wi09E3yrCGyXGvbG+VjU1Jqs60dijj5kyAAAENCb59CGbGd6JNgeHlnVTDHuT8bioKiZFV/VY2NdPfccAAABvWl6urq7itYjtHL37Qg9HyqvR6a5If2aWLy7aN2DoIpSMD/KSAEAIKA3UzqiuGTm2/jVCGafNdSUIf33sXh/BUN6uk7+vbF+c4wSAAACejO9K/PtS6cLf8kwM09IPyUW+xXVOd395Kj9neEBAICA3lA9Xd0rxGKXjDfx11GfNtIsIKSnI+lviLpvFFcjHS3/XNShsT6zjQoAAAJ6c+0TtUSm23ZV1Acj9Mw1zCwkpF8fi22iThuFPz81atdYh2+Zp6NiOS0AABDQq+SATLfriah3Ol2YQYb0p6LeEz++JereEfiTaV5+M2qT+LuXGQHvFwAAPnA1XE9X94QykOQmHYl8TwSfR4wyQwzqf0ihOeqwDgX1WVHHRa0ff+voqJm6DgCAgE6yV9SEDLfruAg+FxtehhnSX4j6efy4YdRbo04tg/XiuDbqk1FrxO/+p6gHdRoAgCZYQgsGLcej53dFeZwa7Qjq6eZt56fq6epeKpY7Ru0etWXUxlGTosbO53/ti7oj6vaoKVEXxu96XEcBABDQWZjdM9ymwyMMzTK0tDmspzl1cVl/E8G9KxbLlkH96VTuewAAAAL6kESwWDMW62W2WadHOLrE6DKCwb0/Fv06AQAA8+ca9MHZLbPteS7qM4YVAABAQK+bN2e2Pcf39vc9bFgBAAAE9LrJ6Qj6s1HHGFIAAAABvVZ6urrT46NWyWiTftTb3zfNyAIAAAjodbN9RtuS7ph9rCEFAACoHndxb1ZAP623v+8JQwoAAKOrp6t7xbSISsuVorqjJhStg6jLDfhP50Y9Vf6cLldNn+d7o/qi/lI+KQcBvTFel9G2/NBwAgDAiIXwJWOxSdQWZa0btU7U2lET2/Q3nonFfVH3Rt0cdWvU9RHc7zcCAnqOL6gtM9mca+NFeoNRBQCAjuWHSbHYKer1UTtGbR41tsN/duKALwAOGLAu6Sj75VH/nSqywB1GSECvu62jxmWyLScZTgAAaGsgXzoWe0btUS7Xq9LqRe1fVlrXe2JxTtTpEdavNXoCeh29NpPtmB11muFkGG86yxad/9Z3cb0QbzLPGa2OWyrmQ9co/e0XY4yfMQQAVOTz0fJl6D2wDOVL1WTV05cHn04V23BnLH8RdWK8x/YZVQG9LrbNZDvO9cJjiG886U3nB1Fr1WR9b4rFP8Q8v9zodcy/lDVaY3xVLD4WY3yToYAFvk7GxOLQMjgsX4NVnhU1OeqH8dqeWcN+bxWLTxata4nHVHx1003Ezoz6dfR6rlfLsMY7HbDYO+r9UW+rUShfkI2ivhX15di2U9LPMTfuMdICetVtkcl2/KehZAhvQPvUcM6ke0VcEOu+ZdXeXGKd0nVhry/rQDNs2HaI+mP0c2NfOMIC/Tjq8Jqt815R+8Zre9d4bc+u0XvlbrE4v6jXpZD7RW1TtI6gMvixXq18XX04apUMNzF90fChqMNiW8+I5RfjtXi3kR89noO+4Bdj6s1GGWzKS1G/N6IMwXdrut7pGrCPVmDfsULUflHHRKXru9JRi/Oijo7a2PRavPZGvUcbYL77ns1rGM5ftlMNX9vHFPW8T9GnYq6s7xUzqNfU1lG/jh+nptCaaTgfKJ0FclDUbbHd3x/Fy9oazxH0BZtUtJ5DWHeXOdrEEN6MJtY8RK4zCj1bORZvLGuXqE2L6p/qWPd9M/BKW2ew/ifr94hIl3A6Qrrg9/XtY/G5onXGQROlL56OjDo4evGJyBFnmRUCelVslsl2/M5Q0qB9QsfXv3x8yhvKMJ6WG5g25ihUQN3PivTF5shZSgvm+/6ezpxNZxG+TTf+aqWoM6MvZ8fyIxHUp2uJDzqjbZNMtmOyoYTFfsMeGMjX1BUAyEq6Wdo7i+o/uWY0pPvnvDY+Dx0UIf1K7RDQBfTF82TUDYYShhTIVy7fpF8O5CvpCgBk7SAtWKg1oqaUp7z/RDsEdAF9+C6NF9FLhhIGHc7Ts0x/EzVRNwAA/iadXfDj+Ky0YSw/ExljjpZ0hru4L9ikHAK6YYRBh/N0Td6vhHMAgAU6Iurk8rnwCOgj9kE9fUDvzmBTrjaaMGjp2bA92gAAsFAHR50dmWm8VgjoI2VSBtuQTm3/k6GEQfMmAwAwOG+P+pUj6QK6gD54t/X29z1rKAEAgA54V9QPtKG93CQu34B+vWEEyN6JPV3dzzR02x21ARh9n4j3oQd6+/uO0QoBXUBfuFsMI0D21tUCAEbZtyOk3xgh/b+1YvE5xT3fgH6nYQQAAEYgU54RIX1NrRDQO2WNDLbhdsMIAACMgBWK1uPX5EsBvSNWqvn6z4x6wDACAAAjZJeoT2mDgN4Jr6n5+t/d29831zACAAAj6Bs9Xd0baYOA3jYxoZaJxYSab4aj5wAAwEgbH/Vv2iCgt9PKGWzDg4YRAAAYBW/q6er+O20Q0NulJ4NtcAQdAAAYLd+LkD5BG4bOc9AF9NFrdOtF+4moXaOWMfUW6vmom6OO7e3ve1Q7AACosFWj/iHqGK0Q0BdXDqe4P1KDcJ6uT7koagdTbtD2jDokeve6COkuYwAAoMo+G59bT4jPrU9pxeA5xf2VujPYhmk1WMdDhfNhSY8A/KI2AABQg1z1SW0Q0BfXxAy2obcG67idqTZs22oBAAA18I+uRRfQmx7QX+zt75teg/Ucb6p53QIAkLV0f69DtMEH/cXRVfP1n2YIAQCAivhUT1f3GG0Q0Ier7kfQ+wwhAABQERsWrac2IaA3MqA/awgBAIAKOUwLBHQBHQAAYPS9o6eru0sbBPQmBvQZhhAAAKiQdCf3g7RBQB+Oun+z87QhBAAAKuYALRDQm8gp7gAAQNXs3tPVvYI2COhDtXzN13+WIQQAACpmiaj9tGHRTeJ/84w+AABgsJ6Muj3qnqiHoh6N6i9rZvnfpAOj3WWtGrV51GZR6zWsV2+P+rkpI6ADAAAsrrlRt0RdHnVZ1JW9/X33D/eX9XR1rxGLvaP2j9qryP9g4W6xzUtEz140lQT0pnCTOBie57WgFvq0AIBR+Izw31HnRP0uwuVj7frF8bvSEfefporgum4s/znqQ1FjM+3lclHbF60vOJgP16C/Ut2vQZ9jCGFYboh6Qhsq7zwtAGCEXBn1kajXRJDeJ+rf2xnO5xPW7406PH7cMurqjPv6ZlNLQAdY1Jti+nb8fYWzUKoqnVJ4dIzTdVoBQAelJyL9W9TG8Z6zU9SJUTNG+DPJbbHYOerbAnrzOMUd4H/eEC/s6epeP358W9RqRfu/xNyhaF1fVkeXRE0epb+dbrJzYYzPrWYpAB2SLqH6XtRP4v3myQp8JklnxX42PpekG8/9tMjrwOq2rkMX0I0pMNg3xHSa+8868bvjzeiIGgf0ydGbL5shAGQmHTFPR6qPjfe5Zyr4ueTE+PyQbhz37xn1fELUVlHOipsPp7jnZ6IWAADAoLwjQvDXqhjOB4T0E2Lxrcz6vr2pJ6ADAAAMVJenuHwhakpGfd/R1BPQAQAAaqe8Jv3QqFmZbNKWRlVAH6znar7+EwwhAABkF9Lvi8U3M9mcjXq6uscZVQF9MGbXfP2XNoQAAJClY6Mez2A70o2tNzScAnoTLKsFAACQn/Jmdt/PZHM2M6IC+mDU/Xl87uIOAAD5Snd1fyaD7djEUArog1H3ye4UdwAAyFRvf19/LE7PYFPWM5oCehM4xR0AAPJ2UgbbMMkwCuiD8WzN17/bEAIAQNYuj3qs5tuwjmEU0AdjhoAOAABUVW9/30uxOKfmm7FST1e3R0QL6Iv0VM3Xf3xMdDeKAwCAvF2QwTZMMowCeu4BPVnJMAIAQNYujppb821Y2TAK6IsyI4NtcJo7AABkrLyb++013wwHFuexhBa8Qg5H0FczjACN8O2oOxu67emxov9qCgANd1XUpjVe/9cYQgF9UXI4gr66YQRohPN7+/smN3HDe7q6uwR0gOJPNV9/p7jPwynur5TDEfQ1DSMAAGTvlpqvf48hFNAXZXoG27CGYQQAgOzV/Rp0984S0BfpLwI6AABQdb39fb2xeLrGm+Dx0AL6Ij2SwTZsWIN1nGaqAQDAYru/xuu+rOET0Bfl8Qy2obunq3uFiq/jGaYaAAA0Or84gi6gL1xvf186svtCBpuyUcX7fE0s/j5qllkHAADD/2hd43V3BH0eHrM2f+lbqLrfCX2DqCsqHtJ/0tPVfWb8uH3U+BH+8/9euGskAAD191iN173L8Anog53kdQ/om9ZhJSOk98Xi3JH+uz1d3T8wzQEAyIB7O2XEKe7z92gG27CNYQQAgOw9UeN1H2f4BPTByOFO7lsbRgAAyF5/jdd9acMnoA/GPRlsw6t7urrXNpQAAAACuoA++rYzlAAAkLV+LRDQc/fnTLZjZ0MJQKaW1wIABPRmmBo1J4PteKOhBCBTY7QA4K+e0wIBPWu9/X2zY/FABpuyZU9XtyMMAACQrxe0QEBvgrszGd/XG0oAAAABvc5yuQ79rYYSAABAQK+z2zPZjr0NJQAAgIBeZzdksh1r93R1b2w4AQBApquY2YZPQB+sW4o87uSe7Gc4AQAgS8vVeN3dgV5AH5ze/r6Zsbgzk805yIgCAAAVM0sLBPShyOU09616uro3MpwAAICALqDX1Z8y2pb3GE4AAMjOMjVe95mGT0Afiusz2pbDerq6xxpSAADIypI1XvfnDZ+APhTpFPeXMtmW1QuPXAMAgNzU+SZxzxo+AX3Qevv7no7FjRlt0uFGFQAAsjKhxus+w/AJ6EM1OaNt2dsz0QEAICt1PsVdQBfQGx3Qx0T9iyEFAIBsdNV43Z8yfAL6UF0RNTej7Tm4p6t7TcMKAABZ6K7xujuCLqAPTW9/3/RY3JzRJo2L+pKRBQAAAX2UOYIuoA/L5My259Ceru5NDSsAAAjoo2ia4RPQh+PCDMf9O4YVAAAEdAFdQK+bi6Kez2yb0h3dDzS0AABQayvVeN2fMHwC+pD19vc9F4uLM9y04yKkL2eEAQCgfuKz/BKxWKXGm+AIuoA+bL/PcJtWizrG0AIAQC2tHjVWQBfQm+g/M92ujzjVHQAAamlSjdd9dlSvIRTQh6W3v+/RWFyd6eadGCF9klEGAAABfYQ8EhlrriEU0BfHmZlu16ujzomQPtEQAwCjYJwWwLCsX+N1f9jwCeiL6/SoXL/l2SLqlxHSxxpmAGCELaMFMCxbCegCemP19velSTQl403cP+qnEdLHGG0AAKi8rWu87g8aPgG9HX6V+fZ9KOoHQjoAMIKW1gIYmvi8np5/XudHrN1vFAX0dkinuT+X+TZ+smjdOM7p7gDASOjSAhiy19Z8/e82hAL6Yuvt75sRi7MasKmHRf3GjeMAgBHwai2AIduz5ut/jyEU0NvlhIZs535RV0VIX9eQQ+O5gRPQSWtoATQqoL8Q9ZAhFNDbore/77JY3NyQzd006sYI6e838tBoK2kB0Ml9THzWWEobYHDi9bJmLDas8SbcHZnqJSMpoLfTvzZoW5eNOil2BOmU99UMPTTS2loAdNimWgCD9o6ar//thlBAb7d0N/e+hm3zgVF3REj/TNQEUwAaZRs3jgQ6bCstgEGr+9mttxhCAb2tevv70p3cf9zATU9H078bdVd8WP9o1JJmAzRCegTSjtoAlTUzg23Y1TDCosXn752K+n+hJaAL6B1xfNSshm57upnLT6Omxk7iC1GrmA6wSE/VfP3fZQihsp7PYBv2jM8TPpvCov1zBttwk2EU0Nuut7/vL2VIbbKVo74W9VC8qf4+6pCo5c0OmK+5NV//Q+P1vZxhhEqakcE2vKao/2OjoKPifTidzbZfzTcjHbCYajTnbwktWGzfjvp41LiG9yFdm7pPWbNj53F5LP8YNTnqht7+vlE70yDWJY3NBlGbR21XtE6hW9PUZRRMr/n6p3D++ajPGkoQ0DskfaY6v+IBaWnTjVGaeym7/SiDTbk6ssFcIyqgd0RMrsfixZKOon9CN/5mXBmCdy3/OQX2O2OZ6o5yeV9qX9QT0cNnh7mTSmFhmTI0rFi0HgPVU7S+gV+rDOHpztOTzHUE9LY5Ml57Z8Xr9jrDCQJ6B+ybjhDGPubKigakPQpnT+Zm7xjXK2LOvVCDdf1y1DYZ9Pwa005A77RvRH2wDIvMP7BvXtb83uzS0fVpUXOK1jX98x5t7xrw81JlnydqKzX0ZAbbMD7qrHjdvj4+zDxsSKEycnqyzAmxj9luNM++m89nlY2L1lmT+5pq2Tkqav8Y4/8TyzOq+mzuWL90H5ijM+n5VabdgrkGvQ3ihfx4LI7ViWFLoXv1onXUe8OoLeeptQbUSsI5NTY9k+1Ir8XJ8WFhHUMKlfkskgL6C5lszqZlSB9TgVC0WdQvi9Ydp4XzfK0fdWrUrTHeH6jaU4pifdKjjk/JpNfp1ParTTkBfSR8J+oJbQAWIn2ZNzuTbVk36rr40HCAYYVK7WNy8b6oE2MfM34UwtCrot6Sbn5bBvO0LmNNr0ZIZ0r8IurBGP+vRK07ysF8bNQX48ezinzud3Vzb3/fNFNNQO+4mGhPF62bJwEsaD+RvjV+MKNNenXU2fHh4XdRWxthGHWPZrY9h0VdGvuXzUcoDK0f9c1yP31e0brxLc2U7meUTnm/J+bElVGfGOlHCpfPOk/3Yvhq1JiMejvZ9Fo416C31y+iDo96nVYAC/BA0Tr6nJO3pYoPExfHMp0Kek5vf990Qw0j7p6oHTLbpu2jboz9y8mxPD72LTe2MQAtVfYr3fgtPbZqU1OI+dihrONjzqQzKi6MuiBqynBvdLyQOZku49w76qNRu2fazwtNKQF9xKSbSsQL62Px47WFU6GA+UtPMNgt0217U1lpX5g+RF9RtE4PTU9ueCzq0dhPPreADyXpaHx6CkN3uUxHKlYu/zk9qeGRqJ/F/3+fKQQLDeg5Sp+p0s14P1g+FSYd3U6Pc70p7VMHc1Ov+P9WKFqPXE33utmqaB1MSWf+TDBtGIKXb3p8ZPlel55OlJ5q8vJTiqaW73W9g5iTae6tX9Zm5WeD9IzznB/d/GLUpaaRgD7SIT19y3t8/HiEbgDzcWsDtjFdPrVtWfN+IEmLpwb8qxS+B3vq3j/F/79X7GcvN41gvu5twDZuVNaR5T/Pif3CX2KZqn+e/zY9BWb5ovWF35KmBx14r9u0mM+ZFzEn55TvdU+X/yot07+bUM7JrobOycnxHj7D1BHQR0N6BEI65XM9rQDmcbMW/PXDyXCkRyym5w9vpoVg/1IaWwbwVQw/FZuXK5TF//i9Fiyam8R1QHkKZ7qxyVzdAOZxqxYslk17urp7tAHmK51m+4I2ABV1jhYI6KMZ0qfE4hidAObZN6Tr0qbqxGJZRgtgvvuX9BjH23QCqKAbYh/l84+APuq+EHWjNgDzmKIFQIdcpQVABf1aCwT0Udfb35dOMzuo+J8bRAAkl2kBLDZPS5k/d0gGqiZd9nuqNgjoVQnpdxet69EBXnaRFsBiW1YLBHSgHp97IhM9qg0CepVC+lmx+I5OAOU+IT2r+C6dADqwf0kfgm/XCaBCfqoFAnoVfT7qXG0ASr/TAsD+Bcjc41G/1QYBvXJ6+/vmxOLgwjOQgRZvVoCADuTuhPIJEwjolQzpT8Vin6hHdAMa74qoe7QB6IArox7UBmCUzYr6sTYI6FUP6Q/H4i1R03QDGr0vSHc0PUkngA7sX16KxSk6AYyyX8T+6DFtENDr8MZ5a9E6kj5DN6DRUkCfow1AB5ysBcAoSp9vvq0NAnqdQvo1sdhTSIdG7wceisUZOgF0YP9yZyz+qBPAKElHz6dqg4BetzfPq4V0aLzva8GQvaQFMCjHawEwCp6L+qI2COh1Dum7FK5Jh6buA64rPIJxqHypCYPzX1F/0gZghH3PtecCet0/oKc3z52i7tMNaKTPRc3VBqDNny/S2SZf0QlgBD1QuPZcQM/kTfTuWOwQdbVuQONe/zfH4pc6AXTAOVHXaAMwQv4+Ptc8qw0Cei4f0ntjsWvh0SjQRJ+Jmq4NQJs/W6Szcz5ZOEsH6LzTYp9znjYI6Lm9kc6Kel/8+OmoF3UEGvPaT1/QHaUTQAf2L+nsvBN1Auig9GSaj2uDgJ7zm2m6s/Oboh7RDebhKGu+fl60TkcFaLd0ls6D2gB0QLrfxXsjvzypFQJ67iH9slhsGfVb3WCAn2lBtq/5dArqYVEP6wbQ5v1LevrBBwqPKQTa7/Oxj5miDQJ6U95Q+6IOKD+0P6UjjfZE1LtjPrhHQd6v+XSGxIFRM3UDaPP+ZXIsjtYJoI1OiX2Lu7YL6I18U02nvm4UdbZuNE66F8EPojaMeXCmdjTi9X5tLN6vE0AHpA/S3kvI3b1RP9aGjrsy6sPaIKA3+UP741HviB9TPaYjjXBB1BYx7kdGOYOiWa/3swo3WwHav29Jl9IcEnWJboyom8tiZNwdcz29hx4a9Zx2dMT1UW9NN7jWCgHdm2t/XzqKvkHU16O8KPKUnlm7e4z1XlF3aEdjX+vp2/9/0gmgzfuW52OxX+H56CMhXft/RNS2UZO1Y8TcW871k2KxQ9RtWtJWt5bh3MEjAZ0Bb67PRH0xfly/8Nz0nKRH4bw9vZnE+F6kHcQ8OC4WH4qaoxtAG/ct6YP1noUj6Z2S9tnppq4bRK9/GJUuV7tHW0bMfQPm+i2x2C7qGO+lbXF51BvKx8MioDOfN9iHy+emb1N4PFOdXVy0volMwfx35SmI8PLr/D9isW/hRpFA+0P6W6PO0I22Smc6bh79/XDUEwP+/d1aM2LunWeuz4o6Kn7cPuoG7Rm29GSpPaOX/VohoLPoN9kbo/aPH7eKOj1KwKu+2VG/ito6xm63qPO1hIW8xs8rWkcAbtENoI37lvTEiL+L+nLhEWyL68Ko16b7BS3g8rQ/a9GIuX0B8z1dN/26qI+lf9SmQUu54ktRB0YPXdMvoDPEN9qbotIb7SZF6+6Vz+pK5TwYlS5PWDPG6pCoP1Vo3ep+6tezmb++0+mR6dv/Hxa+hAPat2+ZG/WV+PHNhZvQDse5UTtHD/eIum4h/93Uwg3LRkK6P9N9C5nvc6J+WrQuE/2Wz8qLlM4CSWd5ftUZngI6i/dme2d598pVi9bNSVz3NLpeKFqnBe0TtXaMzdfTXfkrOG+eLur9/O0ZDXhtz4xKr+ndotxAEGjn/iVdbrVp1M91Y5HSWXAnR20Vfdsn6opB9DedoXC71nXc7SmED2I8nor6XPy4btH64tuNl18pXf6yafTpD1ohoNO+N9sZ6eYkReuu77tG/UcTQkyFpDfs9EXJKjEOB0SdW75BV9nkGvf75ga9ttM4bRn1maJ516a38zVU96NZsxu8f637h+lKHrWLfcuTUYcVrS8B/1Qwr3Q08WtF6yy4D6QzF4f4/1ehp89nPp+vHeKcf6L84nvNqK9G9Znmf71fQvri6aAo/RDQ6dAbbjp97ZKodDfolYvW9Wa/K3xb2G5zy1CebkSybvQ7nfL246jpNdqGrxf1vA4xHfn/bcNe17Ojvhc/Tio/MDbhy7dp6YvHNv6+KUV9LxdIZ7zcVDRX+gBZ59OxL634/iUdTU+PBvtAMc8Ntxr63p7uA/KOqDWiN/9nMc6Cu6QC23J1B37v5AqN138Nc873RqXrrNcoWteoN/Fmcn3lZ9jN0kElH+tHx5i5c11K8L8aMmZMo7a3p6t7mVjsVbSeh5ruEv1qs2BYwTC9Mf2/FBCreOr6MOZF+hCS7mHQU5NVTt/cfzB6f2aTJ2KM23Kx+HDUJ6LWznQzj45x/mab+5aOmHyxZn1IX6IdVj7jt8lzPr1v/SZqXM1WPT115cAanFH1cp+XiMU7oz4V9doGTbF0VtavU8VYPdSmXi4Vi8uK1pcfo+GrZQht9xwZV36Jsfsoj9lJsX2HtnG70jilg1sHRy2f8VxPX3amx7r+KD3KeaT/uDwqoAvoC94JjS1ad4neo9zB7hi1pFnxyv1I0TpF7YKyLo+d2fMZzocJResZuenNabmKrmbqe7or7jkxBtNMzb+NXTo7arfyQ0UKMMtk8JpLpyz+IuonnbhJTfQs3RwrfVG5bA36ke48fFp5N2Lzvat741gcUrTuuVJ1aZ81OeqMwVwjW9F+pztgpy8C351pYEmh/JxyjG7tUA8nll92vHme99cUjF4cxq9MX1Iv6nKXJ6POim36rw7OjfRFTnr0705R40d43NLlShdF/aZD7xFLlp+J0rx/e4U/Fw1VOpPn36LOTmfljdqbvDwqoAvog94ZLR2LHcpKO9t09+gVG9iKdIQ83ZX1yhTG0zKdBmWGUJPXcfqiZe8yqL8laqWarPoDRetU0PTYovN8AQOV27ekwJJufJoe8fq2or5n4KX3+HREOx39TWfB3W90GcTcf2PROgM1hfbNa7YJ6UuoU4vWF71Tq7BC8qiALqAv3k5pvaL1rPV0c6otyuVaGW1i+vY6fWN+S7kDuybqhtiBvWj0yeD1m3Zw6Q7NO5WVzpLZoCKvu3RWytXla+7Kdp1OCozIviWdgZdOfU9HhHcpWl/sT6zo6qYjrensk3Tk8MJyf/O8UWQx5v8qReustfSe+rryc3KVLrtJNzZMX0Kdnyrm+8NV66E8KqAL6O3fMaVTQtcra4OyJkWtXtb4iq1yCtvpw//UovWczPRt+W1F62ZLUz3jkYa9fleIxWbl63bjAa/hVTvwATvdLPHustKjH28u6z6vO8hqv5Ius9mkaF0itUW5j0mPskpf6C8xgquS9jm3l5XOhEtfAt5W18sLqM38T0fYty5rw7I2Kud/J4PG3PLzbfpMe0v5ufaqmO/3Vb1n8qiALqCP/I5qpTKovyaqu2jdRX7F8ufl5qkU9scOWA4mIKRHTKVvv2eWP6fTz/sG1F/K5aNlKH/YEXEY1Gt36TKop9dwT/l6XLZcvnxde3rdvvxEkHTDq3SH9ReK1jWR6bWXvrlPN595ND1zVleh0fuU9L6+WtH6En+d8ud0avwK89TL7/1pPzNuwM+zy/3Ly9dqzygrvb8/Xu5rUqW7zt/u8VBUbP4vVc79lcrPwi9Xen9duqzx5XLcgDn/8iPsnivnfnqCx/Ty8+4T5dxPB5vSQaYX6tgbeVRABwAAAAEdAAAAENABAABAQAcAAAAEdAAAABDQAQAAAAEdAAAABHQAAABAQAcAAAABHQAAABDQAQAAQEAHAAAABHQAAAAQ0AEAAAABHQAAAAR0AAAAQEAHAAAAAR0AAAAQ0AEAAEBABwAAAAR0AAAAENABAAAAAR0AAAAEdAAAAEBABwAAAAEdAAAAENABAABAQAcAAAAEdAAAABDQAQAAAAEdAAAABHQAAABAQAcAAAABHQAAABDQAQAAQEAHAAAABHQAAAAQ0AEAAAABHQAAAAR0AAAAQEAHAAAAAR0AAAAQ0AEAAEBABwAAAAR0AAAAENABAAAAAR0AAAAEdAAAAEBABwAAAAEdAAAAENABAABAQAcAAAAEdAAAABDQAQAAAAEdAAAABHQAAABAQAcAAAABXUAHAAAAAR0AAAAQ0AEAAEBABwAAAAR0AAAAENABAAAAAR0AAAAEdAAAAEBABwAAAAEdAAAAENABAABAQAcAAAAEdAAAABDQAQAAAAEdAAAABHQAAABAQAcAAAABHQAAABDQAQAAQEAHAAAABHQAAAAQ0AEAAAABHQAAAAR0AAAAQEAHAAAAAR0AAAAQ0AEAAEBABwAAAAR0AAAAENABAAAAAR0AAAAEdAAAAEBABwAAAAEdAAAAENABAAAgD/9fgAEAKcxisFjVfn0AAAAASUVORK5CYII=;" vertex="1" parent="1">
          <mxGeometry x="630" y="165" width="73.18" height="30" as="geometry" />
        </mxCell>
        <mxCell id="4_9zNN8vkJeB74bzpde8-4" value="" style="shape=image;verticalLabelPosition=bottom;labelBackgroundColor=default;verticalAlign=top;aspect=fixed;imageAspect=0;image=data:image/png,iVBORw0KGgoAAAANSUhEUgAAAPAAAADwCAYAAAA+VemSAAAACXBIWXMAADddAAA3XQEZgEZdAAAAAXNSR0IArs4c6QAAAARnQU1BAACxjwv8YQUAABiOSURBVHgB7Z2/cxtHlsffG0BnytqqxdpeexWZqiXvSO+WCGWXCcw2s5ztRaKyyyRll4nMLpP0F4jKLhMZXiQou8xDl21qTboMZ7pbn01XnS3aBKavXxOwYRk/Zgbzo9/M91NFE6IJkQL62+9Hv36PCAAAAAAAAAAAAAAAAAAAAIBfwQRUsrbWXh40qGWYWmxoefR1M/Z4EszUk89RRCfcsB+GThoDOnn+POwRUAcE7CHLy+3WhUtOiG1DIlCzYYXZYvmzFSzZx5QHTCf27+7ZRyd2KwiJg2/tzw2DgHpHn4QhAe+AgEtGxNq4SB0OrGAjc53PRbtMfiIi7lkzfiDCvmA/YLnLBQIumNU/tUWgHbGq1tp1PBZrLOwC6hkRdsDP7OMuLHWxQMA5I7Fqv0E3xLraV7uTm/vrC+dueJcD3rexdRcWOl8g4BxY+XO7Q4PofSa+od3CLsq5hTZ71Aj2jz8OuwQyBQLOiJFobXy4VXkrmxJ28TN1TcCPIeZsgIAXwIk2iq7bl/EORJuMkZgbEe/AzU4PBJwQyRo3L9GWjWnft3/sEMiC0MbMD8++o71eLzwhEBsIOCYuexxFN+Ei54hNgNkFuQerHB8IeA7nsa25R7C2RdOlBu8gVp4NBDwFCNcPXKwc8I49X94l8Csg4FewrrLEt/fqfvzjGxDyZCDgIWJxeWAeQbh+AyH/ktoLGK6yTlyBSINv1T1Grq2AXYkjm0cE4aqGmXbrnLWunYDdOe7r0W0yvE2gOrDZ7n8fPKzbOXKDasQf19s3mhfME/tu3yBQMbjTuEB/ffOdy99+/fcXtbkRVQsLDHe5XtTJra68BV5dv3o7Cug/7MM1AnWhHTFtvfH7yz98/dWL/6IKU1kLDKsLhnSbhm9V1RpX0gL/49rVm4OA9ghWF9i8pWG6UdXYuFIW2GWYL0b33PU+AF4lMA/63wU7VcpUV0bAcluIIvMElVRgFlIA0jC8WRWXuhIutCSqrHB37cM/EACzaVUpwaVewCvrV+/bfXXbPlwiAOIha+Uvb7zzTuvrv//3f5Ji1LrQwyzzE/uwTQCkJ7RZ6g+0utQqBezGirB5ingXZIHmuDggZcjtoX5gPoR4QVbIWrLe3IdSakvKUBUDS7LKvtpSVYV4F2TNkrXEf7XJrW81JbfUCHhl7eo9Yv53AiBf/vLG2++QTW49IwWoEPBQvNsEQCFwR4uIvRewOyZi/jcCoFB0iNhrAa++t/HIvpD/SgCUAnfefPsPy1bE++Qp3gpYxGsMbREA5dL2WcReCnhYXQXLC3zBWxF7J+BhwgoxL/CNto8xsVcCRrYZ+I1/iS1vBAzxAh34JWIvBCwdNAzzAwJABdx5663Lvf/96sUBlUzplxnOx3aaDwkAXZxwwJtHn4Sltukp9TKD3CqSLhoEgD5asnbdGi6R0iyw9K+6cBG3ioBu5Cri2Uu+VlafrdIscPN1TAIE+pE13Lzo2heXQilJLJdxRqEGqA5rZWWmC3ehh+M8nxIAVaPBm0WPOy1UwGiFAyrOSdPwtSJb8zSpQIajTpapTNim/w3/lHAwbFo2kGkR0MfwvTT2s30PT1imMJBZpvJoDdf4JhVEYRbYj0or7h4fhr96cd1EhyVq21dDPq6zMW14CZ7hRMqhFeozK9jwgqFwkqVbWbMhGpcdovFdu84KKUwqRMDDFrBfUMnY3frW0fNwN873SoFJFNFWQOZ9iLkkxMIS75mIHvdPKYx7VLOyviEC7lCZFBQP5y5gn857+y/5d2nO687HttAd626/D3e7CLjLAT0++4720rxfK+vtOzY4uk8lUtT5cO4CHt7t9WDYGO9bt2ahtqFuM1qiG9aU34NVzhhrbY3hx2xo7/j5YpZruW1Doh/MN1Q2gXlw/MlHdylHchWwT0dGSdznOKyutbcg5AyQ2Dbih9ZFfpCltfLCjRZydqVzrcTiQXkVKq/SIOpShshmcHR4cEU2BnGXCCTjPCm10/+er1iLu525q2nYi+t+ogHx3CgnchOwZJ29sU48OWOZBRBycph5txnxtVyE+zNd8gBXavk65RZC5uJC+5J1HmGIH35+GBYSh9tjjG0b+9xGsmsS3LWvy86iMW4cXBz8o12DnrwPTcNX8jAiuRRy9AObATTkE10qCLEqdgPbHTBtGzI3KSPscUpPzj/tjntiX9ovXeFCYB8PqMcNOmkMyFmy01M6mWXVxJ1bWqLWoEEt+1y3uO3zl41xHy1metctejbtzBa/HAdFfDfLHMQ8emF4svLeRo88mV6ZV4FH5hbYHrlsmcif2FfggK+VcfFahmXZc+T7sUMJiQutUO2bEloxHdjn9aYVLBSBy7pfomV7Hr7M7ISwIV8mY2KLQryfwUvaLuO6nX39HzBZb8gT7GvxgfUE9yhDshfw+sYXvmVmjw8PSu084txqm7F+9etiVe1/uvZDEi5h2d0d4vJT5Vpgs7yGrk+y1pIPsMdCt4pwl6fhw3nwOHmcDWfqQnuVuBph3U4qmZFb3Q/oibWsz4KAwrRFCj4w/L27NBaanLdGcsc2Url20C/J6o4jHkzpPaPGGEtobVNGZPbv8/em0eT6Z1B9fEumDjnpv+QrWW1umR0jDQI/ixps7NYjUEtOl8hHD6eV5bFSJgKWnc7XOUYuYwtqiWSiyUeMuZ1VM7xMBCzWlwDwEE+La1pZaWZhAftsfQHwFdFMFlZ4YQHD+gKQjjNePBZeSMCwvgCkh8ncXPSiw0IChvUFYCEWzkinFrDz340H9y3nYHCpoNZ4f1/bZqQXscKpBTxoUEfDZfaA6bcEaoncSCL/WcgKp3ehIx3us6H4hfegWlz4Tke3FDbpb62lErDcstHSSobhQteWqKljjYqWXPupFKQSMGd4zzVv5MXJs6UJ8JfhFUgdDNJ5tIkFPDx8vkGKaP5G0RsJssOYDdJDJ42hSSzgPusSryPyP1sOcoB1ve9pklmJBexTh4PYGHOdQK1YXW1n1xKoINIksxIJWObOKO2D3EEcXC9MU5/XlSaZlUjAHOhJXr3KhUsKXX+QHta5Vs0g2TpN5kIrqLyaivRuArXAFXAYnYnLpCc8sQWs2H12d0IbEe0QqAVykV8a7ZNOWknc6NgC1uo+O/Ea3iyrNSsoB9eD2rDKTTuJGx3fhVbqPkcDvgvx1hPpBkqejFhJQhI3OpaAJSWv0n1m3vn8s2wbaQNd9F/jDxTOrIrtRscSsLmgL4Mrb9rxp24HBjVG4mGjMR6OWXwUz4VWWAghcS8BQM6V7sqIF9JETM3NFfDwTmWHNGFdZ8S9YJzBa7StzJWOVXw0V8CNH3SJV96k/vf0gAAYQ1zpiPguKaJxcb724rjQHdKEPTrQOnMI5MtwMmCX9NCZ9w1zBcysJ/4V61vkDFqgEEVnw3G0N1PA6krSlB7cg+IYjjvtkgas9ubFwTMF3DzVI15YXxAbRRv9vGYUs13oQFH8C+sLYiJWWE1GerCIgBWd/zYUlsyB8jCGH5MOOrP+52wBq2kKxvs49wVJ6C/pOGpkmt3Xa6qAhwksFV0s2BDqnUEihrODu+Q587qqThWwpgTW2SkEDNLA+6SAWQUd011oPe5zF4UbIA1NJZ4bz7gJOFXAiq4PqthFgX9I3kRDNpqZpsbBUwU8L3j2hgaFBEBq+Bl5zqz5Xupd6OOPXWUNAOkI/E9kzZrvNV3AKjLQ3CUAFuFH/z24WZnoiQJ2Xe0VYP9hBwTAApxd0lGRtbRE8QVsGkrOf/X1OgKe4VrQKlhHZ1NC2okC5oaauao9AmBBNKyjIEhigY2S4d0NwvkvWBgm/pI8Z5ompwlYhQvd7MMCg8WJyH9DME2TwZQvqhDw6SksMFgcZv/XUcD024lfn/RFe3D8LikAJZQgE4wKC7w86euJB3wDUDU4UODJsYnvQrPSKYQAVBVOEgMDAHQwOQZmHUksAOqCoSQWWMkxEgBZoKTuoXoudJzZMQBUGdUCnlbgDUBdQBIL1B4tlYeTUC3gfhPHXWBxtFQeTkK1gM0ALjRYHC2Vh5NQLeBpV6wASITiY9PJAlZQ3C1oufYIvGeZ/GeiJieXUioo7haYSK3rAzxCQRKLkwhYC9YC/44AWAAt/d+mMa2UUokFVtK7GniLlv5vhrg36evTSil1xMBzBj8BMBc1I4QmM+U6of89gkZcuIREFkgPsw4vjnly+6iJAtbQI2gM1TsoKBctJxmRoW8nfX2yBVYSAwtRBAGDheiQAqZpcpqAe6QE6wJdJwBSsLLW7pASkrnQkSIX2lAbiSyQCkUJLJNEwBeMrpGdzd/AjQZp0OO9TSuumijg0yVd/ZbNgG4QAElhHfGvcPRJONGoThSwloFPIxAHg6S4+FfPPeCpBnVqKaWWaiwH4mCQELu+FXltPDWknSpgNqxq9m7zIm0RADEJyLxPSpg1BzuY8SRViSxS9IaAchH32SgaXjArnJ0l4B7porP6J903S0AxcGBukiYalNyFHrxGXVKGMchGgxgYPdlnof9/KQQsmWgtnTl+wpjbSGaBWVgvbUub+zxrCufsC/1GnRVuNV+nOwTANCJzjxRhaHYyeY6AdWWiBTbK4htQGNqsr4NnJ5PntdTpkjLkDZI3igB4FWXW1xHM1uBMAfeXtB0lnWMicx+xMBhHpfWl2QksYaaAh4ksjSJGLAx+iUbra7U3K4ElzO1KaQw/I43YjPTaWnuZQO1ZWbt6T6P1jaO9OG1lu6STVp/NIwK1xm3izNukk+68b5grYI0FHWN0VtbbcKVrzIDNU1LK4GUGAnZxsF4rbDH3UGJZT1bWr97X6Dqfw9158a8QbzKD1jj4nJZNYDxBVrperK5fvW1FoNn72o/zTXFHq3RJMbILNy+aJwRqgXhcRm/c6+AgnuaYYrLy3sY3ijoYTCYwD44/+egugcoiSSuJe/W6zuf1z0eHB1fifG/s4WY2pf2YtBPxnZX3ruo7DwSxqIJ4HczduN8aW8BsaI+qgOFtiLh6VEa8FhNQbGMZ24UWKuFGj4A7XRncKYNNVFZBvEncZyHRfOBKuNEjxJ1e3/gQ1Vq6+eN6+4Yx1bC8jgTus5BIwJVxo3+mLW4XRKwTKZFksqcLVfEKKZn7LCRyoYXV9Y0vKrPbjcNm+/jTj3YIeI9suMMy2Q5ViKTus5DIAguVcqPHkeTW+gassedIgUY/MB9SxcTrMJzYgCQWcH+JHlB16did/Qtkqf1j5c/tjmywhvhBlVzmcRopCqYSu9CCvJBUxR1wDNeLN+Cdo0/CXQKl4Y6HAnPPmKo37uf948MwcVfVxBbYkcLUa0PifBOZRxLzo0VP8YhwV9/beCQeUfXFS2J+U3m2qSywkO+ZMHdlnEQQ/NwNxETUElHZX3jD/qlDBTOyyI0BdZ8/D3sEckFcZRq47hkdqglpklcjmpSWiB/azG2msaL8QxqGN+cJxLlV8gbbn19URtz9HGuR+/aXtJZhNzK8//lhWLVjtVKQm2LN1yO5PXTDird+Vz8X8GhTW+Dltn3RfzRfZGqFmXeOPw23kzxldc26twUKeRxnlZm6JuDHxx+HXQKxcUdBDbphN0WZadWhmiJr6OwlX4tz93fK89OzstbeztgKd48PDzYpIbKZNH6gbXuof5vKQqZYGOpywHKPM5w2kLmuOCv7G2rTILKC5Y79EposkNgs3j36NLxFKVlIwM4K/2C+oSxZoKBCrLEJzH0fjhlkZ3UTHgN+Jt0FpT1o2l1WIy7MaVDHRNEGBDudpuEri+RUFhKwsLre3jWU8TSEBUTs+a0UscpWxCbkIDgwTD3NwharurRErTOmNgc2wWjMhs0Yt+2qWq7qWW2WLGp93d9BCzIsa/uCsiYwD/rfBTtpFrfSq2V7/Zd8S4OY5QIBSykjRLoQi1pfoUEL8tVXL07e/P1lSYFn6yIZ/ufGBfrr7y5f/vKb/3nxPMlT5Xd6+63L+9bCycG494tM3G37Zv7L8XH4ghTwzVcvnr/x5uWL9hfvEEiFWN/PDsOFy5IXtsBCblZ4CDPtNiLeSbpbud5Ixjz12lLY5Fcz4msaz5ZX3tuQm0CJq4dANtZXSFeJ9QruF8mxOksqcdJc+3OZ4IHnVWMm+cbkC/1/4FvuKA0kQqxvVu95JgIW3CWHHAeCSzybRsTHfwsfGOKH5CW8d3wYqr0cIj3DjeGFkjB1wxUrRZSZUclMwK4BfJSvUEYiTtrjefCanBH7ZymahtS39Dl+7gpYugRiYZgfZ+lxZSZgQaxw3kJJ0+PZR0uRpRtVOjW43JIFoo2klYbzyFTAIpSIuAir0ln509X7SZ7gLAX70xIoSzeqbGCFY5LDRpepgIVhgX+X8kaa0snNlQT4k3Th6t1oghWeA+8dPc/+bnnmAhaaBbmrPDCPksTDvrjSbJI1LtPA0MOpTaloUvLKd+Qi4LyPlUa4ePhSlOgyhVtoEZeaPGpU1N2sbL+0ReH8jgpzEbBQRELLkcKVlqOl8ly+CrrPP9Ml8AvySFyNk5uAC3VXB8mvNFpLvF2GiKXTCFUU5cPg8yHgDyhHchOwIO5qQUUUnTR9q0oScZcqimzaqMz6GVn7ed8Lz1XAQlFFFCYy99MM8R6KeLOohRcEVV/gqofBZ4asp8FL2qacyV3ABbrSrebrlGoiu3gKDSfivJMw3K16pw6540yAZD0VcTU0dwELhWV+jbmdxgoLklg6Ogy35JZIpkK2RytSdSVW/vgw3KSKwxBwrlnnX/0oKpBiGsLz3SwuCIw6X1qLcjNpG1u7AfQion0ZBtc/rVcrHXfZn5KVulYL7ha5UadvK5vmh1lX2s21yfV+rutyuLCAhzvorny4hmxLrlWMfLTsrvfuL34i0ZdDyxOefUe9Ogn2VYI+9Uyhq8ofztsiU6GFQoVaYGFlrS39nJ9SnjSsu4o2r6WQd3MHnzED/uDzz4rtFV5IDDyOi4fzProZZNtwHoC52Li3aPEKhQtYcEc3+d4M6iStzgIgNcx7eVZbzaIUAQu53wyCFQYFIGu4/32xce84pQlYzocb+RZQdFbW26nOhQGIw2iWV5lJy9IELLhMr9SK5nYNzdyHKw1yw67dsi+mlCpgQSqTOM8ij4F5krQRHgDzYHsk6kNVXekCFlyngvwy06003SwBmIrNOOfRXSMNXghYyPNmkFz8t2eTH6a5sQTAL0gxAjdPFh6tkiVff/Wi+8ZblzmnkR1LMkXgjXfeab395uW/yfgVApnz1lt/aEVM1UweeiZewRsLPEIsca53iCO+Iy41rDFIglxw8U28QuGllHFZXb+6a4Wc7djSV3BHWAHvNAZU5TY3hVLFUkoRr9xUIw/xVsBCESIeY48D3s9LzKMkWtU3iqoJ2GfxCl4LWFhZa2/bnH2hVVVimY0M42Y+MIZCbtBJs0+901M6mXRoPxp0PWhQK4poOQioZZ+3zGTeHR94bTcIOXrYpQpTJQH7Ll7B+4tfEhNbEVORIh4OBreiMzfcDjcg6tsHzYvuTvPEZ/TlU3S+I5rop7/nlQdADXJU5GHM+yreJbEmUVYHSVBTPMw2T0OFgAUn4pIbsoM6wHe1iFdQI2Bh2JB9EyM8QOZI7zLDt7TNa1YlYEEaAjQjvob+wyArZC0x86Yv5ZFJUCdgQY5iGueWuNItWkEhhLKWtLb7VSlgQUR8/OnBNSS3QFqk4q//kjc1n82rFfCIn5JbiItBIvju54fhHe0dRNULWJDkFuJiEAcX7wZ8TVuyahqVELAgbtDZa3ytoGFqqZDqLALlwbx39pKvVWm8TaVacEufLfvpzupaO5TKrWFFFSiQvo+vuYRXxhVnVMLqjlMZCzyOHAcUM6wM+A+7Y8equMyvUtkhGMPM4pa1xl1Y4xoysroVFe6ISlrgcWCN60i1re44tRhDBWtcE2pidcepvAUeR6zx0eHBFRR/VA9XlPE9X6mTeIVaCXiEFH9kPsgblATLsLzNKhRlpKGWAhbErZZuC9zna6ip1ocr2rHClWHabuJlTamtgEccHYWh1FTLVTJUcilgeO1PQqE6C3dE7QU8YhQfQ8ieMkxQSZyr8dpfXtQiC52E4eLYtRnrLcN006ZHOgRK47zBoCSoaLeOMe48IOApjIS8stbuMNOWIbNwe1uOqm/Z+0sUNn+gDJDkFMkMoi6BqXjfVtYXpF3qgGnbWuTrac+RJfNdhwbyK+sbT+2nDiXl3E0W4T5EfBsPCDgFqdxrRZ0OF0W8FmLzNP4zOLSi3e+f0gO4ycmAgBdArPIZ052AzPuzrLLEcHJOSTVi5Z/adygw96d+g7W2xvBjNrQHa5seCDgjxOpYqyyN4M87v7sFSl/WeYGONjj3mjC17E52YvMJPRPRY2ttQ1hbAAAAAAAAAAAAAAAAAAAAAAAA4Jf8P8WdqoAaqCHmAAAAAElFTkSuQmCC;" vertex="1" parent="1">
          <mxGeometry x="605.96" y="170" width="20" height="20" as="geometry" />
        </mxCell>
        <mxCell id="4_9zNN8vkJeB74bzpde8-21" value="" style="rounded=0;whiteSpace=wrap;html=1;strokeColor=none;fillColor=#E3F2FD;" vertex="1" parent="1">
          <mxGeometry x="770" y="190" width="259" height="310" as="geometry" />
        </mxCell>
        <mxCell id="4_9zNN8vkJeB74bzpde8-32" value="" style="shape=image;verticalLabelPosition=bottom;labelBackgroundColor=default;verticalAlign=top;aspect=fixed;imageAspect=0;image=data:image/png,iVBORw0KGgoAAAANSUhEUgAAASwAAADhCAYAAAByfIirAAAAAXNSR0IArs4c6QAAAERlWElmTU0AKgAAAAgAAYdpAAQAAAABAAAAGgAAAAAAA6ABAAMAAAABAAEAAKACAAQAAAABAAABLKADAAQAAAABAAAA4QAAAAACuX0oAABAAElEQVR4Aex9B6BdVbXtWqefc3tP7yGBkAQIJdJDR1FQqvhQBEHxWb/vq8/C9ysqil/lPdGnoCgiTSB0aYYSSmghIUB6J/Xm9nt6WX/OG8ZlZmXtfe4N4T3K3UrmXHOMMefe6+ys7LPP2msrZW3GGM3/WWHliklOOVxy2ffic9yFuWIyZzlccofqD/W/1/nCcRfmislzqhwuuUPn394///r6t9yHUA6XHxJzB8P3+1CRdzD5huoP9f9gzpeh8897UHlX/P3z+zBtDG1YrwOwcfBc1o9rY2jDIl+5Nngua2slx8bQhgW3XBs8l7W1kmNjaMOCW64NnsvaWsmxMbRhwS3XBs9lba3k2BjasOCWa4PnsrZWcmwMbVhwy7XBc1lbKzk2hjYsuOXa4LmsrZUcG0MbFtxybfBc1tZKjh/Wx/MjMOaFDyTuxRnoDg7VH+p/r3NoIHEvztD591YP+PURY174QOJenLeql7+y6+N6JfKKo4DEpc+43XZp/GJ+OVw6u57ddmn8YkP1vT9DV7/Z/W23XRq/2FD/D/W/1zmE88bTSqH0B3JSeSW183jx7Bq2zm775ZHYYHSSK31732T+cr6dx48vudIfql/+L7VXv9r96MWz+9jW2W2/PBIbjE5ypW/vm8xfzrfz+PElV/r/E/X99tOJ2TvsJDmCts5uOyTO0N7S7a08zp10BO16dtshcYb2lm5v5XHupCNo17PbDokztLd0eyuPcycdQbue3XZInKG9pdtbeZw76Qja9ey2Q1I+JJPYvmzbmbwwO263/fJILvuy7aeTmK2x25LLvsRtX7b9dBKzNXZbctmXuO3Ltp9OYrbGbksu+xK3fdn200nM1thtyWVf4rYv2346idkauy257Evc9mXbTycxW2O3JZd9idu+bPvpJGZr7Lbksi9x25dtP53EbI3dllz2JW77/e1+x1ZbCRzwXgkN1d993hs61q9vwHm71q+GH/Z260LvV8MPg/7tWr8aftjbrQu9Xw0/DPq3a/1q+GFvty70fjX8MOh3GeUQlELpAy9nB6NxcWVM+uXqAh+MxsWVMekjfzk7GI2LK2PSL1cX+GA0Lq6MSR/5y9nBaFxcGZN+ubrAB6NxcWVM+shfzg5G4+LKmPTL1QU+GI2LK2PSR/5ydjAaF9cV262mi+SK2ULJkb7NK9d2aV0xO4/kSN/mlWu7tK6YnUdypG/zyrVdWlfMziM50rd55dourStm55Ec6du8cm2X1hWz80iO9G1eubZL64rZeSRH+javXNuldcXsPJIjfZtXru3SumJ2HsmRvs0r1x60FgJYVwE/zMUfTAy5YV1aP8zFH0wMuWFdWj/MxR9MDLlhXVo/zMUfTAy5YV1aP8zFH0wMuWFdWj/MxR9MDLlhXVo/zMUfTAy5YV1aP8zFH0wMuWFdWj/MxR9MDLlhnVpfUCgGyhOSftdP64f1JyBnoDypge+n9cOgZztQntTA99P6YdCzHShPauD7af0w6NkOlCc18P20fhj0bAfKkxr4flo/DHq2A+VJDXw/rR8GPduB8qQGvp/WD4Oe7UB5UgPfT+uHQf+2ivcnedPhgnZRu+3S2LE9bQ/VH+p/+3yz2/a5VQ63+X7tofPvf+D8sz9Au40PzCsOHBY8WI5LHzxYG7PbXjzEbQs9LOPS9+Ij7sX1ikMHCx4sx6UPHqyN2W0vHuK2hR6Wcel78RH34nrFoYMFD5bj0gcP1sbsthcPcdtCD8u49L34iHtxveLQwYIHy3HpgwdrY3bbi4e4baGHZVz6XnzEvbhecehgwYPluPTBg7Uxuw1eWVtOCBy2XMKB8pCnHB84LHRedqA86MvxgcNC52UHyoO+HB84LHRedqA86MvxgcNC52UHyoO+HB84LHRedqA86MvxgcNC52UHyoO+HB84LHRedqA86MvxgcNC52UHyoN+N/5uAWK6YpzAK47kXtZP58JcsaH6Q/3vdV54nXeI++lcmCs2dP79z59/+DwHZL0+RC+x5Hv5XlpXXOZw4XZM8r18W+PXljn8eMAk38sHdyBW5hgsX2qlP5A84AxWJ/lePnIPxMocg+VLrfQHkgecweok38tH7oFYmWOwfKmV/kDygDNYneR7+ci9R1Ym9UoADqwXzxUvpymHc05wYF11vGLlNOXwofpD/Y9zBNbrXHPFy2nK4UPnn6tX92JsIB/AXiy3W6qh+t6P/uzWWe9AYKj/h/r/HTitBp/SPhHttswIDFZie+rbuey2zAsMVmJ76tu57LbMCwxWYnvq27nstswLDFZie+rbuey2zAsMVmJ76tu57LbMCwxWYnvq27nstswLDFZie+rbuey2zAsMVmJ76tu57LbMCwxWYm/bR1JYTij9t12gTALUgh2qP9T/8lwoc/q8bRi1YIfOv3fp+Sc/oIF86i4+YrCuPF6YV9yVw+skQg5Yl9YL84q7cgzVd5/E6ENYV995YV5xV46h/v+A9788Wbx8+yTx40mu5A3k5JN86cucfj5qQAuLuMtKjpfvV1NqkB8xWMRdVnK8/KH6u/4l9esn2VeS5+p7yfXz/TBXDcRgvWoPJq/M5eWjDnBYxF1Wcrz8weyn5Mp8rtqS6+f3aQeSzKuIHd+TXHuiseuivSe59kSDerbdk1x7orHror0nufZEg3q23ZNce6Kx66K9J7n2RIN6tt2TXHuiseuivSe59kSDerbdk1x7otmlbrkEEpf+Lkmo4YfZXNkup5O49GUO9v0wmyvb5XQSl77Mwb4fZnPf5IdIEy6nk7j07Zx+mM2V7XI6iUtf5mDfD7O5sl1OJ3Hpyxzs+2E2V7bL6SQufZmDfT/M5sp2OZ3EpS9zsO+H2VzZLqeTuPRlDvb9MJsr2+V0u73hWYqlz4loMzIGHxgs4uXsYPh+XGCw5eoCHwzfjwsMFvlddqUx1e09alhrWjV29Kjmth7VlEyq0cleNVIVVSAWU1ubqtWmhga1ta5Sba2Oqe2VVWrzfkolh/p/6PxznVM472BdHFdsMHw/LjBYVy1XbDB8cPsHLARkYlcMuBdmx+029LZ18Vwx6LwwO263obeti+eKQeeF2XFur+tUNeuSaurmDnXo4jXdp76yYusxmzqy8XQxaHS4mle36EurdVAFlTalYlaX8iml8j1q3LCqwn4Tmh+eNaXxwSkj1TMtIbV6fJ3utOt47ZcXD3xYF88V8+MzZmvsNvS2dfFcMei8MDtut6G3rYvnikHnhdlxuw29bV08Vww6L8yO223obeviuWLQeWF23G5Db1sXzxXrH7DsBHvSdhVAHhuz2+C9HeuX08bs9tupC62dk9qhB1vV7Eef77786cUbTuzMhJUKV6piKaRCOqxCoYhKU9uUDP2XVgGdU0GtVSAQUEUdNKYU1OQonc+ZUqpd1+hu86F9W+Z/7KimH88Yr54epnUStdna9f0wP67UDcb3y2ljdnswdby4fjltzG575RxM3C+njdntwdTx4vrltDG77ZVzMHG/nDZmtwdap3/AQgLbIhHi3Ja+q+0V47jXhpy2BR9xbkvf1faKcdxrQ07bgo84t6XvanNs/mYz69kV2UvveXr5pduycZPRtToQr6Pv1TQk0QAVoTRalXS6FKCBqkh+noaqLF1f0dUWDVgFFVX5UlSFYwGVomEpFlSqjkS6Z6NKFNvUkQeOvfnDx9b96thG/YK9P177xHGvDTlsCz7i3Ja+q+0V47jXhpy2BR9xbkvf1faKcdxrQ07bgo84t6XvanvFOO61IadtwUec29J3tb1iHPfakNO24CPObem72l4xjnttyGlb8BHfbcACgS2T2HrdO2HMb0MRPw4wF/e9WP/FbtP4wgp1/ryX2n70ypod1aqiSZVClUrT1VSRxqJ8vkiHXKJOLalCLq9qgj10pRUyoWBQBwwNVCVliiWtM8WAyjEtUqFMMMCfhC4V8yZkcjoaNCqsCkYXC/q7J6vLx45r/NPhjXoT+hLW1afAbOvivhf7Xx6X65gkLn0Xd+j4331///tXBy03KMkP1P4gJSZPAi9f8u1ce6KR+bz0Mi75e7P+62kz9q5nMj+/+/GV52xJxVTdsMmqJ08DPxenwadQLJEpmOrqSLG2QW2Kx9WmUVHVFYuqjlhEddAt5WImp2rTWVXflVJ1qbxq2dKuxvRkSpFkMacCNOiFQgFVwphHaQ/a9jt17BEfeubEYw747AFNeoU8Ti//nTp+r3p2fKj+Wz9g7c3zz+5nr/Z7uf/7r7BwcF4dKA8SXGnL4ZLLvhf/vVr/sS4z6cYn1LWPPd92bDFco2I1IdVLI04gHFbhfNZUpN/QU2rVluktgddnDq94cNb05rtGN+tVrn7hGP8Dsq3XtCxctvHMReu6T3t5iz5geVtoWDYxSndlQqomFjEF+gZZCKeUzqTMwZMaX7/sdHXucVX6NTunq/1+63+v43EdO8e8+O/V88/reN5vx7/bgCUPsFwnlMPtXNwudyVna/z475b6K1Nm1C/vS93y1LKuIwrRBpWl+1LZXFLFovS1LkXzFap098Fjq5877bDEz08Zqx+Vx+jny+Ob12lm3fdE+rsvr+48ri0brUnlgiYQSehswKg4J+lqVweNj6z56rn1px5WvfuVFudiml9/Mi43WV/G4ZfDwWM7VH+o//k8eLvnX/+A5Xfy2RjasLwjvJVr72S5/7S1kmVjaMOCW64NnsvaWsmxMbTZvkH3w/8wd/sN9y8zZ7YW63SAboyHAkVVSvfS/amUmj4+8eyHD226+pOT9K0yp+0jpx3ntsTuXWpOuvf5Ld9euL00Z3s2RPe3WlSYPsUI3fvS3av1CbMSL1566vDTplfqbVLnyitjflwbQxsWecq1wXNZWys5NoY2LLjl2uC5rK2VHBtDGxbccm3wXNbWSo6NoQ0Lbrk2eC5rayXHxtCGBbdcGzyXtbWSI7EAADnyMQFxtl6YjEs+fOAyn/TBYwsu+zbHC5Nx1tkbcJlP+pIPLsdsjhfG8bkvqq//c8nWs7po0kExHFF079yUkjvUiGhP/rRZLbd9+5NNJ503Ud2GWnZuxL1qMC6x06aqR37/6eHHnzyr+bdjEh1ZncuqYr6kcnRTPlg3Vj35WuusO57u+CHXgU7WlD5q2zVsDvIwT2IyLnPBBy410gePLbjs2xwvTMZZZ2/AZT7pSz64HLM5XpiMy1zwgct80gePLbjs2xwvTMZZZ2/AZT7pSz64HLM5XpiMy1zwgct80gePLbjs2xyJ9Q9MTJIAC3nziu9Ed8Vtrt12afxijHnlcOlsrt12afxijHnlYOzOZeb0K+7puC1TCkV6glUqlyuqylKPmliT6T3jkPorLpsd+flA+9Srjlec69+9LPsv1zwduWr56rZhpcoGng2h4qZd1ZXeUJecMuPLnz1IXfNO1ud9kPsnfRvjNjabx3FXzC/uymXnsNsujV9sqL735+LqN7u/7bZL4xdz9b/zCgtJ2OKE5+KIS59xtMEFz27bceg4PhiurUPbzmG392b9J7abyXfPf/3arbnqSFJX0V84ZWIqbepUl/rk8cO++sUPRX/2TtbnYzl9avTGc49X54+rKxQjVJ9mSZhisEZ1lxrUnfNW/ufjW9QROGZpsV/oN8YQkzwZl1zpsw5tO4fdRm7EoZN1wIF1cW0d2uDaWrRhwYOO44iBA4u45EqfcbTBtbVow4IHHccRAwcWccmVPuNog2tr0YYFDzqOIwYOLOKSK33G0QbX1qINCx50HEcMHFjEwe0fsEDwshC6cD9M8lFUxgbq+9Xww2T+vVl/3uLszxdtTDWpSNDQjAVlUkndSI/7nXP46Cs/O03/SdaFz/X5Bv0jG82xf19pTqdZ8Ees7TC1wP2s1zFePE4/9qlTWy6rKG7RsVKOzh6aHB+oV5t6a9StD7f/imqGkHdvHj9ysvXaN8lhf6j+W//o231Tru3Xx36YzPt+6P/+qyYcGB8UOsD2mQMMfFjJRYytHbfbkmvzJZd9xt8N9Rf3mP2/85f185e3lWrTsfE8J12Ferer4/atu+d3n0ycSftYwHHJY3h+lTnl9oXpb76wqu3Yrp52XVlTpY7ZNzp3/8kjbmjeV903h3SSb/t+x/+tB81v73lq42WqcpjK5IMqSr3VHNymLv+X4aeeMFo/6NofxKS1a6K/Oe5XX+q88nHciweNxG2fOdgf8GElFzG2dtxuS67Nl1z2GR+q7/8Aul9/2v1rc23c2f82yU4iRTa2t9p+Nfyw/6n6P/j72jvvWl78eDI+SuVocKgwPaa6d5X+zbcO2ffgar3MtV+PrjJnXHP7qpuWdoXjgephKtWbVJUVFSqZ36YShW51xqzxfz35sIo/Hj1cPyH1Az3+Jca0fO9Xq1as7m2sTgdrDc2q1xWldnX0+Nxzv/2XYUfQXzSeburc/Gr4Yc5kexD0q+GH7UEpp8Svhh/mTLYHQb8aftgelHJK/Gr4Yc5kexD0q2FjfV8J7X81mIS6wGRM+uCVs34a1EAOyQUmY9KHppz106AGckguMMRe7zBj1+3InpKhYSpZoJnn9MBysWerPuuYaT/0Gqx4SZnfzF0xd1l3Il6gK6BeE1WhunrVRfpMbIwp1ExTd76w/YL/+4clj/7nk/nvv5I1U7Evdn2OY1/AYTtd620fPWLSNwK5Ln4eURt69jAXjKm1HYHDHtqiDndpoEcNtCUXmIxJH5py1k+DGsghucBkTPrQlLN+GtRADskFJmPSh6ac9dOgBnJILjAZkz405ayfBjWQQ3KByZj0oSln/TSogRySCwwx5z0sm8SJZAw+CtgWyTkOv5xG5gAXWsZkDL7USF/q4JfTSD240DKG2MK16qJ1bcV4TiXo2LQpFtNqdHMic8asxHXIIXXsr96s5mzI0AVObTU96FwypVyPylIzFzaqklL39GiVjI9RG+NTQr98ZNP//cHNyVt/97L51DJjqpAT9TkffGCwcw5Vf588unpNMd+mQkF6CCigzcaeknpuWemzXhpopQVXHoeMwZca6Usd/HIaqQcXWsZkDL7USF/q4JfTSD240DImY/ClRvpSB7+cRurBhZYxGYMvNdKXOvjlNFIPLrSMyRh8qZG+1MEvp5F6cKFlDDHngCXF7LuE4EgMMSTntvSBD9bKGnY+iSGv5Egf+GCtrLF4TdvRHYWoMYG4DtLiVaVsuzpu9tjvT2rQG5FX1mR/ycruk4O1TSoTpLtdNOBURINqdIN6Y0xdLlXqaDf1UfqJj5J1mYjKVY/Vz63LzPjDPctvvP6err88uNqcIOvL3FxPYhO17jrhQ3WXB4oddIlM87N0QCdpKZsVm9qPkzzs50Ct1PrVRz7JkT7wwdqh+rt/40Efyr5BTPa59IEP1soadj6JIa/kSB/4YK2ssduAJUEUg5WFwHNhkufyoS2HITes5COHC5M8lw9tOQy5YV8xpm5tW2a/XlWlA0Fa24pml1fpjDpguvqnKxdimXy4oTsTUF3ZoEoHYyYYKqjTDlBXX3JM7NMnH1D5YE1hjYrSwBejp6RD9JNjMEwTJGh6wv0vb//4VXeve+iqZ9QVT24zM5CPLY4B+wbskIlq3rDKHK38kKM1tuh7IQ2S7T35Yc+1qkngQIu2tBJDblgXz4VJnsuXNWxcYsgNK7nguTDJc/nQlsOQG1bykcOFSZ7Lh7Ychtywko8cLkzyXD605TDkhpV85HBhkufyoS2HITcs8/sGLJlAgq6EiHnxOJfMx3y7bWslbmOoZ1sv3jtZv3WjOoTuO1WnacYV91wpp/SkhkB3vVat2D9X/apEvBguaROjlRZodietJpo2DQFlLt1X3/Gv50bOOPfo0d89cJR5uaawWQVz9HWOrsoCsXrVq+rV2u6qwPUPbfzOr+Zuu+lvy8zFa83OaRBex1+XUKkpo2qeUfRkNM19p1tZcZVMmui6HfkTsI+29r3S/9h/tvYxAHP1vzw+l1biXnmRH9aLN1T/nf373zdg2Z0vP0D+gOw2PjRXnHPZ+Vx8qbX5Ens31d/U2ju5txiKmXCVKhSoW2htq+ktel5TXPXgGF3Hr3u7TFWuV1fQYzR8FRWnO1mp1m66faXUNK1zXzk2+pOvntPwydMOqf/d6Kr89lAxrVPJrIrEG1Q4WqdyoUb10ubQtKvu3HrdlXdkr39ogznaq18mKNW7/6imp4u8lANtkUJIFTIRtaEjN0X2q/TfK/2PPoaVx4CYq/+BSb70h45/16kKsm+47+y2qz8Re6f7v2/AQjFY+wNE295xxKEDDos4eLAcZ9/m2Xy7bfNlPuYCh7X1kr8n9dPZ7KhMXqtwXPOARcOOUSPqgqtokOgbsFAXFvUjpYyJ0xsmSGYCBXowOl8wdTWVtCofrdj35nZktV7+k5PjX/z0OcMuOGhGw52BQIhWfKCZ67yoXyBuAlUNpq1Yr554ZdMZN96/4m8LVmROlMfDabgubcWWhujyYiHXl5kLlIpB1Z0tDpd89u397BPQH5LHMbRtPuLQAYdFHDxY5LR5Nt9u23yZj7nAYW295LNv82y+3bb5Mh9zgcPaeskfqr9n/d//F0Z2ODrajskOtz8U5gKHlXngS53Nk1g5vouLfLDIIa3U2TyJQSNj2zoaRtEqnyZAV0oh+o5XDBRNfUV8E+Xhye6ex99Dq/N1ReiXwCAthhwI0q2vsM7lA7Qm8k6drHXxCP3wzR9TZ/3otM6vnThy4bNVmZfoiqxT08J+uhilaRDxCeaFbU2jrnig9eaX3/x6CD2Op7FCbY/R8ja0BLNqTyjVGi+qtu7eMcyTxwM+9BJzxSTfxQUOixzSSp3Nkxg0Mib5Mg4ucFjEpZU6mycxaGRM8mUcXOCwiEsrdTZPYtDImOTLOLjAYRGXVupsnsSgkTHJl3FwgcMiLq3U2TyJQSNjzO9/bIMJdgKvGCdxcVHEtl58O+7K6YrZOrue3fbi23FXLRlLZ5PDC4WSLmm6AUU33FlfVR3r/3XQrtvfNn0XYzSVs0TXWBSlcYp/xvOq/2bNq59PmTsfeEb92+NLuk9P95bGBukeWDZrdCwUVD3ZQv3C1WoOZZvbX+dNp6pabQvSjwKUX9GFnTIFo/LpbLPN86ovefL4Ebd1iHtZL74dd9VyxWydV13Evfh23FXLFbN1qONlvfh23FXLFbN1XnUR9+LbcVctV8zWoY6X9eLbcVctO7bLFRYKciL4LstJwIF18RCTRaVWxsFlWy6nzFGOy/lkHamVceZh88qZSSdr6Rsdfa8LK3qPBL9LQiX4aecyW1AFDE2L4l4jLc3D0vSUcoBGHoq4pKh/aEJv/MEJ+qufO636h7XBbpVLF1U0Rq+rCGnVq8P6tW3qMHBlHlrlpqvE3zbpljvVVQFaKD6fKlQy9+0cP2rIHK764MHK45RaGQeXbbmcMkc5LueTdaRWxpmHrVxOmaMcl3PKOlIr46jNtlxOmaMcl/PJOlIr48zDVi6nzFGOyzllHamVcdRm65fTOWB5JZJJwYGVmO3bO1BOUw7n/ODA2jVle2/VL5XyeUO/vPEvhH1/0OQBWlJ0l6tUWbffp3Gi72dF+pJGIxVfXVGz71tkP0U68phebDUHbdikjk+n0/TOQrpSyqYoQ1El4iEVj6huyUWObFKF6KKK+ojeKkblIrTDgXypv6BLAy3bcrjkDIS7t/rftY9D9d3/6Mm+ej/1f/m/bPLILZ87Qp4wdht05gCDBfZ2rJ3LbiP33qpfGQu2BcMR/mLH4w79S0BvEuxMtqCOV30aNujaioebCH9Joy+EYRpyaLaoz8arODy7Rl1y1Z3dFy3akJ6Si7aoCL3yq0RDZkKnVL51jTlyn5ZHZArU783TfAh6KSsXo92ka7GSSYSjXbIfpG5PfdSD3m4jLut6ccAdjLVz2W3kGqr//vj7x5+n8wqLP3gGYW2f27zxibDT2/mn3XZhfhzwUReW49IHz85lt8FjCwxWYraPWrCMs19XE98eDAbpcRzquL4eosdrksHh0Hvlpm+PdD1Fyxn3XfOQlr4Z0kyrXfoOOdjev8Kc+buHt97y2/tX/PzlTdmpmXiLCiTo/YQpypDpMsGerWp4OKfplfaLpA71O3rViFCEJrbSVuSnoKlcfWW0714bOFJn+zhuWMalD76dy26DxxYYrMRsH7VgGZc++HYuuw0eW2CwErN91IJlXPrg27nsNnhsgcFKzPZRC5Zx6YNv57Lb4LEFBisx20ctWMalD76dy26DxxYYrMRsH7VgGYe/y4CFIJLCskD63OYN/J2tnX8iBisx+F4Y4qgFyzrp++VBDlhwpfXCEEctWNay31hbsSkSoLGGpjTQ/W9DbxJUW3YEJmw2hn6L27khByzi/G8DD++hvv9oboShdY2t7bFOc/B3HjG/+8UDrX+577X8ydtMk8rFqxW9T1W1pfM0Jytn6sO9ev+WyOZPnXLUl2fRm8OsFOo1YyJbO3JTafYpvaa1QP/RUEljV1NNxRvg7r5vOxHEcdywjErfLw9ywIIrrReGOGrBslb6yAU+2mwRg5UYfC8McdSCZZ30/fIgByy40nphiKMWLGulj1zgo80WMViJwffCEEctWNZJ3y8PcsCCK60XhjhqwbIWfv9XQiYj6OWzUGLcxoY4crBFDBZccNBmKzlevs1z6ZH7nahfXRFaFgkmC3RtFArS+EP/qde35o85eoeqpX1Oc01XfbrrxddjfEVFt5Xo7pIu0ArsNNq9uS02pvnZV9TFv5/b/ukFq3unlKLNOpRopFfa5+mbJ704ld4b3WA61czhza8cu++4G/ZvVAuOH6ef4X5CDtFnlZvbk8fuvIdFpQJBE6JnCutqYivBxT6izVboPX2b59IjN1vkhAUfHLTtvJIvfZvn0iP3UP33Z/+HcELgg+aTwMv3w+QJghMJeWARl/a9VH/iePVEdcR0JUL5+lI+rCN0mfX89tQ+JxrVPFVrutB6a9CXfcULNFBbF4p0lRQq6nwxq0ycu97om1arC677e+Gz819Ze2wqUENf/ZroLdH0LGEurRKhgg70vqH2aQpmjz6o5T+O3D9+wxHD9KvoP9mv6P+XMqrypWXrjw2GR9ALMeg+Fr1FOhKNpMePjMyHTlrss50LHBnnmGzbPnLZWskDBguN5Hj5rPHCOI5cyA0uLOLSQiM5Xj7rvDCOIxfygwuLuLTQSI6XzzovjOPIhfzgwiIuLTSS4+WzzgvjOHIhP7iwiEsLjeR4+ayjx9Z2vQ+FBDKp9CUufebIXDYmc0hfajheTidx6bNW5rIxxl2b1DDup5uZ0G985q/t61dv76gPRmpUQYfVxnxcrdquZpJ0kcwl8wRMiZb5MyYWC+tCia54Klv0K+uyR13eZg6dtyB7Xoq+2GUi4+jTCKsg3e0q0aTPGp0yVaZHH3nwqDvmTKv668cm67vt/ZM1GOP6d2wxE7d10Vt06J2INNtLZVJdqqEp3jVytHqBOfYm95kxO6fNl7j0mSdz2ZidB22p4Vg5ncSlz1qZy8YYd21Sw3g5ncSlz1qZy8YYd21Sw3g5ncSlz1qZy8YYd21Sw3g5ncSlz1qZy8YYd21Sw3g5Xf/XEiSzEyDOidiXOHxgsDYPOWwr+cCQE21YcCUOHxgsa4BB77KSD9xLB+6+o2ueaEpktc73qqDJmUy0ST27NPu5F42hnwLf+oom87Q0VywrFfM6RfOounMB3WNq1PPrw2fcMG/Lea26Ru0oRFWJJnoGqYcDOXolfTdNsBqmX/rySRMu/dzpVRfyYIXcMi98YGyfX6I+laH88Xgd7V9J1VdE1JjG6DPjNS0rYW3QyTByyhj74EocPjBY5gNj32uTfHC8dOBKHD4wWM4FDHldVvKBe+nAlTh8YLCcCxjyuqzkA/fSgStx+MBgORcw5HVZyQfupQNX4vCBwXIuYMjrspIP3EsHbv+AhQCEbGXMTuTCmCPjdg6Zm32Z09bZWsn1wv476h84NXBfbSCZjxiaF2WKOkwD1qurth+5fqk6xqv+6OHqvgi9/itUTKkaWvevO8030el3xorxJkl3thLVMXpYJ6vynevU2Iruros/MuGKfzuz8bwLDlLX0cPRvXZfeR3/sz1qyrOL1l+sw3U0uZ2unPNJ1RTPq2nj1L2ssTfZp++V/scxyP3FcXj1PzS2hY7jMh94Mia5Nh/YUP13/u9//4CFTseHxdYVA+7C+AO242jLD59z2G3wkJ+tKwbchf131N+vRT07vCK/IUYDTIBePhHI0uMyqah68LntP95oTNzeL24fPkwvmT2t5Zma0g5V6s1qWpymb94oDVk6ES2pVOcmFc6tVR8/vOXGb53b/IlvH6O/P71Wr7Zz4djZ2hgf+9wni5dv7aB59aFanc/ndSKUUQ3B7d0HTVQP2f1tt+18rhp+9Rn77+h/7INrf4fqv////vUPWDiBbYsTBHGcmIjLtjyJJJ85EnO1wbctc3lD3PZlW9aQfOZIzNUG37bM5Q3x0Vqnjz106tURerwmUMr3vZ0mGKpUC9f1HnrPi+r8ney3+GiffVztZYdMCCyszK5WPHCFetpNsLtLxTpeUXOmVT735XOmfu7cj8UvOm6kekzWgx71vbCb1qhT572w/pPRxHBDj+WYEE1rCOtuc+SM5j8eXKG37K3j96rPcVlD7q+Nudrg25a5vCFu+7I9VP+t+9Gyv7iPZN+42uDblrm8IW77si1rSD5zJOZqg29b5vKGuOtn8Z0MSbJuzPcTyjhcxN5RL4mL27+T77L6PO/qezf3PrdwbWr/nG6k3SzqFN0oH1+bS37n3OZjTxqhX+TjtI9pAa0aOv/1jkvWvNF1WDajAqNGjF41c3jy6akTq/+xX7Xa7YpqoMf/cocZd8Ut2x59ZVN0YqyiVnWnaKHRig4ztbmz9RefHX/Aflpv8ep3xO19xf6zHehniFywrpzAbOviDvT47Vxou3ICs62LO1R/9/vWdr/5tV196sV3cV393zetgZO4TkoZkwntRBKTOyT1Mi75di7Jk3o/jcS89DIu+XtSn6a2p2cfWvnjJRszN/fQGySiVTWqRFMSVm1bXfHAI93Xru01p46v1Fvl/nP92fTjIJkvP502YwMZemSmVm2apar7Jn/aXObLmNc+r6UfH/9808Lfr1gfmRip3p/X0FI8yb1Iv2EeMXv8L12DlVcurim3gdRnvsznpZdxyWefMVkLXBnz00gMWq+cHJf8ofrvrf7vv8LCB+31AcoPGVxpy+GSy74X/71U/2+3Pzj3u8tOPoNmI5hUvqDjYXrlV2aLOn7miDu+cnr8MzO1TtrHjfbeOv4LnzDXzHsyd1kgZOhR7JKK0xyvqnyXOmRk6JWvXTryaH4xBWpKu7fqI6dXPuC29eJznLlysOK2F58x3srhO1lv/enFH6r/7u7//ntY+Cj5RMHJgg+PMcTAY1sOt7kD4b+X6h961Ox/mzJSLTOpNrrBXeibqMn3s15+dcOZv795023LkmYE+oCPfW8eP9/g/9UjrTc8/nTxi7F4RPMzg7QYMr3EIqnGNIe7z/nEyIvkYLW36w99/kPn/0DO5719/vcPWLI4imCQsjG7Db4dl205EIEvreQi/m6vP6m5Zs0lH1UX7tPYngpmt5p8mm5MBVtoDfbJ6ollgQ//7M7MHU+2mf34ePbm8dP7CkdcOVfd+ftHOi7I0vNBXekcPdsYNJW0+FV9uKP4iVNGnHdUk35J9unerC/z4rNia8dle6j+WxcCss/gy75C7N1+/mM/Ye1jkO299fnv9pWQi3MhdBZ2BhY74cK9dDIufeS0rR+HMea/m+rfttac++u/Lbxle6ZBRevGmg56+XJVjNZj79qqD5kUe/XkQ2r/fPxM9Vv+hdHv2NAPXhyO3/q6uvDO+Zu+sLSt6tB8uFp10T85FdQjhfbNqjnYpr5w5vSvXjRT/wdysZX5pC850vfjMMbcd1P/Y9+99lvGpQ+dbf04jDF/6Pjf+kUS/efVbzIufehs68fp63wWeJG84igicekPNqetdeVHTFqpk/5/d/2blpvP3PTwG39euDGgIjX0HB/1bJwGk1z3FjWyIaTGj656Zuak2C2Hjlf3zq5V6+0T3t53HCPHX0+qlqUb1ZwFr3R/+uUN7Ydv7tXVhcRwlczSY9jBkE6YLjVMbVYXnLzv1z9/iP611Np1vPrFr74rh6uGncNuuzR+Ma99hcbG7Xp2GzpX3BWz80MvrdRJ309r8wbL/SDX7x+wZCe4fNnJ0vfrbFceGbPzSMz2JVf6zLPbttarPRid5Epf1r9tjTnxr4903vbqxnRtorpZ9aayJhgI0nsrMvTQc4HesBMqja8tvTaywqwaM7zyufGjIy9URVQHL2lcF1S9dBuqVCqqyva8qu1IqbrunNr/9aXJI7e25Se19pYmv7ZuW1W8cZgysSrV1plUtXX0sHTPdnqta4/6+vkTzzp3or7D61hdcfs4XBzEJFf6jNttaMrZwegkV/pD9T9Y/T/gAUuefPYJIzE/39bZbT+txPaWbm/lkfv2wCZzxI0Pb7z5+ZUdo6P1E+n9y3FdyPNKoRl62JDWwaKb4iFDSypUhFRjQ80OepFOKhEKpSpDhQwtPVPMloqJZCkQ70wG4r10ZdXdmae1aSK0+FaAXi8WVblS0fTNYo9EVLKrVx3ZsL77/DMPOusjE/Quq4/KfYJvH6/dBq+c3Vu6vZWn3P4Ct+vZbfDK2b2l21t5yu0vcLue3QavnN1buj3Js9uAJZPYPh+I19cDyZUHbMfttuSyL3HbZ/y9UP+ZXjP93qdTl81btO6yrT0RFatuoXWtYjpDL17llUd1iB5LpvGJ3x1YDIQNLZis6TlDYwpZXaTvkoFohcoHq2i10LCK0dvmC/TOCnpRDslolZpCl4rkU6qqlFWHHzjhrxfOUr85YLR+XvYV9xM2O263wYOVuO0z573Q/zgWtvIYXG3JtXGpZZ/xoePf/d6V3W/cxib7kGN2GzxYids+c/o+BAlACOuHgfN2rV8NP+zt1oXer4YfBr3LPmZMqLhdHfuPFzoufvT5led10QoKKtZEV1yVtPAfDWIkMvmCSlfTesn0K1+VDqkiz/oMhWiF0Qg/FK3zJVo+NBzSdFFFAxW9yTndRr8C9pjD92l86CMHNl4zc7KaL6cuuPZjIDG/Y/TDBpJ7IBy/Gn7YQHIPhONXww8bSO6BcPxq+GEDyT0Qjl8NP2wguQfC8athY7tdYXEBm2THXHi5HRuMxsWVMemXqwt8MBoXV8akj/xelpYsrly6Qc1ZtLb00ZdXbD95U2t2zI7OogoHq1V1VZ3aGCjwW210LU1PN9ki9X1R5WiVBRWha7FAQSW721QNvR5n1LC6rVPGNTxwwAR1/6xhasFBFXqzV01XfDD77OLKmPRdtVyxwWhcXBmTvquWKzYYjYsrY9J31XLFBqNxcWVM+q5arthgNC6ujEnfVcsVG4zGxUXMOWChIEhos3XFJG5zBsK39Wi7tK4Y+LCSI33gA7UurStm55Mc+CuNifa0q4k7kmrUK2vVnKVb1OzFK1uP3UrL0/AbvyK8gDI9YJgIZ01DZbG7KZLrro+kN8wY3/zcuObY4yNHBNe21Km19IqelNfXEuwHanJb+sAHal1aV8zOJznSt3nl2i6tK2bnkRzp27xybZfWFbPzSI70bV65tkvritl5JEf6Nq9c26V1xew8kiN9m1eu7dIOaMByCVHMDwNnTy1yw7ry+GEu/mBiyA3r0vphLj5i8zNmwrV/2fr0Y23DWuiiSodo0KoMZ9WUUdFXzzpBfXZCpepuDqhufibRr4Yfhlp+9onNZl/6Rrpfd3e+KpXONBf6VlQOdyYS0XZapqtt3Gi1cJJSO7wGybdb32/fkBtWcpca07B6nTo4k+poSmdKtamirisGo5lYuGJHVZVqH92k1s6u7Ht2U8oG5aMurEvsh7n4g4khN6xL64e5+IOJITesS+uHufiDiSE3LGt3G7Ak6Jd8oDxXDj+tHyZzDZQnNfD9tH4Y9GwHypMa+NB+87ePL5+bPGafEt26CtJjNXF60cS+w83KWy5u3gdcL4scXrhffHHKjJq/Vl323KLMEW8UcpNz2WxTLp0LF3I0cpYC9LNAQMWj0WI8GEjXJEJbmmsji2dPiz54wBR1KxYUfDv1/bRlsNDdK9SZz63s/cSKLcXpPYXgSF1IVqbzxUC6SD0YiNKrIkM6EtS5poRuG5YoLp82IvrMydMjN01r0K+hT8rUoLHZfWMZerZ+OSTP5ftp/TCZa6A8qYHvp/XDoGc7UJ7UwPfT+mGs7xuwypFQaCCWc/UlFh96ufzl8IHUBee9VP/K6x96+drWEw4oFYr0Gh6avJDbocYmdqgHvjF9t39IcHzlrN/xExb468u579y3YPVFr24PjssF6vW2cAW/EYzW9dIqFgjRKqr0/rJ80RQK9PaKEv0gQKNpRbSoasKpwrQxiZc+enjdL84Yq2/32g+/+n6acoPEvLXm5EdeWPXtl9YmZ7cV62M99K7YnmxQRQN034/W1lc0mS1AJk9frfkfgEAhRf8A9Jjh8ZxuDie3nXLYpOuOOTz0o8maVl60Nt7ncvUtiWfznTp+z4IW8H6v7/yLYX+Adht95BUHDgseLMelDx6sjdltLx7itoUelnHpe/ER9+J6xaGDBQ+W4+z/9Nbn5v3XpsOOzdPPgRGakBXJ0K+AxXXq8ktnHfKRN9fUAtf1F0rmQy2XZd5j29WMO+a1X7tgZdchmUC10pGYyhVKKkmTUA1Nm6BX2esg/U2n3ypplj69NjFMr1qkAYBfF1akr6uafgiIZtvUmIpk8fiZY/764UMqvj+jXm1y7Ze9D9hPWL9jsjH+0eKB+ernj764/vzWTKQmVYqr3kJQBcMVJhwN0APl/LJY6s4CXRzSr6qG9l8FAvT/gA7SS+zymS5VFcqrBC2aOHN01eLzjh/5jZNG6X/KffHaX8S9uF5x6GDBg+W49MGDtTG77cVD3LbQwzIufS8+4l5crzh0sODBclz64MHamGz3v5cQZLb2SYi2FLp4wGGRE3pYaG2ezbfbNl/mYy5wWFsv+ezbPJtvt22+zMdc4LC2XvLZv/KuV4tFfqUqDSj8FHo0Fqd1akJm81Z1KjX7FgHkHNB55WUOb8Bhd0aVenBp66m3zN9x3cJNoWGp0ChauytuTC6twzTHK5+hV+vQX/Ywj0p8RUUv1sjxmxNppCrm46ZEgwKNayYaqlDRcFi39m4IPvrUaxdm21v27Ths7JepRv/beFAXFvWx/7AcZ9/m2fwVdJ/vDzdt+92zq7pO3FKoVsHKYSpN/8TSDBBaBlrRkwRFRStB81u4dZBHLHptLM1XozcPRWg1MDo2OiQVr1FJGsYyNIXkuZWbZ2S6tsyd+3LvV6j+n8vVt/fH5svjYS5wWFsv+QM5flvvlRc84LCIoy4sx9+z9XFQbO0D9Yr5xRnz21w1wHdhrhjzveLI5WX9dC7MFdtb9a+8bfEjV62ffEINDVSF9jQ9xMz3j0pqRnNx+9++UEU/CHofp9d+2cd9zavmkuseTf/H+u54LFJJgyJ9/SykdtDbdCpVextdMekNauKYxg2Tx4TpbUClbTGt24s53bBhhx67flv2xJfe6KjJxJtUPt5IE1rraFCjaWMZQ69O1KquUa2/6iR18al0xWLX9Wr77bfE7txujvzbPHXNovVqBq+gWh+nQYrmoxUznSYWzuhkx1o1fmxL4dgR+pHqeHBdU3VxWz6Xi3X0hpo2thVnzXt13QG56lGqJzJMFUP1NIjRcEZLJebp6+LwilLh40cEfnT54fqHcj9lfcRdMca84tB5WT+dC3PFPsj1nV8JvTobca9OBG5byffybY1fW+bw4wGTfC8f3IFYmWOwfKm98u+LH/31xmnHq2xJ1fIqgBn6bkZ3YZoD7fqSI5u+9pljYle78sscLhyxf7xqTv7VP1Y8uCpZp7I0aZUuQXQ4062qI70qmu8xJ8+Zch09jH1LXaVaN65GbeHVJFjL+V+ia5Ou7Wr49m514LyFXV98cfW2Oa3JEF1qNapgpFpl8/RWah3SpwxfsuaCj8w4/7hh+jnUta3cXy9fahZ0mcm/uXPzLYs2Rw7sKFTqWCKmQnTZF8q1q0B6s5q1/5jn5xxT859VUbVoZkRtnFCneuiKga+n1GM0Ybdqh2rqCaqJTyxWp817+Y1vbeqiq7BEC92XC+lohAatbppf0pwyJx096tJ/m6mvk7UH4stjGCxfaqU/kDzgDFYn+V4+cg/EyhyD5Uut9AeShznOr4TlEsnLyXJcLuJ1KSrjzMNWLuf7pT6NTkaX6Jkb+p0iRy+DjkTDurdU1O06oR5Y1PaT1cb82TWTfSDH/8RGM/2/7tp0y/ZeuheloqoyoHS2N6foFWXmkFEVT557woj/PWWYehWDFPoe9mCt6bpGreb/thjzxJNLa46Yu2DdFS++0TmtQA8T1cbjmq9Ynl4XnJB4NvWj13rNp6fRFAzopZWfs9x3GQef56vd8kjhylfX9R5UjI1QsWiYXqZhTEfrCn3oxOotF50y/ZuTRqon9o+rN2Qu6OdozUtO8xr2/N9TD202f5+/KP+V+5/f9umeYhV9BS6ZOO372nZaqufJ4u+eXZtb8qHxkV0G2w/K+efqf+7Hd/PxOwcsrwPhg8EGDiziLmt3QDlNOZxrgAPrqovYu7Y+/UWkCe0qFAmoTK/RxbBWxXBMddMzh6/tSCeuvU9dT8fwCRyHtDhuWInRxK2K/3ND6x9e3JSrDVQOM9FwXJtsWjWHe9URU5vvufAjwS/xW6ylRvp2zuFatxJ+18PbzbrAI+3Xzn9l/cGBqrGqWKA3M1ZN1E8s2XripPpRXyLO92Qe+IPp/ycXqW/f98wbn8jqWrqKox8A6BfKVNsmfdyBo9ade2zFJfQL5aPIy9beV4mxf/II/RItePilioqR3Xc8uupLmr7apugfiDS9wLa3Kxi65Z9Lb6eXikwZsXOA7pOXy8kkcGD7hB5/DOb4ZW6PdH1h1IX1476f6vO93j3euCOk2G4D404FBgvs7Vg7l91G7ndz/RDdU+n7GT6hVZKuDfgFEnlToVKVzebul9d//AfPmitxHLa1jxftp15Rpzy3tm12vmaY6g7GdYruoCdoafcPTUk8/vkPB7/oN1jZNWT7pGa96HMn1H/u+Cn1LxVT9BB2lJZmpqciO9IhtWDZ1s/Po5UqJB/+QPv/hXaz/wPPpi/Y1lujQol6Q7/00fOVSTVpWGKba7DC8aKO3UZ8qtY95x2tvn/Goc1/DRV7dI5+UIhGQvxAuXpqZXbU/QvVpeAOxtr17DZyDfT4wR+otevZbeR5P9V3Dlg4cFg+cOnLjoDPljtGtqUPDFZito9asIxLH3w7l90Gjy0wWInZPmrBMi598O1cdhs8tsBggdFFVd+0ghJfafHjhD00aNF1b4l+kcvGGtTdz6z/1s9fMN8caH36StV0z4JVV3WHq1QuSr860l/KykhBj65Jb/7MRysunDqAZxBRC5b3Ff5xLXrxWUc1f3dUbbgjn06qLH3ioYomtXxzpvGZV9Ln47hsi+OGtXFuP7Yo+6WVm9ITY7V1Kk/3x0L07Y6nI3z2tMavnz5G7XZj385lt2WN8Vp3nnds9b9NHlO5XJsuE6KvyLT8oUonxql75q+7Yr0x9IvCzg3HCstR6b9J6/9MvdqIs8W+wUrM9lELlnHpg2/nstvgsQUGKzHbRy1YxqUPvp3LboPHFhisxGwftWAZh7/LgIUgksKyQPrc5g38na2dfyIGKzH4XhjiqAXLOun75UEOWHCl9cIQRy1Y1kofucBHmy1isBKDL7EgXVFFojSHKEcrZ1GZuijdG+eBgO43leheVrduVLc+vvqnV83r/QP0sDIPYgtXqTnPv5Ecl4lVqiTNnQrkd6jGSFv+06eO/9JBcb2eeS6djONY2S5JmdG/ezr743tXqbNR47TJ+qFTjm74daz0Bt2Eozlc0ajqKFSpl9b0nvHMFnOozAWNtK76z/eYaS+t2H5iIRRVdFuPFijsVrmebeqCYyb/7IKJ+mbsU7k8yM32zy+Zf/3DU+nL+YUdrJtUpbd/+ry6c1oSXbrQu40W/KE5XJUNatWOfMUTC7MXQotasKyVPrd5A39na+efiMFKDL4XhjhqwbJO+n55kAMWXGm9MMRRC5a10kcu8NFmixisxOB7YYijFizr4PcPWExGEEImSt/V5hhv4CEHW8RgdzLfKo429NBKvvTBkzr44CHHe6V+kuYH0bxHFQ8HaMpBj5kzU99aVdiqGqL0M3zW0BSCiOopNQbuX7Dtc//rxi1PPrbRHItjlpaPfy29o3DJOnVmt6ZX1QdjKhYJ0q+POTN9ZOKxMyfpueCjj9Bmy3rE0ZcLOs2sK/685rHb5q/9zm/uXHTT717IfxfYwRPVrbMnJhbnUiVNMyVUuLJZrWtND1+4vHQk5xts/y9apU6gXyFHJunrK8+zqkyE1D5jGrYeM1PdxPmwoT7asIjjGP79vtQdf3lszX/c/NT6H1x184b5dB+rirknRPUrxx849m/1lTRFophUXfSVPFg1TD2+aPUlBNNQ+da5bPuuNsd4s+sP9vhZj31HLpm3r4iogzYsNMjxfq0fsA+UOwAHbft22+YhF/N4Aw67M7rrn9BIjpcvc7p85EIF5IFFXFpoJMfLd9VELtYgl4zZGmB9ls5Rwzfa6RkY2lRFMKNnDFMPn3P0mKvDKboCoF8Mw4YW/FM1akdqmFmwLnHUT+Zuu/cb/+i9eUmvabH3s5hWTY89v/rMUGKYigSitK5DVg2P6vwxM+p+v0td0cA+27me6jQH//LGdbev2hKc2JZpUuvTLYEHXth68bOt6gCWH9eklx87peqOvhnw9M9egeZIpXJab23vOoxy9v1DiJywomy/i/rL16SP3NpZjEZrEnSPKa2SHevVMYc2XT+7ftcHmGUu20euH8/NzL3/xY6Pb8iPCKzMNuj5a3pmLXit99MoetKBsSsq6NeOEj+lQ0NUhh5IWr41u++zadU3983OCx1bL4zjqA8+uLCISwuN5Hj5rPPCOI5cyA8uLOLSQiM5Xj7rvDCOIxfygwuLuLTQSI6Xz7qABDmABOy7NolLn7kyl425ctkabpfTSVz6di4bY9y1yX1mvJxO4tJnrcxlY4y7NtJQmB8jCatculfVhVXPRceH//1zHxl1eWVmI93DSZoiXQXk6Jm/thK9zz6dqHz09c5zf3Trxhf//b62W+cuLZyJrzybi6qqIxUJlgphVaIZVTXBoKoLFHsPnqwecNXmmNxnbvN+v5g0B/3ij6v/vnxzaVwmVGuS9IxOMVKhkkU9fGtrbgzzeNuntrRgRGMVrdpcMiW6QZ7RNCmqR099sltNHMTxm2foK1t7Mj4yVYzTPTGeLpZVY+pDZmK9WrCz0lt/yrzSZwYfy0/vTd728JJNZ6RDTfRrIF1l1jSq9mSRfhHMjSd+36/iH2pQy2kt/Q0JvutOG92Dp+kkVWrzDnWInbOPIP6QuPSZIvvSxkSKXVypYaCcTuLSZ63MZWOMuzapYbycTuLSZ63MZWOMuzapYbycru8DlInsBMA4EWMShw8MljXAoHdZyQfupQNX4vCBwXIuYMjrspIP3EsHrsThA4PlXMCQ18vG3nyvoE5EVCherUr0CnueG/WiMVc2VUxcffUdK//WERqpdGVCd9AN+RJNMqU7XfqZLYVRr3RXnf3S6s0fiz8Z23bmn9u7f3F7NpwLVtINm4DmRUpD9AvbhHHVK8ZrnZH1l6fMyAefT38lXhfvPHqG+g3/igb88U418+q/bZm7IRkdU0zQvKVARNPiB3SzZ4ce3RhZMHu/SP/a8WMbQ+taGtXry1ZmDghW6ObRKQAAQABJREFUJ+irbbVa1pnd/4FF6nuvN6pnfvOSicfC1BX0nTdIL9jg/2jvFS2sQE8D0eM/mh4JLKn8k8+oCVt61D6RaL1K03ClCjvUKBonR9AYgv1C397wmrr4qn9mJh09I/on6uMVjAP7wV3tNz+4dOtZm4oJZWjNfF7VNdPZpUbQAoiH7FN/C/Gp7M7P5nsPmae2PL/9/AjfM6R/NAq6Sq3dpibrMe4fjlCDuP0/LMEHBosabP02yQcPOdGGBVfi8IHBsgYY9C4r+cC9dOBKHD4wWM4FDHldVvKBe+nA7R+wEICQrYzZiVwYc2TcziFzsy9z2jpbK7le2HutPs0YNfRiHXr5Kr1kgv8a0PN8MV7bhTaauEmPGJqbozWTt/z6b6seWbPVBGubRtOgEFE5mriZDSToOTq6WV9siKU6MmOjsbAp0HMnVZV1Op0umgANhNXxML0fMc+TP/u317rMpJ/+8aWntuSaW9qSAbNpbfJjNL/q0yc2qVUv96p9/89fttyyaoceU9L07B7dByvQuvMh1ammNJeWXviJ0ZdhvhJ/Xl1dXTtaatX2pbTGPL9srEArJmzpzQRoWegLaiLmgmxPtw6H6aspPc9Dr+GgoYiHKz7UEI1hdHOdXscRpOuyfDGqUvka+ooWUPzcYqhQ1M3VkU11ESr85saf7RX3b7nhTw+suKAUipnHlnR89frV5lOfnajv7MMeSP7pwRc3nLsjUKNNotrkcykasPK6NtChLvv41IsPa9L9z2ZyyoZKtaKGun0HDVU8BBk61m3tatyb5fqMPCffj+efPCZ5rOgDGZNcxl0Yc2Tc5iEvrMxp62wtuP0DFgJIxtYVA+7CXEXBszG7DR7yfxDq/+zvr9BEd01Ly9BfabpxXcqmVDS4c8ASx//Y4oyZdt/TPZ+/e/4rX2sr1OhI1Sh6CUVQhUtatdHXtWicBhZayorGKJWha4hgIqi7U2lVHc2olsbKvgGL+5tyRq6ZX/rKonWmJUlXdKVInX5g4bbZG9LpazccGr/hn0+nv7K8LTKlRFc69NwevZ0nrU2hV+03tmLll04be96cqF6Gz+fNz6vji4+azVGTUoFstw6FIvTcXlx1ZPP0piBaqob8bnoCuUgr1hQDtFwNDbfhEg8Q9IiPoYGMbuAV6CfSPO18pO/xb35eUOloMK4Scb2Olr3pH7DuWmU+fv0Dyz+6uTdADzMHdW3juNgVd2y58ZaN5l+eX9R95r2LWs/vDtDqrfE49WNWJ+hyriK3VX354/t9/sLp+k/2+TaqWa0qZdu0DtGr0mgI5eUekj25STg+0f8y1O+7zle7hsxhY3bblc8Vww64MDvn+7F+37/mfGB8sC7LMd6A275sy06UfOZIzNUG37bM5Q1x25dtWUPymSMxVxt82zKXN8RtX7ZlDclnjsRku28JFLqqoFtAPA+LVhWgkYs2qZ8Z08u/c1zVN67+xqHTPnXUpP9syKxWFT3LVKRzjaoK9qpwoZvuV9FkSF54gdZYSdNyNYFwSMUrK0wgEupLyPXpv2w4HHijqGl5lkSdMTRo9QbHqcUbzdHX3NX12xfWJWcq+pmf5PxMI63g0K0OGhdb9YVPNJ59fLNa0rdj1r7xIg+87zTnnS4YSzRIxUzJRE2Gnv0rFAOGrvXoHlFI5ejKMKuiJkv3uQoUozhhNOOcNCYcpCn/1Ef0zydN+qcrOrpnRsvDUOr+r180L2FbIVssJBL1Kl47XO3I0mAYaI7/6oZlv395vTm/LV9LAxl9hTUxE6d04d416tLT9/vChTP0H3i/7f6ntQpzQfoVNUB33elGrtG0/1SRf/3Y5e+B65jBsTFZw+ZIzLU/4NvWrsFtcGxM1rA5EmOd3QbftnYNboNjYzKnzZEY6+w2+La1a/RfYQFAIrYQs4+4q5jEZB7WuzBwXBZ8tu/7+nSIuQz9RkU3x3m2aLZAUxx0sH+AcRw/rQxsvnbeoTP+37oeNWXZmp5jlmxOHr5+7RuzVS4Wa8uEVTI6XJfoFfZ0xWJ6k1m9uTvc98sX+ppuwN+7/9jQ1xZ2dA1P5RrpZRj1dEVEA1Q0HM3TEs0q12tiQfrc0j1qUkNp4xdPqT33+Dq9GHq2+Iw2b96c+OpiVZOnZSAC9EhRkV+7mC9qXggwWkgZlUzqGE3XyNFSCTSE8JwtGgTz9EWQviKWiExfEjOlTnpRUIVK09fZEM3wp/nnNNLR181UsaY3omroeNu53kkT1YIl+46ad/3TW88J1NJVUa5kwpGI7g6Na2hto4GS1u+K0WDX21PQCZp79r/POegLl85Uf/i83HHht/aqMV3BqAqW6EqQ7qiFTFbVVkc249g+EOef6A+47/bjD8m/FNhpWOw8t5mHtq2RGLRswZcx9iXfziW5Uu+nkZiXXsYl/3+2fsBE6ZKCfmPT2XyapzHQc4V813nn5jp+ivFVwIZ9a9WGD4+pfpgWuIuk1bB4R4eqeW6VOv8PD7X/lK8RaFFAzZdt27t790c+trMa9dJ/tJrz19zYc2d3r6mlsYGuZOhudN+qnXS1ZHK6QL9WjhxWvfGisyvPPr5RL2Sdq8+2d3UN70irsWm68RSmqyb+X4RepDh1rJo/prZ2WahQGynQjHJ6j6xKBmm8onGRLqRUpEBl+tawUqWeyvpSZ6cavWxNZk66p8TzaGmHtOpKZib19Kg6HdNruD5t5qQjq7+wNFNd++Sy7En8UwDNVlfpYozuhzFKQvo6XKAlns8/b5//9fkZ+vdegxUfy78/lp+e5utC6oAg7Q0NqaoqEei/yc8pXf3fV+rNqzDgsm8YxwYcbVjJZ5/jLq6M+WkkhhpeOTku+e+1+iHZKTgYv4N1YZxDdgJz/DbJ/yDX/9nti3UoR/d96JTlmUuRYGXfjfRyfSn7jNZYp5/w6D68Md2hfdV999y69KeFiv1UL61dlc3HVfuOzkm8AoJcGvjUJv34o+vz5/7plofveq7niEQwkqCva0G6ygireO9GdVB9esu3PjbsvAMb3UvGoP4/123Zp2NTzfSwjtKQS4ssF3vUzLqtKz53xOjvnTRcPUv7xXfZ6cj6v9r1f8UTcb2sU428qjN3x8Pbiwe10vovFbTo3ob1XfW93Wo48fq3GbW6gwboT9b8ffXtT66sPLYz2aiTcbpXVUNfNbvbdX1+m/rOqZO+edH0+K9/2K/a3eH9P+PaHaflsgndGdGqPhBTNV1JNbVOvcp9zwoc4+7q3THmlvvMZB7Jt+sM1ffvfz6Zdtm4A9GJ6DwmICbJ5XCbOxD+B6s+P83Wv7Hf10Zfl+svG4+W1OaW4S1dmu5fFWjdYH54eEdPvoZ+rj+SuZJ/wtjwIxedfcoZo+qzvXWRThVLdZtYZrsZXaO2fuaT0845cKSm6VE7Tx7eQ+xT/96Ss61DH7Bh845wVU0VvcWarnboPWYjmqsX0woJTxI/T/8V37Q8nYAvhOjOe1+sP874vnV6XWWktCYRypsafj6Jzso0XWVt2KFmoB7x+vqGBuj2C8/e78x9RySeqA+00mtpaUWH3lZdr3aoC0+f/u2LD09cBS60bOXxP9dpxnf3pBvoJpqqoEs6Q78ohgJ5M2qs4v0eOv/f7Otyn3853Kv/Oe76jBAH5srfP2BJEIVcQsZcXFdc8uSJgPzSSi7i7/v6dNA4VrL8L3vf9zPEBnv8tK5ez/jJE+d1ZXrpl0daWZRmPbUXKyvuf7b3Ilf/nzBBP3LRRxv/Jd75jKrtXqRn1ae7//3CCeec2qyf4n3wq78wbcYuXJz8SIkesuZ133mqez2tODG+Jb4U+y8/U1d98NjuO7b2peGJjC6meun8olVNY9X6n68kz3+6w4yVeZg7XanO713YePbska1bQu0bVW1qvfrS8aO/dcws9UvGsUmdrP/cEvWvyWRJJWJVRmcM/WjRo6ZOqF3XknjrV0nO4Xf8qCGtrMdx2Zb1pQa+5CI2VH/nP1Kyb/pvuqNzuLOYINvSl2IZRydLC1zmk76LyzGbgzzAoJNxxKQFLvNJ38XlmM1BHmDQyThi0gKX+aQvuPxXvu+rCMdsDvIAY8ubjHN7Fg0bS6bq6x55ru3joXCD6TYRvT2ZV2t3lE599A0z54RR+jE792cm67vpiuOQrdtVy4QR6sXplXqbzZF1GONazy1Spy9cWzwilIiqNE1LDee69aSRldumjXprYil0Mp/0OQ+2Q6aqu+YvNJesb+ucEK6v1PlEhVqycdO0l1ZVnHPEIfoq8FB/itY7Xtucnn3knNgBwyrUuqNb9CvAwHXVX0STZr/1Hys/Xwy1qGSapovyG2wz7eaoQ/f7DRYztPcReTivrCHjqCktcJlP+i4ux2wO8gCDTsYRkxa4zCd9F5djNgd5gEEn44hJC1zmk76LyzGbgzyMOa+wJIHFTMTGmB8OHltoJZ99xF1cjkm+zWXMD3fllHz27ZyskTHJl3HmMeaHMwcbtJLP/lvx/ns7kPRZyQcXBMb88MP3Uc/PnhRfmky36yItrlVM1KpVbaruL4+u/jnNng/L+sh5WK1+8WP0+A4PVhzzy8/YvI3qqHtebPvhxkAzP0ejaBqYStBk+Znjqu46Ybh6Gnmx7zKfqz7zZ1Wp5TPHDZvXRAMgzXmg+3pF2vdqNffJ1p/fu94cj5ysR75pI+Ibzh6v7uXBCri0rvq/vKP31u2hUZWtGXo/EP2yWGt61OhaumrbT/0VWuTnNnJIzA8HT2oln307p+SyL/k2lzE/nPXYoJV89hEHj62MSb6MM48xP5w52KCVfPYRB4+tjEm+jDOvf8CSJAawIS6F0pc7AK6tRRsWPDsPcGldXFuHNrjQ2207Dh3HB8O1dWjbOez2bvXpc3oz1v+PAt18R6wPQg7U4KD0GUebfb7yOOVDE78fop/2+dU3/M7BjpRWy3eED/77/e23st6VEzHG5YY4avB663fMb/vV0m3Jmkykmn9bpCsUmiNQk91x+AHhW8HnsPS5jQ1x5OQ4x445MPqf45rCG4vJbfQ+RF4zOq5Wt+fUtXM3/deSHrMv9LYObeQFz25f8UDhD69tyh7RUYyZQCJBE+5pbGxfpT46Z7/vHbRzVVVI+y1yoAYD0mccbXAhttt2HDqOD4Zr69C2c9jt90P9/gELB+NlvQ6e+X6YzIeOlbGB+n41/DCZ/91Wn8YSHqh2GaDk/krf7xhtbP+p6qGTDxrxz5rCZhWm2fNV9O72HcU6c+/iro9/+Y7kP9bSMjQy90B8rvFolznkFw+k77l7We9B0boRffOXwukeU1loVccdOOKPpwzXj/nlKtf/s+lK6agZ1X8ZXZvlB5BULkcL+NU3qTVdgUnf/dPWJx7ZbI505beP3+Zw3W/eWbz18ZWFS7oKMZWlmfAmUNAZWi/sgAkVbXMOVZ6rWSCXXw0/DHq25Y5fcm3fr4YfJvO8H+rvNmDJg7J9tF0dBEx2EPsyzjq77ceXXPbRfr/Up5FKDlbS7+sWHC/6Ee1yx8+vk//MSfVfHxFqK8VpqgFNLjDZUlz36ib17OrUKd+5bvuiR+hNyuXyoB7X/+tr5tIr/7zm8efWdE8N1o9VSZpMQc8uq9rSZn3YlJr7Tz+u4sd9O239IXMM5PP/6OGBH8+elLg/ke+iZwFpJjzN8UpFGsyK7uqmH9/QOv+ap8136Y0+/fdeUU7WQYztk53moEv/tvXFecs7z1nVZmiN+Apee8wEC+2qMZFUF509/cR9tW6DRuaxfbTL9RtysYWG/YEcv+TbPtof5Pp9AxY6Ap3KljfZwey7OmoncycXvrS2xm4z94NanydS0uHj62CflYMY9xX6hn1X36GvbezgSr3k6+ceeI7KtJpAKafD9IthPFJhugtRtXhLYcpPbt/44JfvNg8+s8Mcihqcy8oTuJee4bvs+vSC/3fb5t+/kWxKRCKVJlDM0r2EoOqhRegPGll845w59f9XrviAfXLks/P3UWX98bSyxAVHNV126Kj61cHeLhphQqonGNapREJtDtSrPz264UfXXN+2+NbXzEV8Tw61rP1WD24x0654vOP6H1y/5IXnN+UO6lYV9LgPfRWkDo7R5NhEcp360ieaP3VIs35Z1pd52AfGvsRQF9YLs+N2m/Wowb7E2QfGvsSYKzcvzI7bbc6BGuxLnH1g7EuMuXLzwuy43eYcqMG+xNkHxn7ff0yyNyYxKOMyJn3J8fMHo3FxZUz6fjUlNhiNiytj0pc1/HyX5me3Lb7/2lUzTqWJo5pmhKu60mb13Y+OOP+caYqXQtkr/f9fC823fnvbsitLlcNpdU1a2bSmhs4Qeu6PHgnit1+MqVhpGqpqtjbHq1fF6EFDFS7SY8Cq2NObqmzvLk3Y0hqpK8aGq7ZimJZ+IX08Ty8z7SZayYxsakx983hzzqlTQp7rbaFPXMcPzLbMfWyzOvyP/+i649mNvS35ihaaBEsPTNPyFLXhvKoOpFSl6ja18WB+Qp15TUfiKXpOh+570evSMqlSdzK1T1s609JOU+zpRfUqRa/3CkdrFa0LSO9jpHcy9q5Vl501/SeXzVaXUz/3TZSX++DaVxmTvtT5+YPRuLgyJn2/mhIbjMbFlTHpyxp+/mA0Li5iu11ac1H8ZQHJK+a1g1IHHzm9NDIOLrTv8/q4wurrAr7C2pvH//kD1c9H10zd8JMbV9xUDA9TPfRUcihK6y8H4vTrXqV6LTNFxwp6eLyzRA8hFviSj4YLmniqGmlqVViHomFaxSpEj0LTL4FxelaQxrpSaruaPSGx6lOnBz55chO/c3XXTX5u8HFMuzLdrTe5Ty/YaI4K/CMzd3lbz36dtLhfsJK+JNLrWzvpV8S2UlSt7S2FN6eKBxbp2cQCPZdToquxAg1QhXwFXQHSjgYjJkP8QCRhklmlebCrK2wx3/js9M+etb/+yxfd5YfO/zf/scRnx92Ez0/GPLqv74rJ5qPtpZFxcGUtxJwDlhSz7xKCIzHEkJzb0gc+WCtr2PkkhrySI33gg7Wyhp1PYsgrOdIHblm+kuoftAK8dJS1yRp2PolBJjlv+jc/0mq2XHXD5gfXdnbQE7/0Oz7d1s6kaMmCilqe8K2zdJ0RUHm+3aWLdKViaOmIEJ0dvGRCMZnWtZVRukJpM9nUFvOx2ROe+MyJlZ85OK43DLA+dm1Q9rBRalXtJS0fuu6mjtvnLVx2kik10s8FcZOhS9J8uJqWlw6pdnpZB41JtCgzLyBGjzHTK+npSRsTpvGKfiXVlfRQeU9Hq26uCauKfKv62icnn3bWFF32ilDuqDxG2bfMkRg0kiN94IO1soadT2LIKznSBz5YK2vY+SSGvJIjfeCDtbLGbgOWBFEMVhYCz4VJnsuHthyG3LCSjxwuTPJcPrTlMOSGlXzkcGGS5/KhpRluPFD1D1bMpfGhv43csDIXcrgwyYN/Ij0/SG/AmXzHE6lvz1+08osdpQT95aYliXWlphkE9IRyRtGbxWjVA7o2oT0o0LrM9G53VSrkdYK+gunObWpaS7D4kY9M+epxB0SvH0WTGTj3QOtjP9hi32UMvsTezN1DsdPumVZ37j1Pv3bNsq1bqwORBpWkQTWdDpp4hJ8GD+icpgUB+Q0+vCYErxVI0+Vp0WmluraqSdGUOnpK/c1nHzv58mk1epWsgbqwEsOxwYLDFjwXJnkuH9pyGHLDSj5yuDDJc/nQlsOQG1bykcOFSZ7Lh7YchtywzO8bsGQCCboSIubF41zMkbjMb2PclrjUMea1efHei/XlMdLl1S73riQm/T05/ukJvZFy/OuCNvPT59eos1Zv7J7z/LrtJ5QCeXqohu5c5WnCJi2mV+hbYLnEqxioMcMat08Z1fKPWfsMv3ffCeoxfpZP7oftvxP9T8eapzo3LjZm7prV6ujFq4unL92w/dStbV1jUukcffkL0uo8tCyyosWcaRoH34kf3tSoJgxvfHzG2MS8Ayao2z9Eq1T84M2dtfvug37+vZeOv2/A8vsA+TOWB/TmZ95nXHE7lxdfam2NxFhvt5HTFbdzgWvnkVpbIzFb55UPcTsX4nYervGz2/snaPd/LeRLhHe6/uwG/QbVuFodXH21UtXBVfTui23b1ZRt7aX9UtlMY6wqsWbYiP/P3ncAxlFc/c9eL+pdtiRLLrg3bIONwcZgwEDoLeVLBVK/5Ev/p/Llg4SSQKghEEKAQCC0hG6qbVxxt+Umy7KKJavXk3T9bv/vnfTOT+PZO8mYNLRgvfZ7783O7s3Ozs7OikNFOeIwPO/vx1d+VPsllxP3UYWjOuB4zss+3Mbrbbam9YO8Ev8BxnJQFMLHK0Rpc4MY39btnZXmcLUV54iDRZmiot8lOqbB3SzEhrVTBy6iPC7nh5uf9oMoj0E6ORbpkXI852UfbpP9jOKRXo5FejkOzyH7cJvsZxSP9HIs0stxeA7Zh9tkv+NuCREgByBZDkR69MGN7EQHtMficTzyMk7Gy7KM5/EQS3aisj/H/yvkv+P53dgbjTdWsX0AmZcTdSQb7RdicCM70QHtMX+Kg3q2/9C1Em2D/9ajzWgzikt4shMlPeUlinqW/7geJccRFimPCxgsN0wyi62Eugfoy2QnCrrYRvGIohJ5GTeAPlZfsizjeTzEkp2o7M/xo/lPrP6HDPBiRVMlE+U6XuFcT1iyEyU9p9xPxnEb+XAdx3M9YclOlPSccj8Zx23kw3Ucz/WEJTtR0nPK/ewRa9Rn69E0J6w0Citx2jVYjzx4bAwL/Tiex+V6ik92oqTnlPvJOG4jH67jeK4nLNmJkp5T7ifjuI18uI7juZ6wZCdKek65n4zjNvLhOo7nesKSnSjpOeV+Mo7byIfrOJ7rCUt2oqTnlPvJOG4jH67jeK4nLNmJkp5T7ifjuI18uA7xQxosOQA6qXQYRKWnJDLlSblN1qtiqnT/SflNeAhwpB2ecEVwDStYmZPX0X/6/ifb19H9HzofD+vrP+n8H+nxH9JgkbPckJCeKJ5EhCFKNhXlJx335Xrulywmj5EMi3F5Hu7L9f+M/DipyQJznHDWqAXmYMN8TvyCDlbucT1dXj6+D8mw/8r7/8+u/9H8xzeGeL4kO6f+meefssEyOpDyj0b+MXA75+UKSBY/mZ3nHQ72XzU/jgfDCwfQw4K5Q9iuwtdqYJHQ48aweF0ST/tNlPQq+q+6/6qyom44+0QYokaxUD+6/0MvgMnqLJkd65QwRFFntJ3M+lcOuhsllvVYEF5gWSY8YshGlGwfhsqxZJli/6vmhzmNYbwrx0YLPk+IJ4EIRSLDPiby/srycPa/BqZiwsi1s7dHZPm6RR68AeOy20V3ilu0wjQtD6xY7IOpDLhu/HGbnE+WyeEjrH/TfuyU+sVYn0+Mgcbel5IuDo8Xwgs5cSpEbPsI80PoY72Uf8L+f+zyK38cVPFE8ahzfuA0ONbKGsmkR0oHlii3yTzlIop2zhNejiXLhENKNqLcJvOUiyjaOU94OZYsEw4p2YiiLtVlawYZOFwUGBjoYvV5vYWUiyhiOY8ybjyWSo6BBv8QFil8yCHlYJ04rfxA2+du+HX5xfAKTnY4aNdgCpYe0fzQhoaEGb5oatdDYkJBXu2jm/XHZ40TL87PF/vBHz8sEdsoppFMeqSEJcptMk/7ShTtxDf36nktATGjrSM858UtXXNqO6MLdD2aG43Cl2XhntpsCvvSU+zVr+31bMlLd+3IdJl3iixRBXlheuyxciBvtFEuoojjPPnJ+yLLhENKNqLcJvOUiyjaOU94OZYsEw4p2Yhym8xTLqJo5zzh5ViyTDikZCPKbTJPuYiinfghDRYpKShRdOA8yrgRfkAa+Es6otxGvJGN9JSLKPpxPlEcikGUsJwa2UhPuYiiL+cpFuFJRko6otxGPNky091HYJI2vLQL4eGeED5KqrX3heBr8ANXbaLox3k5DslIKTZRyWZ5oUqcc/ujrQ+X1/WVRi1pImCbDKP88EKODQbQojBtCd4N0mINFnwJGR5YdraK0l0rG/7XFfb94oxZxW9t9ej/syBNO8hzSTmgqMd61NxGvKpsPB7tK1G0wVyxnFf2Br73zMbWz/Z4w5nCYjeZrC4r3EXDjXUYG3v4vmOsnjK8feaCxh6x2BT1BeCbZZHigszdW5v0nywo1NbwPMjzjcpFeYkihvPkQ3iSkZKOKLcRb2QjPeUiin6cTxSHYhAlLKdGNtJTLqLoy3mKRXiSkZKOKLcRb2QjPeUiin7ExxssAqPRiJdtKNNGPhQYKemIEpYwJCPlGCNexqn8Kfa/Q/4Ut+0IvjqIIwzYRIXhb4/fWvxR7P/OblHyv6803b2qvOPy1lC6FnGWwosrcDuKlQh/ImZ8VBn7JjOI8PU3mD9uisInlC0O4M2AN4k39jSfv7miueK+TfrPr1go7gLP2Os5GILK/BHUv+mDZrFk7V7v/XWt/VMDwgFfJUsT8PlBWOAP7mVhNj70sKAEMDUk9uVD+M4jlBcvBPg9V6srRT/Q7F3U2NX32mv79d9OniruhDJ6sMx8o/KjzoiXbSr/j2D/IWTy204qM2GRko4olZcwJMv7xfGcl3Eqf4r9UeXHvYLYxyqEF2Kk/InEOhEfo3KdSKwT8TlZ+Stqe5eteD5llQ5LteBBcEY6xCmZfS0vfbW08ESOidG+wBKjF/zupern6npNaSGTS4QsThGGry2H4FfvDsJSxBb8fKoOH1OF1RpMQQELvwtLBO+woEGDuWFB6MDAu9A6rtQAbx/CqFaDfvrUzHWfujLryxc6BnpbWCdG+Y3qK5lPs66799SKb+4+3Pmdtn4t1+bO1OAT8zE3eOVRC8ByMU74vpgN3tKG8SvsocJHaaEBg3WhcbkeeNNIwGwRWL0hIjLgA6+hntbIxELn2iUzU79blqLtSpY/lmkEf072/o8gdQz6ccgfu8Dyikm209zOeR4D+UQ2GcvlZH7cznkeA/lENhnL5WR+3M55HgP5RDbCdnXpGYsfhy/Fw1IJflgUzw2NRba5U9z+lfGnLE3XDhGOUx6X8xyDPNke26F/9+EXt9/V5SjSw7YMuEBF4Z3moOZ0wrwvaKxKoh5YowHGqzLc/uyCnCPwArTH09mZ19fhKwgGTTYffDreD5+YCDnTdVhlVAvDUHZOqtB7Wqq08SXZ/h8vc1114WTHcasfUH65XMlk8ivv1Gfurep5oPJoz6KQLdMq7Kk6tDtaxB+CPpamu+Cb5TBxLZBqifjsFqsX2qU9oUh4XDgSzsWOlx/aVp9uNkewcYYubBQ+be8yRzVbsFN36b3dyxdN+MWsfPEgXBhwxnx8o/xxhcRwO+clWLz+ZX0yOVFM9OV2zstxE9lkLJeT+XE753kM5BPZZCyXk/nFbwnJyejKToG4nXiyEcVYZKO4KsrxZDfyIyy3E082ohiLbBRXRTme7EZ+hOV24slGFGORjeKqaEaG6CnLE7sqD/fPcTocsEJCWHTCByO2VolrAH8r96HYPC7xZCOKfmh7bKv+yTuf231XMG28MLngk+6w3HAkENZgpRWRGWzVx2bY6z49N+d3E05JfW56lnaE50N+Z6s+5/2dXV9dvb/+2uq+7kwdFvLzQVerudOnlRRPFAdrGu0vRLqfWlmnX3PhOO09Ob8cT5Y5nmxY7jpdz9y4zfNwRUP3Is2dBz0ni4jCOuwu6FalpkLDE/VXF6bb3ykd69jgThU7J6bEHgZAOF1rEiK7o1PMbWgV81p7xHlNPeEFnoCWaoVWDiePRPQ0+MKrM/OlNbV3B5eX1kHelyk3UqpTrkOeysrtxJONKOLJhrzRxvGEMfIjLLcTTzaiGItsFFdFOZ7sRn6E5XbiyUYUY5GN4qoox5PdyI+w8R4WKcgRqUpHdiObrJdl8pepCqfSkZ+RTdbLMvnLVIVT6cjPyCbrZZn8if5sk/7Tt9/v/GV70CysTpcwR3x6kbWz53ffLS2YCMM0yQ4gxSFK+Va36mfe+qeKdXXRscILHzuNhvshtlfkuXR9Ypa5+uqzsr99zQTtNdmPZKQUqwamPry0U/xg5ZaOH9V1Rl1hc5rwwlpaqW6XSGmrFqdOTtn7P5/OuwhXgyAfiiPLpJcp4ZCuqhU3bT3Q/OP+qM0e0Rywyincxnp7hCnQE5g8NuuVhZNTfliaIepUdUNxKP6aOv2buw96f9gfNRV5+v0iNT1D93t9GszPFRkZjn3XzRXLClO1NtkP/VU6imtkk/WyTP4yVeFUOvIzssl6WSZ/mapwKh35GdlkvSyTv0xVOJUO7vQHNtXBV+kS4VUJKAbayBepLBOOY1Q6sqts/475l04Wr6TpbTB4HBahEAwca1attVdkrN4qvqrax+Hsf7Wu5z/+que+6p5MWCnUDY/6obpDVpFnt4pTs71rf/D57HlXjxevUyykqlykK4N11r9zqnbLF8/LvnQKzNZyBduF2wZjQnAz5XWXiC2He2e8vaX3ppNR/7t6xPI9VZ3Xe0Jmm9mWIhwwPuXtbNSzLYGec+eV/PSTp6d8ugw+bU9l4/ugyn/2OO3+i05zXZbv6N1YkAbPDPs6NLMdllN2O8SR7tD0fdXdPwM/6H4dP46r0lE+lU2Vn3BoI1+kskw4jlHpyK6yfRzyxxssqkCZUgWRHmXOc5lXoozhNvSRZcLLFLG4kV7mucxjcjxiuE0lE16miMWN9DLPZZ6D4xHDbVw+L0vbM7PYvcmq+wR8J0LACsbC4s4Vf3un+o59PXoWYnHj8TjPbZTjg93ivG1V7XP11HwYN4fbIH9AZMMifHMLbRv/+3OlF8/XNHjjeugPlGLKNJZ8MP+nJmjvffPKkkvL0sLt1lBvbN0pn9Mi+mw5YtXOxs+/WScu5Hjikcr5ZBnztsL8sF0Vvp+19oaKbc4MLQKj6BF/ryjJTWtfOCfvyrNKtbvAL0xlpPgk85ikQ8ykDG3Hl5bmnlmYpj+blwHLkcITRY8vBN8mtIoDRzq+taVJLCe8TOUcKBNGthnlRxy3qWSKKVM5B8qEkW08h4zhNvSTZcLLVM6BMmFkG48pY7gN/WSZ8DKVc8QbLDJQIKToTAFIr0rGbTwO+ZJuOJRifZzyX3VB0bdcFvyqjV3Y7E693RMS3ZEs+/PviwehDmPjjFQvyeq/2qeP+/u7O+8VKQ49ZAnHpns7Na926ti+putXuG4YXFPK8FBQHqP6X56nrfvCJeO+nmPp1e2hLtEJD+UiML28usVm/aA8cj0FJn+Sh0Mr68VXj7T2zdKtsCa72Qoj7BFhjfrFKcUpt5xeoK2iGFRGIxn1cn6UTzsl42fmYHedHuwRLrc1NgO2N2QXB6s9t9QKAV/nOPZDIn86h3lOznMf5Gkjf5KHSyk2+Y/mH+iZUr3AG7cDjRIpeMWijvRUcWgnH8JyG+mQki/XIc/xFEuF/bjkX5wjts+eXfJiECYWQS9Ls1hTYF5Uqnhvbfl1r231xL6VoKozqlduq2oQs+uau7IgkhbFOUpwSUpzW6LL5hf9P1x182TU/xVl4oUV55T9MgLjSrod2hUYxA+a0sXeypaLN9Tq51C5VMfUKH+NX5RUVLVfHdWsGSazXfi8IZz4L8YVFzw3PlM8yfeRzhnKw22kQyrnx1vJmVPG/iLVaesLhWClUpjZb3dmiPqmtvn1TbEHHdw95k8xeI4TzU/BVbEoD2GQoo70Kh/CchvpyJ/LxHM88viP8hCG/Emv8iEst5GO/LlMPMcjj/8oD2HIn/TkA0v3H6sUBFEA7ijzsg/KFFDGqmSOl2N9XPN/a5n4/qToPuEMN4mITYgWi1lvzJom/ndl+71PV+kreD3KdUb1CSPezjf3is91OOaJflORsEFLUuprEMvSO9Z/cab2JMUgPMpyrOHW/6WniGcuGddY5e4OCYsfvsCVmiX2ezX7xgb/2ZTHiKryd/SJ2R0R2xg/vGAZhFcXHfBpjFxLoOOsqebboaHp5rHkMvN4HKfil5Roj09LDa22R31wZRBar8ktgpZMrbHJdxbih7v/mJPijyQ/+nA88jzWaP5jd3VUv5wqbwmpArHyCEw6kpEms8vY4eD5AUyGT2b/d8o/1anVXnvJvBuz7DBPG25Z3NBriYRgUic84XvwqfI3HtslrucfDlXVfxu8vFxR03CFw52C3x8VYZhZmeY0B5aeVXoH1tVw6mu49T8TemunTh3/sBUG8nF+FMyKEr5gSLR2ek6vgaeKvO6prInyd3WLiaGIBrdluD47fNgHuppj8rMfGucSsQmeJ/P8G1ea+3ObxdyJTQ5ONjXBmj59Pf2zoXz24e4/7RPtp6p8ZCNsov0n7Gj+Yw24qr7iDRY38sqjyiadSiabHIPL/EAQnlOOJT2dBLJNlgkv67n875D/S3O1P54/t+jBLN2j672tmstpE/1amt5qLtPue6XlkeffFHfsgSeAfL9o35F2+cTkQ029pl6Y3ImfB3XBMgY5aabOSyZob3wU+z85z/xBeqbow64GzBOAPpFZ1LX2LK1pEYuxPLycyfI390Ym+kNaWjRkFuawGabdB7XifFGJfjyOHBdl2hLheP7peaLCrId9VnCA16GEZnWInv7+KQ0CPg/NNvRBMVFcBk+I4/m5D/FyDtSP5j++/uMNFlUOVpRceUY2rkc/eSM7j8d5jics6mSMkY3reSziyc7jcZ5wSAmLvIwxsnE9+skb2Xk8znM8YX+2XPvG4qmpbxY44amhrwteLbFrPlOq6NRyxGtbO7/zv7+v3fz0AXHdAY+eTT4U50i7OF2DT8mbocdgMsNLKjDvKjvVXMFzEl/brxcebNcXAJ2LT+d4LMI0+fTSQ836wqZeMRl0sXOFbJizcGxaY062qIrCwDhMnYCPrtpFuydia/eIYrRTTPSB29UszFnTpxe09On5rYO0RtcLyv36eG/UXGJzpgibCe6HoatlivigpyViL1lTHIzJ83M92uSN7NwHedgCLqu50QqTSPCdRJidoQdh8Ky7VUzBGByPMsWRbVyPNnkjO4/HeY4nLOpkjJGN63ks4snO43GecEgJi7yMMbJxPfrJG9l5PM5zPGFRJ2O4LfYEikBkICrrUeY2lR11tGFixHMf5ElPOKRcx/Fcjzhuk/1Q5hv5cp9/h/y/vSbn0p++Yn3u/X29VzR7e4XDlQqD8GYRiLj1g02Rkt+9WP/MuDx930N79AcW5It3M3JFG7zh53ruXVEA7yXCeyhhWCTKrLkcFlE8NguXhIn1FLBukN/Xqk98e3PPA81dgdPC5vbAtNLC52t0/YdlMN+KMBtr9KV/XdV0f3NXf15OZkr3tJLMe8D20JBY6fbWnHTReDDYPUe3ZMdu5fpDVq07KFwYB+sfiGnXEXHOjnrvd7t8wQk2s1eLwruTsJwNzA6zmMOWoEmzuG0dPi1LwJwxeA0Q3mWE138yXZUpZtFFxxDj4cbzoyzbUUcb2bgP8qh/bq/Y3nk0MD9osmhwJytSrXatuTMAHwgSGzmeYlBMbkOdbCcct3Efys91HIs8t8nxuU32Q5lv5Mt9kCe9Cos6jpex3IZY2Y462sjGfT5s/niDxYNSQqSkp+So4zwvAGERg5ssD2iP6eU4ZOeUYnAs5/8T88M+4fttV/56tf6b17c2frsThrV6grpmtbk1HeZotfT1i1CnmL79z1W/z4n2iKlTJ2/PyU85WN/lO9UGjZuwmITXD7O6HZput5jwizhDts5e/1mtvcHTAqZ0v98atTZ0B5dMaYksB1Bs5jsO3m/bIy5t9mpF9rwJ/Z5QX1ZLd/+lh7r1d2BO02Gq/1z4BFiGXXgs0MMyhYM6rEcPL0qbNXjdL3Zrhcempl2fVHO0+ydwm3hG0OrUrQ4NPxsIn5VPhRV1TJo12g9jbRZhhikdMJyE3R14tBnSUlNtldBh6/iojv+aJr384JFoEN7xtsP4GyxIYRH9Xn+sh4XFoO2jyo/xqR6RpzzI8430HMt5tJNMWPKXZVlPfqgfCVb2I1mOIcsnI3+8waJgRtQoOeIT2Xg82jGuGy6fKEciG4//75b/h8u0Hzy1V9/77KqD9zToaRm9sBhpwOzUo3aX1uPXhDNtomiH5bQ2NAfnBY40zrPZbLBKgQvWs8IlVmAeE7QNegT7DwMb7b8W6DNHAl6rMyXTYnKmwHQnjwVeNIw/YEF0OBQwmU2aDb4AbYoG/CYtEjI7Yis5DwYbIPDijIjaYCQITiRYSguaIBwTAp5QfYFAcbcvmBc1p0c1h90BTRusEoEL7cG9GLRQ6ZoNen9m6HWBCF5RWLjCCj3EiIj2u1OdoB1MBD9M4mV6Iscf1vrzws0nLkwD/TwrLF4YFRYLjPYbbIlyJLLxcFT/XDdcPlGORDYe/z8hf3wMi3YMd8qIJ5uqgshGvkS5Hv1kmXBEuV3mSf445f+vGdoTP71h8szz52S8XOzo8DmD9VqquQ8aiGhsPSg/PJr3WaGhcmbBi8lumBLhEv04Wx56DOEwrMAc1Quobqn+x5WkbclyRWodor/VHuxuKXTbt8LLxFsRh3VcrGm+whz7pmxXuCXN4m/LdYmGggzXuqI0UYMYqn+Ya5AGSxPn4Sljwu4VNEZ2oCk20Y443DJS7LUpdvMBlxYMO3UoYtQbdmiBECy9HLUEYSkwmDFv0wOw9pauw9s+AlaLwHWjRY/XO6e5V+QNRBko18k8/j2dYoHVYrLhD8ACL1WHoIfocDn3Uw7MK/Mk0/5T2WSskZ7qn+zJ4lA+ik9yMj+KT34k/yfkj/WwsCKoEojiTtIOIuV6qgBOjeyyXpYxxmj+pPXfANV0+XoYAH99Xf3N++ob53psWZk9fpM5FDQJs9UK61mFtQCsahDBy40F2ilYUwWI6OzuHYd1TNtg/Zcf7NL/q7FVLLA77MGx6Y71eSlaM2Lo+Jw5Tntud7OvvbvPPMlhSW8oc4n3wTZkKRatpyerx5uepVlTdW/Eojlg/lQqjJRnw1eXKV8xLJNTdVS/22ruFS2etryoI6jZHFYYkGuHNgpWOLVBW2VxWNq8kYlQ/hRvKCrsFpve6e2eALeWOXBuHMIyUbkorkyN7LKe5K4ez4JgEPqiTjvckgaEFbqTWemmbWTH+MjTucn1cm7CDkevikM55Dij+Y+v/1iDJVeiqgK5jvOqg6TSJfIZzT/0dofXFdXNoO4DqNvzd3n1seVHxIryg72XHGnuX9juaU2POtx2T9SldcBiUPCb11zwVQt/X0gcaYnMXQ2v95wNU44oFh6fyZnabiD477iN8s8ucK4CI/47rreBsY42h0vrmsQpGrz3B0v8wZpTfpHutvTZYbCcB504VtsAMTe2i9QUuK+L3YaRHe5XYQRMWDfvEo9UHo1ca4W2TGh2ze+3WDq8YryWrW2k/FR+Kh/FGA7lPodgvtXKd9om4CC/HtJ1qykC7abuy3SJSjmXKiePNZzcckzZh3KQnscnG9dxnnyS0UQ+lINicCzZuI7z5JOMJvKhHBSDY8lGuliDRUCiMgj1Kh3hZUrBUU88+ctYlUxY8kWMSqfyRR33I578jXy4nrDkizaVjvtwnvsRT/4cZ8QTlnwRJ+mOgurRwX9iZ5c+p9Ejiio7xNw/vtV6c3coRZhgbpHJ7Nbre/tyg23iDC1PW4txhrNJuWJjRyrdvjbTovq2QIrNYY99/TXi84gxOVn7CnJENeWhfRj0x0/Lqzbfmwf13VVh75VmU6o5Assbh6Exae8Tc8H/GfCNN7YUTxWEdBxDPJUfMX29Yn4wYnLgHCwbhLbCxzbcNlNdqXugZ0hY8kUflQ71qo37EU/+KrysIyz5ol2lk/1I5n7Ekz9hElHCki9iVTqjGNyPePI38uF6wpIv2kh33BgWdyQeHYknR5K5jXQcw3myj5TyHHI8bqO4HMN5so+U8hxyPG6juBzDebKPlPIccjy0zc3Udl08Tnvt8rniNwsmpa9xRXt1czQkAlGz1hVxOd7YJP57pDk5XpV/s08vW1/Vd01Qh9lM8A0L7BjZzQFRnO9YN9ul4S1sbJPLS3qZ5meKQ+mOaAf2r6D100xmm9bU5r1sV7+YqcpP/txGOp6T82gHvLXicO/nohanOwgj7rCsj24J+0SG274bsPEHFBRr0Gf0/B+sEEV9xuuG6oxjOE/2kVJ+jI9rsLiRkhHliQinsnGciiffZDaKTZTjKYbKxnEqnnyT2Sg2UY6nGCobx6l48k1mo9hEOZ5icFsZzKM6c4r9ebu/UTPDi88me6qA20SxuaLx4tUN+kLyJ1+SOeU2ik2U4zYdEJ/ZWNM7y+4wCRs8kDTDyg0T8u36pGKxnuNUPM9B9jS72JXuDLdqYQ+89ByFmA7R1umbUHE4+m1o/eBh5NCNYqjKNhQ5VNrUKj5R29h3Paw/CKP+cIMR9GgWGPSHL+vEeqAUF70oNlEeiXAqG8epePJNZqPYRDmeYqhsHKfiyTeZjWIT5XiKobJxnIon32Q2ik0U8bEGiwfgRlVA0hnhMBaPh3hZln25XbZRPpka4T7u+ReMF69MK3AGQn2dAlZEhpsdq+gO211PvtfzyG74ph/Wo1x3I63/lU362e9s7fxah56qwaR6eO8Plj3obxQzy9JfP6VUrOLxMJ8sq/JPgMH5/Bz7age8TqQHe2GqAdyJwrSMmiOeT1fXi0sxDt/kGGRLdPwP9eq55Qf6bo6YU0x9AfjGDrS0IgCrsKa7W4pzxUsYwyguxSdqhEuU38iX149RXPIlaoT7T88fa7DknecViBUky1RpKj3GkuOp8NxXxnPbaP6R1T/ejl10xpQfumDSOkyu0uADXcKr28Smo/qMv2wWv6oZfDGZ1/FI6n9Dlz7uzU2eW/cfaS/U3Zn4OUD40ffopVkWcdo09+NTNK1Xjjfc439KWcpvigrS37ebQ1ow2AdTHGzC53daa+rFLTtb9DMoDlG+D6TD3Kr8NfDBj8qa6C3t3YEZUXMKfAbMoeGXdTLctugpE3K+VeLWGimGHFeWjXCoN8qPNh6H83J5uU32Q5k2GYf6//T8sQaLKoCoXIEkyxVEevIjO1HSE44o6pGXcTJelmU8j4dYshOV/Tn+Pzn/0gXiz4XZGXXRMHw7Bj+9YHeLrrBLvLut8fqVm7puOujRc05k//c16dPWrWt+dMPWPYvCVifMGHXCxFSYhg9D5PPnTH5qAvTu+HEYaf1Pgsa2qNB+T2qKrVPAGJzJZNFtMAO+sdEzcV9V9f372rvPhWMbP2f58eR55ePv9/uLGxu7f1ZZVftli80h/AEIAr0rr18XuVlZL5xZpD1HZUUqxyVZjkt68iU7UdITjijlkHEyXpZlPI+HWLITlf05HnkZJ+NlWcbzeIglO1HZn+NPNP+QATNMxINSIWRdIj0V0oiqchBWZVPpRvMPnByq40J1+Ta8C3j/X3evqQvnC48Gd4LwIdSAF77hF2wQ584f99pV52o/v3jw23zko6pr1NXCePq2enHBM2+J27bWdEzR07I0vzkEDZamL6x9V5s+uejI1ZfOvOr0Mdo2imVEVTkIS7Z3dvX+fmtV61f1lCIoO0w4sMFQE7ws6dSCndOKbb+bUyoemeEUDYn2H2NCPOuGNnHezkOh/2vuDs7XLa7YJ2Lh0znwQQ6/sJnNXd9Zpi9wOByHB/EQ0niKCZXTCMvtRjzto8qusql0H+f8QxosVSWqdEaVqMLKlct9OW/kq9KP1I/jjXhVHiMdj2GE4XqON+I5PhnPYyTCPrJT/8YDz+99wO8sFj4tBd7jM2tOzScCXTViQp61a/mSSf+7dIxYn5UrqifAOu8UFynENe/vFzn1HjFp64HoZ1eurbuxyWMRtpwiEbJp8DlVvx6KBrTLtf3hKy9ddPWKKdqQz2XxclFc1BnxHH+4Uy/Zcqjvz5VN/Uv6TWkafBsRXgC3Cgu8T2Pxt4txOc51M0rT/pDhEhWw4mm7C1aHGadp+KK0pU+ILFgMMBvW18pvCYhz9h5q/7EPPmURgPn0eD2GqbXwyTCfyHJZI9OnpXzh/GLtKZ57ODzfh5HiuS/nhxOHMCP143gjnmIPh/IYI8VzX84PJw5ilA3WcAIRhuhwEyIumU8yO48xHKxctmQ+yez/LvlxP25ZHXno7a31X67vgW+Rpo8RQVgpIQJrTdktERH0+8TUvG5/aXHpK0X51oMw1xSG0OH4wDewPF5hb+0Jz91f1bysrsGvp2VO1KwwRg3LCsc2v79ZZGW5or84y/m1S+fZ/jCgHd7fZPWL9opusWT7wZ7bjvaKRSFzqu7x6loE3lJ2wUz6MMz30v398NqPK5CZHqjNSEnd73I5t4SD0QJPd++c7t7gjN6gKRsaKRGB15V8MGXe6bLBa0Nwm+nv1tNswd6Z48fce84U802qEicrH/oQhqgqjpEumU8y+8c5v7LBMqroE9UP5wCcaOzh+H3c89+xTr995YbD32vqs1t0Zx68PA3TJeEhnBdus6zRo8IEw0JaGL4EDVPk4WH/wPou0DiFYVU+ASuems3w9WQvrF8Do0f2SFiP9h3VZp+S5TnvnNSvfHmi9tdkx+BE67+iWy/beqDz1sbuyOW9IYtDs6XBy9FmCBd7vxuWOYUl68PNcA4PDGvBbHuw2GFA3Q7T+qFhg32EcXsdlm/XbCb4oEUQul2uSNWCqXm/nFukPZGs3CfLfqL7P5r/+Br4UA2WfCBkmacjG1FuO1FejiXLPC7ZiHLbifJyLFnmcclGlNtOlJdjyTKP+1yFfv3zb9fdXNESGeM1ZYmQNV23OmFEHqYPhAJhYYJ1Vmyw4Av8D0vERIVfC+gR+FpfFBbUs8GkLissg+wM+kR6uE3MK3XtuuLsnB8tLxVv8zGfRPnJRpSXLRFfA08162vF1/ZUt36ttVefFIEZ8GZHSmxlB68PlgiFmz0oLjSz2IrZYEIYLLMFU0/hpUdYFwyXmQ4Kpzmsp9uioZIs66tzx9tvGXwtKVHaYdnkfZFlHoRsRLntRHk5lizzuGQjym0nysuxZJnHJRtRbhsJr2ywKChRDMj5kSQ4ESzlIjqa/+TU/9oOfdrqLfrtm/c3LW/ojjrhhWURcsCSxCY73AU6YXkYy8BTF5h0GrXApG9zWPT3e6BnFdXd8HL1WJdo/8TCkseXLRK3T9W0+AvOJ3KME/nQcSeK2L09+oKD1d6fNHeHF3d6wrneECyvk5IJy+B4oQcI3UGYEIa9Rj+8yOyHRsoKDbHDbhEuqx5NtYXqpxRl3X/+eO2uRHnJRnmJop7zhPuoKOUiOpr/WP0PabB4BQ3nYKjwpCOqimNkM9KrYhgdRIpBVOVrZDPSq2L8O+dfWatfsWtf1zVHW7pLq722sWHdmtvvszr7YPp3EH71VlhuxQVLUTkt3t4xmZaWXFe4qdBlrrxgYfEf5uRoW6g+VPVFOqKE5dTIZqQnX3xp2VMXuajLF1rQFxDj2zo8RSFzyhif15sbCAVTzDZrxOl29Dgc5loHLFxot4RrM93WyoJM+zuz4IO1FMcoj5Ge/GSqwpOOqOyDspHNSK+KYRSHYhBV+RrZjPSqGP+s/PEGixfWiJcLmQjHsRw3nJ3neM7zmIl4ykG+REmvohxjxCfKyX0oPumIkl5FOcaI/yjyr+rSZ7d3iCkNzWJCR1e0LKqb0lLcogXWaq/JTRcHijNF5YIMrZrKbFQ2rpexKhthiHKMEY9YbuvU9fSGTjENHhBM9/X7x5kttl5HqulQVprYNcWp1RCWKOVSUY4x4uX8iXAcy3Gq3BybiE9kU+UgHVGj3COJy2MZ8ZSH7ERJr6IcY8TH/NCoCnAiuhOJdSI+RmU7kVgn4jOaX10DJ1KXJ+Kjzj7QmBnZjPSj+f/Nf//JDiC3c14+IRLZZCyXk/lxO+d5DOQT2WQsl5P5cTvneQzkE9lkLJeT+XE753kM5BPZZCyXk/lxO7A4zioAADkhSURBVOd5DOQT2WQsl5P5cTvneQzkE9lkLJeT+XE753kM5BPZZCyXk/lxO+d5DOQT2WQsl5P5cTvneQzkE9lkLJdP1I/HiPGJApGN6HHOBoqR4BNhyUbUIN1x6pHgE2HJRvS4RAaKkeATYclG1CDdceqR4BNhyUb0uEQGipHgE2HJRtQg3XHqkeATYclG9LhEBoqR4BNhyUbUIN1x6pHgE2HJRvS4RAaKkeCPwx6ngCQqHeU2ssl6WSZ/mapwKh35GdlkvSyTv0xVOJWO/Ixssl6WyV+mKpxKR35GNlkvy+QvUxVOpSM/I5usl2Xyl6kKp9KRn5FN1ssy+ctUhVPpyM/IJutlmfxlqsKpdORnZJP1skz+MlXhVDryM7LJelkmf5mqcCqd7Peh5EQJZJssf6jEg86JYso2WR7N/+FrIFGdyjZZ/vDZR3aBHc1/8sau6NglqlPZJssUY9iUAsiUApAeZc6rZCMd6o02iilTwpMeZc6rZCMd6o02iilTwpMeZc6rZCMd6o02iilTwpMeZc6rZCMd6o02iilTwpMeZc6rZCMd6o02iilTwpMeZc6rZCMd6o02iilTwpMeZc6rZCMd6o02iilTwpMeZc6rZCMd6o02iilTwpMeZc6rZCMd6o02iilTwpOe5OMKgQYEHQeMeyRnRuKrwo7mH61/1XmR/MwbQIzEV4UdPf/+Bc+/4R4UfkBlH24bzsnE8XIsI/9EPtxm5M/1HD+af3gnZaI64zZez0Y8x4/W/2j98/NhOOfMEIzRCZQsaDL7kCQgGOFH86tPYKP6onpNZiccUSP8aP2P1r/q3FDp6FxCmszOsYnwJ3r+xeInK0QyOy+kUUE4RuaTxU9m5/FG86t/iLyOZD5Z/Saz83ij9T9a/yM5X/DcSYhPZJRtJBOlEzOZTDgVlX05RraRTJSwyWTCqajsyzGyjWSihE0mE05FZV+OkW0kEyVsMplwKir7coxsI5koYZPJhFNR2ZdjZBvJRAmbTCacisq+HCPbSCZK2GQy4VRU9uUY2UYyUcImkwmnorIvx8g2kokSNplMOBWVfTkmkS2GSwRAm5F9OHojzHALOJp/tP6NzqHh6I0wo+ffsRpIVEdoM7IPR2+EOZY9Sc+KgEaBjPQqPxkryyqfRDq0GcVQ+clYWVb5JNKhzSiGyk/GyrLKJ5EObUYxVH4yVpZVPol0aDOKofKTsbKs8kmkQ5tRDJWfjJVllU8iHdqMYqj8ZKwsq3wS6dBmFEPlJ2NlWeWTSIc2oxgqPxkryyqfRDq0GcUgP0PKHTn/YYLKcQyTg4FjOT+af2jdJKpD2SbXo2znMsdyHjGyzP0S8SPx41jOj+b/+NV/onNKaZNPGCVIoZT9ZFnholSdLL+TFUdZSIVSzifLChel6mT5naw4ykIqlHI+WVa4KFUny+9kxVEWUqGU88mywkWpOll+JyuOspAKpZxPlhUuyVU8iMxzWY5kZJP1spwoDsciz+VEftwm+8gyxyLP7TLP5UR+3Cb7yDLHIs/tMs/lRH7cJvvIMsciz+0yz+VEftwm+8gyxyLP7TLP5UR+3Cb7yDLHIs/tMs/lRH7cJvvIMsciz+0yz+VEftwm+8gyxyLP7TLP5UR+3Cb7yDLHIs/tMh+X44zsLQVQmE+KajS/8XtdiermpFR+kmM8mt/42IzW/8mpgUTnWCJbPLsKxHWcjzslYUbio8JyHeeTpI2bR+KjwnId5+MJkjAj8VFhuY7zSdLGzSPxUWG5jvPxBEmYkfiosFzH+SRp4+aR+KiwXMf5eIIkzEh8VFiu43yStHHzSHxUWK7jfDxBEmYkPiqsSndcShVIpZMdOYbzMi6ZrPJV6eQ4HMN5GZdMVvmqdHIcjuG8jEsmq3xVOjkOx3BexiWTVb4qnRyHYzgv45LJKl+VTo7DMZyXcclkla9KJ8fhGM7LuGSyylelk+NwDOdlXDJZ5avSyXE4hvMyLpk8Yl9yIKpKkMimwo9ER7GJqnwT2VT4kegoNlGVbyKbCj8SHcUmqvJNZFPhR6Kj2ERVvolsKvxIdBSbqMo3kU2FH4mOYhNV+SayqfAj0VFsoirfRDYVfiQ6ik1U5ZvIpsKPREexiSp9ExqZx3BxzCXOJvJNZIsHAGa4OO5DfCLfRDbyRzpcHPchPpFvIhv5Ix0ujvsQn8g3kY38kQ4Xx32IT+SbyEb+SIeL4z7EJ/JNZCN/pMPFcR/iE/kmspE/0uHiuA/xiXwT2cgf6XBx3If4RL6JbOT/oZLHgwwymFBOKssqH1l3ovJo/tH6l883WZbPrWR2GZ9IHj3//gnnn3wAZZkOmJGe7EQJRxT1nCccUdkmy0Y40suU/IminfNGeNIbYY305EeUcERRz3nCEZVtsmyEI71MyZ8o2jlvhCe9EdZIT35ECUcU9ZwnHFHZJstGONLLlPyJop3zRnjSG2GN9ORHlHBEUc95whGVbbJshCO9TMmfKNo5b4QnvRHWSE9+RAlHFPWcJxxR2SbLhEtKkzmSnWiygMPFUZxkeLITJT8jOlwc+SfDk50o+RnR4eLIPxme7ETJz4gOF0f+yfBkJ0p+RnS4OPJPhic7UfIzosPFkX8yPNmJkp8RHS6O/JPhyU6U/IzocHHknwxPdqLkZ0SHiyP/4/DHKQCp0mEAIz0FN6KJ/FQ2lW40/2j9G50XRucd6RP5qWwq3ej5988//+h4DosaHUQjZ4434o18VXoeQ2WXdRxvxMs+iWQeIxGObBxvxBN2OJTHGCme+3J+OHEIM1I/jjfiKfZwKI8xUjz35fxw4hBmpH4cb8RT7OFQHmOkeO7L+eHEIcxI/TjeiKfYJ0R5UKMAhCFqhFPpk/kks2NMwhBV5eG6trb+woaGtlMQn8wnmf1E8vOyJIufzD6af+TH/x9V/62trSm1jY1T4RhaeE7OJzu+yewf5+N/0j5Tzw+IzOMBgE2X9f8oedWqtVetXbv2sz6/P/X885Y/dc45S5+B8vj/Ufn/2fs/mv8fc/7V1DROeeqpJ27q7/emTZkyqfzzn//sTXCehUfr/+TVv+nD/GjxQHB/WSYbNlZkI0q2ZBTwpuqWlvy2trYxwFs5Xo4ly4htbdVTtu/YftnOXbsv3bt375J169Z+qrqhoZjHOVFezifLFPfD7D/FUFE5nyyjD+isW3fs+MQf//TEQy+9uvJbKowq9nB0cixZphj/zP3HMvwj8sfqeevGy7fv2HH50caji+ACeVVNTcO0f1R+zPNxqH9ltxV3nA4yUqoM4lHGLZk8gBr4S1ii3CbzmH/z5p3X7dy946K77rrXEY5EXWaL2Rz0+/3ww6tatnTZsxMmlGyTY8kyxs3NFQEgUY/HEwW7xWazd6Y5svrknFw+Gfu/bsMHn608WHGmO83Vc91V1+CVNtajk8sIuSyPP/7EPcFgyDp//ql/mzdv3lsnIz/bH/v2rTvPffHFv31l3rz5H1x+yYX3MZuSPcn5Yzlov4misqurK2P1+o1fqjpUNW/MmMKDF5y77I+5ubmN/6j8yp0H5QnnN2t+OM+skUg4lJ+Xq6ek2FspB+03UdKr6AnnT3AXQ3mJqvKS7l85/5AGiwpKO0UUd4Tz8o6RjJRiEOU24o1sqD969OjYZ5557ntr1q///OHDhzOtFpvwer26zWbTTCaTnp6erh2qqrn4lZVv3XXJivP/JJeLYhMFe2jfvsrfjxlbdFSPRLW5c2e8nJPjaqGycMp8Yo00xX72by99/4477lz45ptvv3zBBee9CHov+hFeFWP3nj3L3n333S/mZmW2n3/O8l8BJn4LKvlZVq1e80X48brcqalHAfcW5SWK8TmPMm5SnCE6ZtOtVmvE5XIJu8PWa+TH9ZSLKNo4jzJuLMeAgulUNgKRrbq6+tT33lv9P3CcS1LdKWLChIm7APMK5SKKfpyX45CMlGIT5TbiZduDDz38az0i0ubOnfnSGWec8SblIop+nFfFAXuos7Pzb0F/OCMcjVpLisZuzcvLayYsp3J+spGechFFO+dlPMlIKQZRbiPeyEZ6ykUU/TifKA7FIEpYTo1spKdcRNGX+HiDRWA0GvGyDWXayIcCIyUdUcIShmSkiGlrE27omfzg7y+9/K0+n1fMmjmrauasWc9mZ+e0iagw791Xftbe/fsv2LFrx9SOro47nS63D1yfJn+MS7F5/mnTJm2Bf+WIAz36HLfxMsr8TTf/6vx1a94/z+12Ny5adPrr4BxrsHgQ8qH8Nrs1kJaWFnE6nb2ZmZlRjiXMoC5qtVo8OTk5ZofDGSsbxUI751XyYIw4jmIjRd8WaJp1oZnsdruuR0VsCIAw5CvH5Tk5L+NU/hSb8nNKeMJUVlUvb25uLsnKyhLwYxeNDUenAOYVnpPzJzs/lWfD+o1X+P2BksLCwoOge5Pn5Pww8h8B/C9hX1zZ2dke8iVK+Wj/SZbjcjznZZzKn2LzepdjEEblL+eQfWWZYpCeYn9U+S1yIiwAJZV5WZZxFAtxuJGd6IB26F/yQcyWLdvPf+3V174VjUbFmWee+c5VV1/xk8njx+8GWwi9jrR0v7xh7fu73n3vva82NTUXbNq4+VoY21qDtxHoT7EoA+UdpAkbKsKir8z/6rY7fe7UNN1stfuhFQrK8cmH54+EdM2kmaOhaGycL9EDB1MoKrRoVDeZrBYzxVLlSGTDMvP8hAWdMIMxEolgeYaMOSKGfOR9RhtuXC/L3IY8xYo5Ml+OIxtgnXfd+8BkfzAMOczYC9QqDx1e2N7ePhbw2NOMbbIvl2V+JPkpPvp84fqvehwmS6/JaosdWzkuYZEa2VA/mD8MMA/Hch/U843KzDFGPPoZ2VBPsSg+YYmSnlPy4RgjHv2MbKinWBSfsERJzyn5cIwRj34mbkQFBkBqtHE75xHPY8k2o3jk0+jx5HywecvV3d3dYvz48QcvWHHhz6dMmIDjVLHGCv1L8jMOL1186W8WnbHo76AXR44cWVx5oHIJxaZYKI80P8VQ+YUjOpTBJGwOh5YrRLzBkrFy/nA4rFmgDWqHqqH4Kgo9K2xTTBHAyzFlPLdzHnFyfvLFxspsssYaBdIhBX9TS0tLLtAhPW2OkXmek/OIM8ovx0B5196KuUcbGqdlZGT0zZ837+XS0tJ9+/btvaKqpj42UK3yQR3PyXmYTlDQ3NyXAzqbjDOKhXoss9udZg2Ho2ZhMg2Jr/LjOTlPschHtpFeprzO0IZ+cBFObeptwuNy3HnDdZxHXx4LbfDP0tzcmwc0diFEjLxxH7TxmPBbzIQeMPorzw+ORV8eS7ahXbVxH7Qn84sXhILJAUiPgdDG7cSTjSj6kI38VZTjvV1d4yorK891uF3ilKlT1s+fPX0z9yHsmDGad8v2Xe+++9Zbn963pzz78KIFs8H2LOZDDIx3Fbzy2mtfueXW22be8du7+21We9TvC0C5zab+/t7cC88/774zzjjtTYxNMXkejPP662//z+69+85wOt0BXZj8lRUVs1JS0kK7d+8757f3Pvzonfc8GNKEbv7V7Xdrv/rVr1ynnbbojeXLl/0Z4kRov602W1SDdiochLtBaLFUG+avBUMUxtZit2tRbLeOTf9oa9NT//DHO59IS0n1n3XWmY/MmTNjNbcTX1VVN+/ZF5+9IyU17cg1n7z0F2OyxhwhWxscCpvdofX09Wo9vZ7YrenWnXvO3rpt23U333pHPnS7HIFAIPjok385vHz5OY+C336jsmJMiosY4qkeiXKbKhbq9ldUnFN7pH7KvHmnv7HiwovuWvnm698/sG//9IbG2JO1d2Q/ik050b5jR/mye+//3TV9nt7cu++9z5mSkqLD0EHwsSeerGpoaHgEIIfkOCg/8shjd/f0dmfCmGg0FDRHKqsOpVut9sjGDRs/WXGgYv5v7/1DJOT3CRg3NUPnz7TkzDP/CuNbsbEtyg/lMf/976989+Zbb53jcDrDEZi8IKB2LCaLbnfZTS+99PoOSHWPKj/paJ9QboTz/+2Vb3/9/269oxR6ETa4fzdbbZbAnx7/c+O8ufOfmTVr6mbMTfnRB/ne3t68v7/6xvVVVVUXLD///AeWLFzwwvoPtl700KN/uripsbnQZrdb+/r69Cef/mvF+eeueDgfLvroixvPP6ARAuJlQdlv3FOxf+499z3khp2Czq+t/45f3x1eePrCpyDnK4SlslAcomgnG2FVlOPJbuRH2HiDRQpyRMp1ciCVDTFcL8fgsZHnMfu6enMaGxvzMrKz/AWFBdtkX44tHj9ux7XXXHd7U0vTpKlTp20iG9La2tqMbdu2XvXBlm3TocHRQqGQsNscePKF4SGjZeHCBTgGFdvIDwVe7u3bt1+68u13z4GTWJjNZgHjS34Yv2o/UlczdU/5rlPD4aBITU0VwWBQRENeAWNU3pnLpz1boBX0Uxy4NEbhySbeF4I/DCMpNsyPeOiJ4RVQE9J10OHoc27auPHyjPT0IMzrGfIjpjwYtr2rM3/Dhg3nwK1xx/kXnHf3camgDDjonpKWZodG96x77n/gmaONDQVQN1guDfZNwJM6UVddO3/r1h23L1hw6kqMwXPwujKy0f5wLI+BfriBzv6bex6c1tPTo48rKdk+e9r4je+vdrZhOaoPVi1oaenLz89PaeG+PCbG+NtLr/30r8+98F811ZVTfL6BoT+kDugFw5iY78D+/edv3737m6fOmrVe9n1/7ZrP19fXZwIWrhN2DcYam+D88O/fV7G4r8+zGB/wmOFwQEMurDazGFNQUHnqqbNidYK5Bzfzli2bL966c8dSuBgKCIS/bAHDGVF4MBScP+9UO+Du4ftAjkSpXKvWf3DRPXfe/ctDhw7N6OvtjQ3TxM5bu1WkutzRPeV7li0/7+zHwC9+bCkuNEYueGhx5pYtW5ZMmzH9/S07dnQ99NAjj9fU1OQAXsPzF/ZTHK6quqimum7mvkOHfjJ90qSdWAbKjzzGq6ysmfXoY099b+uWLZ882tRkhXoR0DvHfRJ6JCwaGuoXv/baG+OnT5/6EPSIA+TPKZULY+ImywPagb/kZ4TjvoSNN1ikMArI9cir8DwB4Qkn22S5s8eT7enrF6UTxreNHTO2zigH6gszM2ubm/X7bfnCkskGwDEmmI/81+c+880Vn7gkz2F1hODRYqC7s3vc2rUbPrd9x9aFIXjmjDHk/FROtF155RW/PHXBgqcdDncYri69r7/26g8qDx9aMGP2jHfPXHTG32EAuzcqotaALwDPLf22ooKSPfki38tjhiMhyAF9LM0cgZB+bsMcJENe3xdu/IbAfhX05obcAgAmAo1Qr9lkDjkctli50Rc3Xl44IcMuV4qWnp7ZCw0T5huy9Xv7EC9qqqsnP/THPz6QkZ7mu/rab38tMz2lo6/Pm767fM8F69atu7riYMUS/J02NHTsKSrKbuA5hgQEQWWjfeJYwnHb3oPVM5taWsqcbreWX5BTCZjoyrdXb9i7t/yyPXv3XNPSUo+9oxby5fGQX79+y2cef/LJbzc0HM2ZNmXizrnzTn1q8sRJh+zQk9y2bcvsjZs2fRd+/LOffvLph0p/XLQCXOp5/htvuPGr0CCkms2mcCBqir788su3wA8/7exzz35hzswZr4dD4agJfujQyzE5ofEaN27MFrkMULYg5PjxJ9ovLwwB3my26tC7d69bu+HGhqP1C6AvFDsOtA88P8Yief/+qhkPPvKHh6qqDhUXFo7pvPaaa+8uKinZZ7PYQnU11VM3bt742YqKgzM8np6b3n13VT/0gv+A/hQ3GrVFUtwpfniarm1ct/Gyjes2XV2QX1h99VXX/CgzMx3u6jxpW7dvu3bblq0X7tq9e0XxuHH7IfdeCBGmGBgPNvP6jeu+vG7Dus/m5xbUXnLpZU+VjZ+wKcXp8nX2dKWtWv3eN3bv3rX88SeeuPvnP7tpD/i+N+B27C/t0zHNsXLKNlmWyhILodLFGywKIFNKTnqUOc9lnkDGcBv6yDK04qmotzscnvSMrHbZn8uDfD/icSPbYEzUryEd2nF8Y/uOXRfAOJTuhKdlqJPzE36Qrga6hjC/uOW2L/r9XnPR2LGH5p539lP50EiSDWORL/K0mTQLXplwlnPatl0HT09Jc3sOVjeYBma+6vrhw/XR6vp6U093IOXOu35thduT2CM8ioXU4xF6AHqFFhiQDgTCsXJjfMJQrkAwoGHvAnp8ehSfBTIMjLkJaGAFXv3BnpOXl9N4w1e+dPEppaUHyB9eW3oDnmY2rFy58tvV1dXnrNu05nrIcbPRPsr5STbCYx5ug97P8qamptPLyso2l5WV7kP7vDmnblj13rvl5bU15za3ts6AmGu5D+Xo7tYz77vvN9e3tLTmzJwxY8+nPnP1D+fOnInHii5EbxUXlzQ9/8Lzd1ZWHpy6bcfu88D3MR5r6dIzn8OctF3/1W/eBL09d2FhwfZzz178Z8RSPsJwmfhJkyZtQjvJyMOQwYqa2urFcDyHTMrm+RGHckeHnvbS689+oa7uCLRRpQ2f+dSnvr9k8YKXwRa7wJ126ow3xxaN3f3a66/9Yu/uXYugF3UdjCm9BN3PNooHnSc8L8xQBgHjkbNhHt/z13z6mh+WFhTUEaa2tnFzJBTW1qxZc0Hj0aNzGxvbx48dm4tPROMb3N1MqK2pmwfzyOCCfdVjn7z28tvBPz5eCxeZWhi6uHfn9i1Lq6oqF0FjvR72H+c4xvef8nEdJeA21Mky1aFMyZ/08QaLDBQIKYIoOOlJJrxKJh0l4VgjPhgOm7DrGQoG/XDuxbqblB98bNDoZMBJFUJ/uM/W8HYCzglze3tKL5QtPseJ4lP5kYbDVjt08/Ec0rz+WB0T7DhK+0n+CLjtrrvhltIKByakWzs7zVp2drzxQDv5IE8bjEbhFSzS3tGV+txzz94DjQ40YBETdJp0bMfgqaAmonrU4XLjLSG0JxAfjj3FQgr7KMDPBD0ouIIfu18kDOWy2VxRvO0FjIb3IbghBusPxrBgjEzo/f39YsL4idVXXHn5TbyxQmxurruxprHx4aamxvn79u1ffLDy0CzyRzvyPCfnyY6Ub+QvY6FMltvvvHcqzDvTzlp69gdZ48YcRr/c3LTa/Nz8DqgHvbx8x+mzTp/8PGCx+EPyt3UdndzQeHSc2WrRzz73vIfhlu9dxNAG+QLg99jefXsvgPqY393ZUdYghAPssftGwnEK00r01BS3SYOjQ+Wl8iMOedKTzP3J1qzr7r/c+3sciDRb7FYoBrodG5PkPsiHw605m7duv87mcIkZM2asXHrmac8SBv1gi5xx+rx3Wtpax+0r37OosamlrKW96/SCgoJXCYfdekiDiUTZ+LJNF19yya1lhYW1aEcDxiktHXPgpdfeXLN///4V0GBN6OjpKgbzkAYLnvek+AN+GD7T9MKCwi6gQfTHOKibMXn8bngX98t9112Zm5lZ0AxjYfEfEtoRxzfUUX6uT8ZTLPJHPPKkj90vk1IORiDU8+R8R2Qbj8H9uV4V6423Vuk4zoI/XOolkP+qVauuevPNN2+CHy5MxMN2LRKBJ2sWeJqSu2LF+X+AePcTlufhulDsFk0XFtPQipT3ReV/822/NgWCPhGCsSaIiQHiBxLxfH/I3x8KwkMnU8hisWg7d+6aj2MBIMO+BWNnEfZ6Yj0imNJQXFyMJ4eAMg458NA507HnBFhT7P5iMLicH288Y419AMNAoMENiwq3zrrNbouNr8DcsJaF8+e+jf5oQxjyg/DaiaecsnbLlq1ngsIOfm7AHNeL5T48BvGDsWJEpTvS3HxKj6e3JAD1U1xStCcLrj+D5Qm9/PLrm3eX77hs967dV13SeNEfCiYXxGeKU5nrausmwjmSEQ5Fod5KPqDy8FzAR5qbu38I1z43tH99hdLcO4pFvjd+/VvQM8XBGl76gR8KaWQf1FNOskHPOxYhFArCGQpXpME6phhECd/V15cFDweKiouK62fOnHncLRb5V1Qc3gk9rU64vyurOlSJL1a/RvkduhMvgFE8TyDOwemnlOHk29hG/ijkZOfWwu8n1OPxFPd0e2AkZWDDsiDX1SWqMtIzPHjRe+ONN65fu2FHE/i/MAijc7wS5Er0oX1AO+cJj5Tn53qOR94Iy/3Jx8KV6JgoACWVfVCmgIRJRDmeYr38xltaCAazYSwgqgcGbmsoRkNby/g1G9dPdrtTT7Fa7LCDZhxE1/GkndPcUsbjkQ+nuu6NRoNeaKwiMOFp4MdK5aX8hFftPySM2i1OGGeyKCtXmR9uCKIiYrPatJZf33Xbd/RwoE/TrCbs0obhv0ggoEFDpId1p+uuu+58Cs4T2CO8fhw7gJrmwWu13u/zR23Qg6JNLjM8lIJzNiTg7SXoixJqgObDryjQ742aoHmyW6xB8I31RhX7739t5btHwS7g4YQN2qoUiBBvsHhUOT/KFI/jVPzWTTuWV1UePHve7DnlM8ZPHDIgPmfO/Je2bC+/Bm59Fh6uaZoK/uvlGC2tjRM8fd2ZY8bmNqZl2jvRrspfUJBRI/uSzPHIf/2b/xPtjUDvN3psWgnqCS9T2UbxEGc2RTSrGR9WHruFV/ljfe3YsSMHjo1IT3F15udnxp5ooh7xPEd6elb7mIKyXTubdi7rbO0p4bZYt1Ezh/FiCLf1PXIukl1uhycjLbWnvbMLBuNjJxqEOdZzAVzPG2+88/LeigPn1tTVzv7Ls0//+sc33/aNwryCQ2OLx26B92/xqf0ejMfzkzzc4y/j5Viq/Ucf2gxvCRHACyEHHo6dkhAWKcUhShjoXfnh1kj39PTYo2YT/lji+c9Zfv7jU6dN2WyxOGCsNBT1eYJlq1ev+sradRsWQcTYbaIcj+Ii1VwuGEO14OTJWA8upjM4IXkc2n+/1x97WghXH1MvnhmDG9lV8WLD7eAAV63g3GmT3wBMrJPE41OcG7/23bDP2wfhgvi+Y/yHArwGvQloyWzQiARiJzL5IKX8/dD4IQbS6cEQtDhsa2qC+RdWk4ZPNOGEjlt4nrhS12ONGTytg2cVeIN0rCemwiezx+MCg1gg2p+eeHoW9gZhLCbj0Sceu+/2u+7phXdEzdAgR578y1Mp9fV1pfDUFR4Q1JwOt8QvwhO3eKOE8eAcScFYcPtYZwlbY8ce9aryoZ62wfxxHMf39XtNMCXCBFMA4nb0S7Z/sr2xUYexxthx0vCVMr6p8m/fst0KvR4c6wzlpKfHXpvi5aL48P4rjhlAh6wPrgzR+JUL7fXtx166gDMnfu7w3MjjpAuu43lIP3/+8secbmfry6+/fvPu8n2TzIfNZVC+s4uKiq7buPb9pt/e87t9l1966f+NH18ce2uEyof+qngUF6lq/7mdeB5HFT/eYHGj7CzbZJnwsp7LvCCE5zQ1La0Xehx4wLP7PN15aCOfsVlZR4uysxsI397uPbx+44ar8EeKP0TaeD7UkYw/U5ghA2NZUeENHDfcFXMnbEwY/EP53aluU2xQGx5zl6SnD/khczyPgT94GI/T+r39OI7kyNO0Po4lHnyc13/l23BDApM7oXEiPVKw6dBA43uUZqib+A0LzxPDw3Az4mLj7fGRhfhJAv5OHO+D/Te+6mPMV994Jzb4DwOv0GD54fYXpuEMlAOq4lhDelz+WCGO1fegGK9/lNEfxskmw7STUujBwe2xpaR8957iYKgfxvDgnSGYGoC9SMDhY3h9244tV634xIqHwbWT58M7etgPHMdMg306NrAHQI7DnFzm5Ucb32wWuwmepJoDgVD8YoR28uFxUC/LqMOtsFCYXDA1Q7NYNZgEPARHsQaQA3/hkMDoBvImc1tPz9AWDrTkA+cSHAu81kLXDUrI88O5TbeeMA342HAARuW42Kg8Kg22QSyeo882tLXtrK5tnHn0SP1keHo5e+++fRdVtbVMrj9Sf0plxf7Ttu/adcO8OXPekkPxfGjjMu2L7EMyx5KOfLgt3mCREcEcgLJsQx1uXD+gGfqX7Dwe5zna5bS1ZaRnhuDR8Njqw9U42zl2n44YioM8+tccbc3p6elOxx4TzIcacuVADG3k5/EEzeFQ0IQ9DBzkJjunhEWdXMagP6hD70W44GrYBAP+hTAHCzfuE1OwP7EYcEZCY4Ndi3hOOTa46MGgDyac6hHqvBEG4sNMeYsJGvFIn9cT73VSGsoPUxMyoHya0+GM50EM2mGDyavBWCMbDAbwvMWwqjqDmfbRdMRDDysMeeOXbo5Hfzk/yTIlP8p58MDBs2HO0NIxY8Y0L1x0+jO5eQV7TXrEabaZYdgSZvoHI/6e3t4pmzZ+cNWhQwfLDh86NB1ibqU4GN+dmt4M5euDl+SnQ9MV723IuVEmP8qPOs6jjJvJbIr1vlPczthFQcZQHMSiDSluXD+ggQtHRI+NTfIxLB6P8zbnwLujcB47o36BD3RjG8egoqenywU90lKYF6VBT3DIa0vwhHfAiZ1jccXgccZ4O/fsiTfGcm8L8XxfxubkHCrKzcWxKntrv8jwtDfdsWPr1gs2bNzw9drqw0W7tu+4CB6CbQAf5UVYlZ/iy/smY1GWMeSLtniDxUEcwPXowG0oy3bU0UY27oM86QmH1G1L6RxfWrq3vLx8bn1dwwLAwDjKwJMK2X/Nui0lHZ0d8/BKDD2P+MAsj4c85XE47MJkt5qC4YgIwO0d6Tme63g+1N98y20W7LoHwhGzE+ZxyXYuU0x4Chh7WgSNEE7IifeOEMtzAR7n/ERwBlYIbpVwo3jQGGN3MGRzOG09Pf3juQ153DDW40+9MMdih9vGMNwP4vT6wQ1t8PKzSbPaYPa1U/iCwVR40jMR9FWUg7DQY8k8VFUxB8a5cE6Yl27FpLLGy0Z+sp30SMlGuRpq6md1dLZb5s+7YOPyFefdD4/eawCDPyRsQAGm4TJA2TWHq2Y1NBwpqzx0aD48WHkR56JhPNzGFo6phh9td2tLW0p9Y3MJ+OM8ruMa4Oeff/En9Ucbps6cPmMjuP0R/sWHDqhcGA83eEACU0dwVRB/7CErjydjuQ19uR1e3ocJlroGb1fA7bkl3hPnPsiTD/DdJnh1q7e/r3h/xf4zIdwajMnxiN20ZXdJc3PTLDgmTWVlZfu53QczbKBnfdz+YxyWR9+5szx+XvBzBHG4ERZ5ig8Un7i25qeMwUm8e2G6xhxosK7ZVb7vonPPXfEQQA9wP/TlG9koHtqQJ70KSxiyydh4q8uDEpg7oyPpOU8F4FjCjSTm+PFFFXPnzH3d2+/XDx2qOueNt967kceknNCyp+zcueO6jvYON8xHqR83vrSCbHI+ki2ptpBZi81CFjBoEH99hvx4Hio7UYyRl5/firt/8GDl8v7+aGwMhdspDuVDG3Su8HEm9vnNprZjjQjaCEd+MCpmgucuAu514nWMONgChWPH1EIPy7pm9ZorAB+7wJAfAvbvr529bu37/w1XaeipBTU+6I55YoPugYAJb6O6urqnv/z6q9+X82OcHbv3LoOJhZ/EHqHb7Yo3ECosz492kgmL8XDjMjy1K2tuaYrdDubm55UPNlYA0WLjdkjRB3oRHfCi+RG4EInd5Tuv7uztjTXUlGNcUeFuTZh8cAssYDHGG8AFlqEYODcpH/S+Jm/bvv2Lq1et/kx3d08aYOIXDMxBOPLLy83DeU0CVgI5G+18k7FoIz/k0U4yrL3mh55uFI4XzBAP060awoZsFBOWn2mB5WxWNx5tdO/aXb68pa8PHpEct9lgcP5q6GWJ9PTUlrFjx+6jfIiM3RLC6QZs7BTi3pTnmA6qAc4zPC1Rx+O89dZ7X//e93609//99BfbP9i2axn5sBih1NS0XrhwaymwSgpcY2EgYuj+M2zMXZblmDz/cLHxBouCGVGjgIhPZOPxeAG5fjBGaM6c2a/MmDGzGrq/WX974cVb/vzUs3cfrKmZAq1FSosQro1btq/4y7MvPLFx46YrLTB8MWvW7LfhXvo9nh9y4G2PA/45B6mtrbk5s7+/zwa3OcLb248NDp7keDVFXMLbCizbhLLx27PSM7o6WlpL//LM0w+/+uZ7X6qGHwUsI5IOE+5yYE4R/iiGbGaYOIqLL0ShV0dXNMglN0joo8OEPDx5gB3yu0JbZM7cOW9CY6N5A8HSu+55+Kmq+taJDQ3CAbfORa+++uYXH3zody+DHWZtm2NrXkEU+WqrmwdvTXt7PdYN69d/6eFHH3+gAma9w2PydBhTKnvz7Xd/+PRTf3nQ19cPUwWKas47d/mjmJxvvI65HvlENsIeOFC+GG7zzsjPyQuMGztmH+lV9NRZs9/LycpsajzSkN905CgOD8RzwBykmlnTp6/KgSVpdu/Yee1tv7330er6pnlQfzjxybZ7X8WK39774OOHa+tKMzKy/HA+4QTU2EiRQf3DOlxlG/CusK6metG9Dz7857fXrLuisbGzBC+O0OPDF6pTVfsIejqPYhReKcryBfx4LOBypdEtfKxcgEUav6PBfYIlaBoXnnban2EwXTS2NM19AF5iLN9fuQRwsVv3isOH59//+0ceWbfu/etT0lPE9FkzVpeUFOxF3yEbtJnQEKnOrTgMJ+5DLz72tHjIwN8gIjs/r8br9xbu3LHj1DWr1vx8+669F0A5YjE7OjrS3lr1/hfgfcVzgNfHlY3bArfl8TsbVd3EEzOG4jHVsFnKMaQC0RuDklHm0Y42sqNMG8eSDinXo58scyw8fdh+9bWX3/TMX56740h9bdGq99778s7ynRfDqyleGKIRXZ2dWT2evkK/32eZOWPW2osvvfg3EDM2ik5x4eo64W8vvfKzhsam+fDKRD9M+AzDFc8CL0CX4C3W+2vX3rBt246LTWYN5lYFLCFfb9a2bdu+NX/+/NVyeSnmeeed/ciqVe9fA0+tFm/esvmiqsOVc1eveqcFXnoNBvt705YsWfIYYO+jsmCciB7GgXAcc4DzN3YFjNUdxUTMYH3A0LFmwf4F2OK3EWjHbdnipY+8987qL3b2dGdDDwh+SA2z4KVYf19Pdyr0qsY4XKltn/rUdV96/InHHoN8ZngBbsBx8C88JcTpDlEsS8m4kl0LF5726lNPPfmz/fv3ng+juPDYSbN3dnSOhcYrDWTfGYvP+PPMmVPXoTsvK/KowzLjP+T5xrEqPdzyzIelY9LPOOPM94qLy2I/OqM4cAHY+N7q7Jq6urrCmtqa0yD2yxBz4Ak+5L7kkhX/B7PhS7dt2X5B+a7dn66vO3ImrPrQgb1MT3dPPkySHYvra33jv7/xgylTJm6n8gzWN5CB8hO98BNX3LsdXgaHH2MBNOifPQgvZr/terMD7DD/JGK9/LLLboUyPItx0Af/wWZ9+JE//q6qum4BnJ8w7zkcdbpcWl1t7SSoR+3AvgOLf/Tzm1f/8Mc3wYUzarU7rfoZC894EvzwPInVH9LOTv3vN95446zHn/jTt33e/k889PDvp8Ik1i68uHb39OR1tHeWwgMfHZZbemXFeUt/TWWgfYKXw2AkHmbswB+6MJINKeSDNDBACqsLcT3yVA7k58+ZubL67LMf6ep5+TvrN6xfVt9QPxke0R790c9+Eb7jzntdMIu+DC6SsFb9lMbTF5z+GLyvOWQKBeXBWHzjeswnyxyLPLfLPNrjtxhUeKJo5Am4Hm3yZmSX9bKMcahgYIPBV/25zPSMI2+99faP3n9/7bkdHe2TcDAaJv3Gngjm5xd2Xv6py+4+a/mFjxdluxqoHBTX5wu7jzY0LNy4YcMkfDweHJjAh2tB4dhTuKbm8BTIMR2Hi4CKfk+HuOyyS2JPJTEWxSF+sGze2trmz8IE0P/avHXj+YcqD81rONKfB+WCJ4FeraysbCy6og9tMOXL0t3RbnXCTCyTqSd+svD4g1h4BceTHoBXf6BRsXM78rAd+v73v3PNs8+/8JNtW7ct7+xomQItoJaXk+2dPWf2cxetuOiBiMkcboKWCbr6bocjLZ4L45sKheb19TugtyBKS0u9n7z68luD4aB5w7p1X4TXKybhiY4/jilTpm66cMWKe2fMWLySyjCYH4i6kaJ9RUo+XEf6lpbu8b+9+9fzoBHRs7Mz95SWxhbKi0MH6zj+IwbDkdvv+G0X/ED0jRs3Xrt0yZmPjR8/PvYoHZ1gTKuptbXvC5Mnr77hHZjeAhep4urq6hK0YVMAkzDX3XDDl363ZPHCl6Bcxx4jox32BXF8G5efXvv/fvSDizdt2Px5uCCdCy9GT4Pb67FweOEKEtXOPeecHIWfGSaxzivfuWsW4mAMACA4mSV2GuArWdktzc1nw4RUPIaaG8ZRp0065X2wD8mflaX1QAN9c35e1n6YHH3jvv17T8OhBFhkAR8E6JMnTz289Kwl9y9etPTZvLyUZl5u5E0Bk7kfesoeT7fwe32xMTiOoXwwmdXU3t7hCMKtdDgcGHKOUP1Dg30rTBc5+P7a9z+798D+ZYerqwph32JTYvJzciNLlyx5Yuk5Zz0wc8qUbTwH8pQnmV6Fo/xyHMSSjfyG/MgoGYFIRsp1nOeYRPxIfBDb2t+f52nvGdPd1lrY3tlRBCPY0YL/397ZNsV1HFHYIkSxsCwLsTIBIskV2VX+//8mVXGVQ6wXMBApDhawIHua+Nkc+nbPzL3IZVfl7pfTfV660ezIgmXBf975drH4/Ludna1vyx8gfH9Cya6Xv5zP3pyelp/b3Cjvzyy/Iaa8sFP8d8rn5PYfxNWFsZeo7yxP1zY3n+9vbd35Nx+/7S+Plc944wrc/e74eHH+44+bP52/tx8LLN/F++l9eQ/Zq/J6Wvmq9X+P8mLxbvkLt1ku3WX5y/a3aCZu+wHY8tnf2sOHG68Kfh95y3eDdg9OjvfO373dvry6Wj568OjvX375xD4LeFP86+VnE78u3wVd7u4u7AX16y+BmF9+u8j2y+9f7Hz8hz/+8PTp9jfll6ZvXB4e7pwcHe1cnZ3dv3fvweH29qPD8iXK9T8A0X7ltGZHDe3j298/fPru6vT+3uPHr8ufcfXlRJSz+S9enOz95+Lto7W1y+VXz776pvjs6bp+Tthf8G55bWx3/+X+X8/PLjY3Nj4++9O9jYOHi89ePVksVt9Nsx1kon1w9j8sWS5fbp6fv9+8WrtaLy/Tl4twubRzKZ/BvfX7y8sBz06Xy/t3P7rLx+XujOU/sjcIr9mXfQ92to6279urG/Hjn+WXF54cnPylvEN/q/yARHnP8Prr8v6so/KbUF+WxOqbPf7PUv5D8+T16+Otz7/YO3j8ySflc+rho2Q2ypf/T8t9XH/+/Pk/yp9l9Tqlum12edvQzvEPB5+ev7vYO7u4KP8C3nmz+elnR4vFgxflHP7l92s+q8dkIm/EDXaZyZMRV/P0+H2ePspGHH5QPVqj92KUjTg/Tz1ae1+rj7IR5+eoR2vva/VRNuL8HPVo7X2tPspGnJ+jHq29r9VH2Yjzc9Sjtfe1+igbcX6OerT2vlYfZSPOz1GP1t7X6kdnCYDRgpoW+cdwzAajbE2L/GM4ZoNRtqZF/jEcs8EoW9Mi/xiO2WCUrWmRfwzHbDDK1rTIP4ZjNhhla1rkH8MxG4yyNS3yj+GYDUbZmhb5x3DMBsNsVZREr08iq7KWrWmrAaXo9WmGupataeQNe32aoa5laxp5w16fZqhr2ZpG3rDXpxnqWramkTfs9WmGupataeQNe32aoa5laxp5w16fZqhr2ZpG3rDXpxnqWramkb/V8tWQXwpb6Jf6Psp4bmo/75/P39833/u71dK9v9bP9+83uH/+CfQ9T1jGo4P4QOO1xgd6zfeZD94jedB0rTM/fObNeHIgPtB4rfGBXvN95oP3SB40XevMD595M54ciA80Xmt8oNd8n/ngPZIHTdc688Nn3ownB+IDjdcaH+g132c+eI/kQdO1zvzwmTfjyYH4QOO1xgd6zff4mtgKooOtgb0+5rT86CC5DHt95Ft+dJBchr0+8i0/Okguw14f+ZYfHSSXYa+PfMuPDpLLsNdHvuVHB8ll2Osj3/Kjg+Qy7PWRb/nRQXIZ9vrID/wDojgjzgZkPMMzrOUiLeLm/fP5Z/ciu3fwtVykRdx8/377+8fz2YXZk5iF1Z/VWTbidUake079We0ztV5n1Hxo6s9qvD2oM8b6Nat1zxw8Y3Pqz2pm96DOGOvXrNY9c/CMzak/q5ndgzpjrF+zWvfMwTM2p/6sZvYk1KHZADxg5ov4Vqal20w8YLQn41qZlj7vn8+fOwJmdy3iW5mWPt+/6FQ/INfzBHzAdYNR8/7hG4AHh/QrEvP5z+f/K16v/tH+IvpeJ6GBqk2t/Szf61w0ULWptZ/le52LBqo2tfazfK9z0UDVptZ+lu91Lhqo2tTaz/K9zkUDVZta+1m+17looGpTaz/L9zoXDVRtau1n+V7nooGq3bpmKGgDtb71gsYAdoHz/vn89S40rs+tZXaB8/37nd4/fYJ6nvXIDwdGczIt46MZ2SViBhhlMy3joxnz/vgSc4ZgdHaZlvHRjPn8/8/PXy9LVvtLUvOpV309l0/9WuvMWs0OsiB8hOrJ6tpOzTAfDoSPUD1ZPe+/+Ze0dk56VuqLzl69tbqmRTvgwGz3mLk6K6vZgw7CR6ierB7zcapX50W71Vurr7M9w7Ilnp8ya0rG76WfMmtKhn0ep8yakvF76afMmpJhn8cps6Zk/F76KbOmZNjnccqsKRm/l37KrCkZ9nmcMmtK5sbe1gDVtb4xpDQ1zXu1b+VU11pnWF3TvFf7Vk51rXWG1TXNe7Vv5VTXWmdYXdO8V/tWTnWtdYbVNc17tW/lVNdaZ1hd07xX+1ZOda11htU1zXu1b+VU11pnWF3TvFf7Vk51rXWG1TXNe7WfmtMZ13VtEBo4CCfEGH/NiwYm6wb0GH/NiwYOFiXEGH/NiwYm6wb0GH/NiwYOFiXEGH/NiwYm6wb0GH/NiwYOFiXEGH/NiwYm6wb0GH/NiwYOFiXEGP/AOyDKkohjd6Z53vfkPUa+iCOXaZ73PXmPkS/iyGWa531P3mPkizhymeZ535P3GPkijlymed735D1Gvogjl2me9z15j5Ev4shlmud9T95j5Is4cpnmed+T9xj5Io5cpnne9+Q9Rr6I87lb9bUFXvP9rRb/Eq7N9Jrv5/23P4HamXrN97ffPu4f2Hn/h38za+1Mveb70c8/AzwyCN56raM+44zPHsz0iB/eeq2jPuOMzx7M9Igf3nqtoz7jjM8ezPSIH956raM+44zPHsz0iB/eeq2jPuOMzx7M9Igf3nqtoz7jjM8ezPSIH956raM+44zPHsz0iB/eeq2jPuOMzx7M9Igf3nqtoz7jjM8ezPSIH55+8EGYYKaBcZVoF2OykXfeP59/dC/aN++/jjHZyDvfv9/h/et9UvQJ9RnVei6T+v2sLF/LqJbllVf/vL/vUtbOTDU956xW/3z+8/nrfei5Mzc82QVqDW3pN5aUJvPP++MLnJ0X59rS8YGZfz7/+fyjuxFx3CXDlq7emr91/34G6+s2LLyeJg4AAAAASUVORK5CYII=;" vertex="1" parent="1">
          <mxGeometry x="780" y="194.9951674982181" width="53.33" height="40" as="geometry" />
        </mxCell>
        <mxCell id="4_9zNN8vkJeB74bzpde8-22" value="" style="group" vertex="1" connectable="0" parent="1">
          <mxGeometry x="610" y="354" width="140" height="60" as="geometry" />
        </mxCell>
        <mxCell id="4_9zNN8vkJeB74bzpde8-23" value="" style="strokeColor=#dddddd;shadow=1;strokeWidth=1;rounded=1;absoluteArcSize=1;arcSize=2;" vertex="1" parent="4_9zNN8vkJeB74bzpde8-22">
          <mxGeometry x="10" width="130" height="60.00000000000001" as="geometry" />
        </mxCell>
        <mxCell id="4_9zNN8vkJeB74bzpde8-25" value="&lt;div&gt;&lt;font color=&quot;#999999&quot;&gt;GitHub Pages&lt;/font&gt;&lt;/div&gt;" style="text;html=1;align=center;verticalAlign=middle;whiteSpace=wrap;rounded=0;" vertex="1" parent="4_9zNN8vkJeB74bzpde8-22">
          <mxGeometry x="20" y="15.000000000000002" width="110" height="30.000000000000004" as="geometry" />
        </mxCell>
        <mxCell id="4_9zNN8vkJeB74bzpde8-31" value="" style="group" vertex="1" connectable="0" parent="1">
          <mxGeometry x="620" y="278" width="130" height="60" as="geometry" />
        </mxCell>
        <mxCell id="4_9zNN8vkJeB74bzpde8-29" value="" style="strokeColor=#dddddd;shadow=1;strokeWidth=1;rounded=1;absoluteArcSize=1;arcSize=2;" vertex="1" parent="4_9zNN8vkJeB74bzpde8-31">
          <mxGeometry width="130" height="60.00000000000001" as="geometry" />
        </mxCell>
        <mxCell id="4_9zNN8vkJeB74bzpde8-30" value="&lt;div&gt;&lt;font color=&quot;#999999&quot;&gt;GitHub Repository&lt;/font&gt;&lt;/div&gt;" style="text;html=1;align=center;verticalAlign=middle;whiteSpace=wrap;rounded=0;" vertex="1" parent="4_9zNN8vkJeB74bzpde8-31">
          <mxGeometry x="10" y="15.000000000000002" width="110" height="30.000000000000004" as="geometry" />
        </mxCell>
        <mxCell id="4_9zNN8vkJeB74bzpde8-38" value="" style="group" vertex="1" connectable="0" parent="1">
          <mxGeometry x="830" y="326" width="140" height="60" as="geometry" />
        </mxCell>
        <mxCell id="4_9zNN8vkJeB74bzpde8-39" value="" style="strokeColor=#dddddd;shadow=1;strokeWidth=1;rounded=1;absoluteArcSize=1;arcSize=2;" vertex="1" parent="4_9zNN8vkJeB74bzpde8-38">
          <mxGeometry x="10" width="130" height="60.00000000000001" as="geometry" />
        </mxCell>
        <mxCell id="4_9zNN8vkJeB74bzpde8-40" value="&lt;div&gt;fetch event data&lt;/div&gt;&lt;div&gt;&lt;font color=&quot;#999999&quot;&gt;nodejs&lt;/font&gt;&lt;/div&gt;" style="text;html=1;align=left;verticalAlign=middle;whiteSpace=wrap;rounded=0;" vertex="1" parent="4_9zNN8vkJeB74bzpde8-38">
          <mxGeometry x="20" y="15.000000000000002" width="110" height="30.000000000000004" as="geometry" />
        </mxCell>
        <mxCell id="4_9zNN8vkJeB74bzpde8-41" value="" style="group" vertex="1" connectable="0" parent="1">
          <mxGeometry x="840" y="250" width="130" height="60" as="geometry" />
        </mxCell>
        <mxCell id="4_9zNN8vkJeB74bzpde8-42" value="" style="strokeColor=#dddddd;shadow=1;strokeWidth=1;rounded=1;absoluteArcSize=1;arcSize=2;" vertex="1" parent="4_9zNN8vkJeB74bzpde8-41">
          <mxGeometry width="130" height="60.00000000000001" as="geometry" />
        </mxCell>
        <mxCell id="4_9zNN8vkJeB74bzpde8-43" value="&lt;div style=&quot;&quot;&gt;deploy website&lt;/div&gt;&lt;font color=&quot;#999999&quot;&gt;&lt;div style=&quot;&quot;&gt;&lt;span style=&quot;background-color: initial;&quot;&gt;GitHub Pages&lt;/span&gt;&lt;/div&gt;&lt;/font&gt;" style="text;html=1;align=left;verticalAlign=middle;whiteSpace=wrap;rounded=0;" vertex="1" parent="4_9zNN8vkJeB74bzpde8-41">
          <mxGeometry x="10" y="15.000000000000002" width="110" height="30.000000000000004" as="geometry" />
        </mxCell>
        <mxCell id="4_9zNN8vkJeB74bzpde8-44" value="" style="group" vertex="1" connectable="0" parent="1">
          <mxGeometry x="830" y="400" width="140" height="60" as="geometry" />
        </mxCell>
        <mxCell id="4_9zNN8vkJeB74bzpde8-45" value="" style="strokeColor=#dddddd;shadow=1;strokeWidth=1;rounded=1;absoluteArcSize=1;arcSize=2;" vertex="1" parent="4_9zNN8vkJeB74bzpde8-44">
          <mxGeometry x="10" width="130" height="60.00000000000001" as="geometry" />
        </mxCell>
        <mxCell id="4_9zNN8vkJeB74bzpde8-47" value="&lt;div&gt;send notification&lt;/div&gt;&lt;div&gt;&lt;font color=&quot;#999999&quot;&gt;nodejs&lt;/font&gt;&lt;/div&gt;" style="text;html=1;align=left;verticalAlign=middle;whiteSpace=wrap;rounded=0;" vertex="1" parent="4_9zNN8vkJeB74bzpde8-44">
          <mxGeometry x="20" y="17" width="110" height="30.000000000000004" as="geometry" />
        </mxCell>
        <mxCell id="4_9zNN8vkJeB74bzpde8-69" style="edgeStyle=orthogonalEdgeStyle;rounded=0;orthogonalLoop=1;jettySize=auto;html=1;entryX=0.25;entryY=0;entryDx=0;entryDy=0;endArrow=blockThin;endFill=1;strokeColor=#999999;" edge="1" parent="1" source="4_9zNN8vkJeB74bzpde8-48" target="4_9zNN8vkJeB74bzpde8-66">
          <mxGeometry relative="1" as="geometry">
            <Array as="points">
              <mxPoint x="685" y="560" />
              <mxPoint x="1020" y="560" />
            </Array>
          </mxGeometry>
        </mxCell>
        <mxCell id="4_9zNN8vkJeB74bzpde8-48" value="&lt;font style=&quot;font-size: 7px;&quot; face=&quot;Courier New&quot;&gt;rover-calendar.site&lt;/font&gt;" style="text;html=1;align=center;verticalAlign=middle;whiteSpace=wrap;rounded=0;" vertex="1" parent="1">
          <mxGeometry x="625" y="414" width="120" height="19.5" as="geometry" />
        </mxCell>
        <mxCell id="4_9zNN8vkJeB74bzpde8-51" style="edgeStyle=orthogonalEdgeStyle;rounded=0;orthogonalLoop=1;jettySize=auto;html=1;entryX=1;entryY=0.5;entryDx=0;entryDy=0;endArrow=blockThin;endFill=1;strokeColor=#4284F3;" edge="1" parent="1" source="4_9zNN8vkJeB74bzpde8-42" target="4_9zNN8vkJeB74bzpde8-23">
          <mxGeometry relative="1" as="geometry" />
        </mxCell>
        <mxCell id="4_9zNN8vkJeB74bzpde8-52" style="edgeStyle=orthogonalEdgeStyle;rounded=0;orthogonalLoop=1;jettySize=auto;html=1;entryX=1;entryY=0.5;entryDx=0;entryDy=0;strokeColor=#4284F3;endArrow=blockThin;endFill=1;" edge="1" parent="1" source="4_9zNN8vkJeB74bzpde8-39" target="4_9zNN8vkJeB74bzpde8-29">
          <mxGeometry relative="1" as="geometry">
            <Array as="points">
              <mxPoint x="810" y="356" />
              <mxPoint x="810" y="308" />
            </Array>
          </mxGeometry>
        </mxCell>
        <mxCell id="4_9zNN8vkJeB74bzpde8-54" style="edgeStyle=orthogonalEdgeStyle;rounded=0;orthogonalLoop=1;jettySize=auto;html=1;entryX=0;entryY=0.5;entryDx=0;entryDy=0;endArrow=blockThin;endFill=1;strokeColor=#4284F3;" edge="1" parent="1" source="4_9zNN8vkJeB74bzpde8-39" target="4_9zNN8vkJeB74bzpde8-6">
          <mxGeometry relative="1" as="geometry">
            <Array as="points">
              <mxPoint x="1070" y="356" />
              <mxPoint x="1070" y="470" />
            </Array>
          </mxGeometry>
        </mxCell>
        <mxCell id="4_9zNN8vkJeB74bzpde8-68" style="edgeStyle=orthogonalEdgeStyle;rounded=0;orthogonalLoop=1;jettySize=auto;html=1;entryX=0.5;entryY=1;entryDx=0;entryDy=0;exitX=0.25;exitY=0;exitDx=0;exitDy=0;endArrow=blockThin;endFill=1;strokeColor=#999999;" edge="1" parent="1" source="4_9zNN8vkJeB74bzpde8-66" target="4_9zNN8vkJeB74bzpde8-48">
          <mxGeometry relative="1" as="geometry">
            <Array as="points">
              <mxPoint x="1020" y="560" />
              <mxPoint x="685" y="560" />
            </Array>
          </mxGeometry>
        </mxCell>
        <mxCell id="4_9zNN8vkJeB74bzpde8-71" style="edgeStyle=orthogonalEdgeStyle;rounded=0;orthogonalLoop=1;jettySize=auto;html=1;entryX=0.5;entryY=1;entryDx=0;entryDy=0;exitX=0.75;exitY=0;exitDx=0;exitDy=0;endArrow=blockThin;endFill=1;strokeColor=#999999;" edge="1" parent="1" source="4_9zNN8vkJeB74bzpde8-66" target="7BdzqqytsKiichTIAf4s-13">
          <mxGeometry relative="1" as="geometry">
            <Array as="points">
              <mxPoint x="1060" y="540" />
              <mxPoint x="1215" y="540" />
            </Array>
          </mxGeometry>
        </mxCell>
        <mxCell id="4_9zNN8vkJeB74bzpde8-66" value="client" style="strokeColor=#dddddd;shadow=1;strokeWidth=1;rounded=1;absoluteArcSize=1;arcSize=2;labelPosition=center;verticalLabelPosition=middle;align=center;verticalAlign=bottom;spacingLeft=0;fontColor=#999999;fontSize=12;whiteSpace=wrap;spacingBottom=2;html=1;" vertex="1" parent="1">
          <mxGeometry x="1000" y="600" width="80" height="80" as="geometry" />
        </mxCell>
        <mxCell id="4_9zNN8vkJeB74bzpde8-67" value="" style="sketch=0;dashed=0;connectable=0;html=1;fillColor=#757575;strokeColor=none;shape=mxgraph.gcp2.desktop_and_mobile;part=1;" vertex="1" parent="4_9zNN8vkJeB74bzpde8-66">
          <mxGeometry x="0.5" width="50" height="33" relative="1" as="geometry">
            <mxPoint x="-25" y="18.5" as="offset" />
          </mxGeometry>
        </mxCell>
        <mxCell id="4_9zNN8vkJeB74bzpde8-70" style="edgeStyle=orthogonalEdgeStyle;rounded=0;orthogonalLoop=1;jettySize=auto;html=1;strokeColor=#999999;endArrow=blockThin;endFill=1;" edge="1" parent="1" source="4_9zNN8vkJeB74bzpde8-45">
          <mxGeometry relative="1" as="geometry">
            <mxPoint x="1020" y="600" as="targetPoint" />
            <Array as="points">
              <mxPoint x="900" y="540" />
              <mxPoint x="1020" y="540" />
              <mxPoint x="1020" y="600" />
            </Array>
          </mxGeometry>
        </mxCell>
        <mxCell id="4_9zNN8vkJeB74bzpde8-72" value="&lt;font style=&quot;font-size: 7px;&quot; face=&quot;Courier New&quot;&gt;POST: subscription&lt;/font&gt;" style="text;html=1;align=center;verticalAlign=middle;whiteSpace=wrap;rounded=0;" vertex="1" parent="1">
          <mxGeometry x="1080" y="520" width="120" height="19.5" as="geometry" />
        </mxCell>
        <mxCell id="4_9zNN8vkJeB74bzpde8-73" value="&lt;font style=&quot;font-size: 7px;&quot; face=&quot;Courier New&quot;&gt;HTTPS&lt;/font&gt;" style="text;html=1;align=center;verticalAlign=middle;whiteSpace=wrap;rounded=0;" vertex="1" parent="1">
          <mxGeometry x="770" y="539.5" width="120" height="19.5" as="geometry" />
        </mxCell>
        <mxCell id="4_9zNN8vkJeB74bzpde8-75" style="edgeStyle=orthogonalEdgeStyle;rounded=0;orthogonalLoop=1;jettySize=auto;html=1;exitX=1;exitY=0.25;exitDx=0;exitDy=0;entryX=0;entryY=0.5;entryDx=0;entryDy=0;endArrow=blockThin;endFill=1;strokeColor=#4284F3;dashed=1;" edge="1" parent="1" source="4_9zNN8vkJeB74bzpde8-45" target="7BdzqqytsKiichTIAf4s-10">
          <mxGeometry relative="1" as="geometry" />
        </mxCell>
        <mxCell id="4_9zNN8vkJeB74bzpde8-76" value="&lt;font style=&quot;font-size: 7px;&quot; face=&quot;Courier New&quot;&gt;GET: subscription&lt;/font&gt;" style="text;html=1;align=center;verticalAlign=middle;whiteSpace=wrap;rounded=0;" vertex="1" parent="1">
          <mxGeometry x="970" y="394.5" width="90" height="19.5" as="geometry" />
        </mxCell>
      </root>
    </mxGraphModel>
  </diagram>
</mxfile>
